<svg width="16" height="16" viewBox="0 0 16 16" fill="none" xmlns="http://www.w3.org/2000/svg">
<g clip-path="url(#clip0_55_35)">
<path d="M11.5199 6.03342C11.6793 5.48696 11.7093 4.91089 11.6074 4.35084C11.5056 3.79079 11.2748 3.26214 10.9332 2.80675C10.5917 2.35137 10.1488 1.98176 9.63968 1.72719C9.13055 1.47262 8.56913 1.34009 7.9999 1.34009C7.43067 1.34009 6.86925 1.47262 6.36012 1.72719C5.85098 1.98176 5.40811 2.35137 5.06657 2.80675C4.72503 3.26214 4.49421 3.79079 4.39238 4.35084C4.29055 4.91089 4.32052 5.48696 4.4799 6.03342C3.87856 6.11987 3.30812 6.35437 2.81985 6.71587C2.33158 7.07736 1.94078 7.55452 1.68259 8.10445C1.42439 8.65437 1.30688 9.25984 1.34062 9.86642C1.37436 10.473 1.5583 11.0617 1.87589 11.5796C2.19349 12.0975 2.63479 12.5284 3.16014 12.8335C3.68549 13.1386 4.27842 13.3084 4.88564 13.3276C5.49286 13.3468 6.09534 13.2149 6.63893 12.9436C7.18253 12.6723 7.65019 12.2702 7.9999 11.7734C8.34873 12.2716 8.81598 12.6751 9.35957 12.9477C9.90317 13.2204 10.506 13.3535 11.1139 13.3352C11.7217 13.3169 12.3155 13.1476 12.8417 12.8427C13.3679 12.5379 13.8099 12.1069 14.1281 11.5886C14.4463 11.0704 14.6306 10.4811 14.6644 9.87395C14.6982 9.26676 14.5804 8.66069 14.3217 8.11034C14.063 7.55998 13.6715 7.08261 13.1824 6.72122C12.6933 6.35982 12.122 6.12576 11.5199 6.04009V6.03342Z" fill="#67C3E7"/>
<path d="M7.9999 11.7734V14.6668V11.7734Z" fill="#67C3E7"/>
<path d="M11.6916 5.29453L11.0422 5.14367L11.6916 5.29453ZM11.6862 4.80364L11.0403 4.969L11.6862 4.80364ZM11.5609 4.31446L12.2067 4.14911L11.5609 4.31446ZM11.4055 3.84137L10.7878 4.09213L11.4055 3.84137ZM11.22 3.38438L11.8377 3.13362L11.22 3.38438ZM10.988 2.94749L10.4337 3.31794L10.988 2.94749ZM10.3527 2.19817L10.6833 1.61926L10.3527 2.19817ZM9.91791 1.94984L10.2485 1.37093L9.91791 1.94984ZM9.47879 1.70349L9.157 2.28735L9.47879 1.70349ZM9.03538 1.4591L9.35717 0.875239L9.03538 1.4591ZM7.07606 1.53556L6.98396 0.875283L7.07606 1.53556ZM6.59639 1.65636L6.82617 2.28217L6.59639 1.65636ZM6.35968 1.74327L6.1299 1.11746L6.35968 1.74327ZM5.72042 2.10702L5.21825 1.66853L5.72042 2.10702ZM5.0873 2.88333L4.53002 2.51742L5.0873 2.88333ZM4.60192 3.73919L5.23456 3.94946L4.60192 3.73919ZM4.28315 5.59832L4.8882 5.87824L4.28315 5.59832ZM4.21307 5.74981L4.81812 6.02974L4.21307 5.74981ZM4.14298 5.9013L3.53793 5.62138L4.14298 5.9013ZM3.85249 6.17308L4.17185 6.75827L3.85249 6.17308ZM3.63208 6.29336L3.95144 6.87855L3.63208 6.29336ZM3.41167 6.41364L3.09231 5.82845L3.41167 6.41364ZM2.99004 6.67767L2.60254 6.13519L2.99004 6.67767ZM2.21984 7.29835L2.72057 7.73848L2.21984 7.29835ZM2.0533 7.48781L1.55257 7.04768L2.0533 7.48781ZM1.88677 7.67728L1.38604 7.23715L1.88677 7.67728ZM1.40336 10.5853L0.738724 10.6373L1.40336 10.5853ZM1.54762 11.0602L2.12908 10.7341L1.54762 11.0602ZM1.79654 11.5041L1.21509 11.8302L1.79654 11.5041ZM2.10307 11.8972L1.6463 12.3828L2.10307 11.8972ZM2.4672 12.2397L2.92397 11.7541L2.4672 12.2397ZM2.85365 12.5492L2.4802 13.1015L2.85365 12.5492ZM3.05803 12.6874L3.43148 12.1352L3.05803 12.6874ZM3.70076 13.0521L3.93605 12.4283L3.70076 13.0521ZM3.93471 13.1403L4.17 12.5166L3.93471 13.1403ZM4.16866 13.2286L3.93337 13.8524L4.16866 13.2286ZM5.65426 13.2691L5.77461 13.9248L5.65426 13.2691ZM6.15102 13.178L6.03067 12.5222L6.15102 13.178ZM6.61239 12.9961L6.97164 13.5577L6.61239 12.9961ZM7.03837 12.7236L7.39762 13.2852L7.03837 12.7236ZM7.44203 12.4197L7.00181 11.9191L7.44203 12.4197ZM7.82338 12.0844L8.26359 12.5851L7.82338 12.0844ZM8.17257 12.0317L7.78124 12.5714L8.17257 12.0317ZM8.48962 12.2616L8.88095 11.7218L8.48962 12.2616ZM8.83974 12.5362L9.26662 12.0241L8.83974 12.5362ZM9.03133 12.6959L8.60445 13.208L9.03133 12.6959ZM9.22293 12.8557L8.79604 13.3677L9.22293 12.8557ZM9.65488 13.0891L9.45939 13.7265L9.65488 13.0891ZM10.6253 13.3037L10.6428 13.9702L10.6253 13.3037ZM11.1241 13.2907L11.1066 12.6242L11.1241 13.2907ZM11.8479 13.1538L12.0245 13.7967L11.8479 13.1538ZM12.0852 13.0887L11.9086 12.4458L12.0852 13.0887ZM12.5426 12.9123L12.242 12.3173L12.5426 12.9123ZM12.9828 12.6899L13.2835 13.2849L12.9828 12.6899ZM13.3762 12.4019L13.8524 12.8685L13.3762 12.4019ZM13.7226 12.0484L13.2464 11.5818L13.7226 12.0484ZM14.0146 11.6554L14.5988 11.9765L14.0146 11.6554ZM14.1334 11.4392L14.7177 11.7604L14.1334 11.4392ZM14.2523 11.223L13.668 10.9019L14.2523 11.223ZM14.4542 10.7703L15.0832 10.9912L14.4542 10.7703ZM14.5373 10.5337L13.9082 10.3128L14.5373 10.5337ZM14.6203 10.2971L13.9913 10.0762L14.6203 10.2971ZM14.7052 9.80613L15.3718 9.81077L14.7052 9.80613ZM14.7087 9.29731L14.0421 9.29267L14.7087 9.29731ZM14.6057 8.81241L15.2126 8.53644L14.6057 8.81241ZM14.5009 8.58191L15.1077 8.30594L14.5009 8.58191ZM14.3961 8.35141L13.7892 8.62738L14.3961 8.35141ZM14.1592 7.9115L13.5953 8.26702L14.1592 7.9115ZM13.8952 7.49266L14.4591 7.13714L13.8952 7.49266ZM13.5714 7.12776L13.9913 6.60995L13.5714 7.12776ZM13.3797 6.97227L12.9598 7.49008L13.3797 6.97227ZM13.188 6.81678L13.6079 6.29898L13.188 6.81678ZM12.7717 6.56558L12.5103 7.17884L12.7717 6.56558ZM12.5472 6.46988L12.8087 5.85662L12.5472 6.46988ZM12.3228 6.37417L12.0613 6.98742L12.3228 6.37417ZM11.9537 6.2172L12.2137 5.60335L11.9537 6.2172ZM11.6645 6.09468L11.4044 6.70853L11.6645 6.09468ZM11.5771 5.78713L12.2265 5.93799L11.5771 5.78713ZM8.66657 11.7734C8.66657 11.4052 8.36809 11.1068 7.9999 11.1068C7.63171 11.1068 7.33323 11.4052 7.33323 11.7734H8.66657ZM7.9999 11.8734H7.33323V11.8829L7.3335 11.8923L7.9999 11.8734ZM8.01264 12.3234L7.34624 12.3423L8.01264 12.3234ZM8.03594 13.0234L7.36987 13.0516L8.03594 13.0234ZM8.05708 13.5234L8.72315 13.4953L8.05708 13.5234ZM8.05071 13.9968L7.38595 13.9463L8.05071 13.9968ZM8.03377 14.2201L8.69728 14.2849L8.69798 14.2777L8.69853 14.2705L8.03377 14.2201ZM7.9999 14.5668L7.33639 14.5019L7.33323 14.5343V14.5668H7.9999ZM7.33323 14.6668C7.33323 15.0349 7.63171 15.3334 7.9999 15.3334C8.36809 15.3334 8.66657 15.0349 8.66657 14.6668H7.33323ZM11.6343 5.54083L12.2837 5.69169L12.3409 5.44539L11.6916 5.29453L11.0422 5.14367L10.985 5.38997L11.6343 5.54083ZM11.6916 5.29453L12.3409 5.44539C12.4032 5.17719 12.4003 4.90511 12.332 4.63829L11.6862 4.80364L11.0403 4.969C11.0555 5.0283 11.0562 5.08348 11.0422 5.14367L11.6916 5.29453ZM11.6862 4.80364L12.332 4.63829L12.2694 4.3937L11.6235 4.55905L10.9777 4.7244L11.0403 4.969L11.6862 4.80364ZM11.6235 4.55905L12.2694 4.3937L12.2067 4.14911L11.5609 4.31446L10.9151 4.47981L10.9777 4.7244L11.6235 4.55905ZM11.5609 4.31446L12.2067 4.14911C12.1577 3.95766 12.0966 3.7714 12.0232 3.59061L11.4055 3.84137L10.7878 4.09213C10.8381 4.216 10.8806 4.34513 10.9151 4.47981L11.5609 4.31446ZM11.4055 3.84137L12.0232 3.59061L11.9305 3.36211L11.3128 3.61287L10.6951 3.86363L10.7878 4.09213L11.4055 3.84137ZM11.3128 3.61287L11.9305 3.36211L11.8377 3.13362L11.22 3.38438L10.6023 3.63514L10.6951 3.86363L11.3128 3.61287ZM11.22 3.38438L11.8377 3.13362C11.7586 2.93865 11.6598 2.75299 11.5422 2.57704L10.988 2.94749L10.4337 3.31794C10.5018 3.41985 10.5578 3.52544 10.6023 3.63514L11.22 3.38438ZM10.988 2.94749L11.5422 2.57704L11.403 2.36866L10.8487 2.73911L10.2944 3.10956L10.4337 3.31794L10.988 2.94749ZM10.8487 2.73911L11.403 2.36866L11.2637 2.16027L10.7094 2.53072L10.1552 2.90117L10.2944 3.10956L10.8487 2.73911ZM10.7094 2.53072L11.2637 2.16027C11.1135 1.93557 10.9181 1.75332 10.6833 1.61926L10.3527 2.19817L10.0221 2.77708C10.0773 2.80857 10.1196 2.84802 10.1552 2.90117L10.7094 2.53072ZM10.3527 2.19817L10.6833 1.61926L10.4659 1.4951L10.1353 2.07401L9.80471 2.65292L10.0221 2.77708L10.3527 2.19817ZM10.1353 2.07401L10.4659 1.4951L10.2485 1.37093L9.91791 1.94984L9.5873 2.52875L9.80471 2.65292L10.1353 2.07401ZM9.91791 1.94984L10.2485 1.37093C10.1006 1.28647 9.95131 1.2027 9.80058 1.11962L9.47879 1.70349L9.157 2.28735C9.30189 2.3672 9.44532 2.44767 9.5873 2.52875L9.91791 1.94984ZM9.47879 1.70349L9.80058 1.11962L9.57887 0.997431L9.25708 1.58129L8.9353 2.16516L9.157 2.28735L9.47879 1.70349ZM9.25708 1.58129L9.57887 0.997431L9.35717 0.875239L9.03538 1.4591L8.71359 2.04296L8.9353 2.16516L9.25708 1.58129ZM9.03538 1.4591L9.35717 0.875239C9.09169 0.728926 8.79932 0.668547 8.49768 0.697547L8.56148 1.36115L8.62528 2.02476C8.65989 2.02143 8.68345 2.02635 8.71359 2.04296L9.03538 1.4591ZM8.56148 1.36115L8.49768 0.697547L8.2455 0.721792L8.30929 1.3854L8.37309 2.04901L8.62528 2.02476L8.56148 1.36115ZM8.30929 1.3854L8.2455 0.721792L7.99331 0.746037L8.05711 1.40964L8.12091 2.07325L8.37309 2.04901L8.30929 1.3854ZM8.05711 1.40964L7.99331 0.746037C7.81604 0.76308 7.64155 0.783557 7.46987 0.807504L7.56197 1.46778L7.65407 2.12805C7.80633 2.10681 7.96193 2.08853 8.12091 2.07325L8.05711 1.40964ZM7.56197 1.46778L7.46987 0.807504L7.22691 0.841393L7.31901 1.50167L7.41111 2.16194L7.65407 2.12805L7.56197 1.46778ZM7.31901 1.50167L7.22691 0.841393L6.98396 0.875283L7.07606 1.53556L7.16816 2.19583L7.41111 2.16194L7.31901 1.50167ZM7.07606 1.53556L6.98396 0.875283C6.7737 0.904611 6.56771 0.956706 6.36661 1.03054L6.59639 1.65636L6.82617 2.28217C6.94069 2.24013 7.05448 2.21169 7.16816 2.19583L7.07606 1.53556ZM6.59639 1.65636L6.36661 1.03054L6.1299 1.11746L6.35968 1.74327L6.58946 2.36909L6.82617 2.28217L6.59639 1.65636ZM6.35968 1.74327L6.1299 1.11746L5.89319 1.20437L6.12297 1.83019L6.35275 2.456L6.58946 2.36909L6.35968 1.74327ZM6.12297 1.83019L5.89319 1.20437C5.63031 1.30089 5.40245 1.45759 5.21825 1.66853L5.72042 2.10702L6.2226 2.5455C6.25951 2.50322 6.30001 2.47536 6.35275 2.456L6.12297 1.83019ZM5.72042 2.10702L5.21825 1.66853L5.05242 1.85845L5.55459 2.29694L6.05676 2.73542L6.2226 2.5455L5.72042 2.10702ZM5.55459 2.29694L5.05242 1.85845L4.88658 2.04838L5.38875 2.48686L5.89093 2.92535L6.05676 2.73542L5.55459 2.29694ZM5.38875 2.48686L4.88658 2.04838C4.75643 2.19743 4.63747 2.35379 4.53002 2.51742L5.0873 2.88333L5.64457 3.24924C5.71796 3.13747 5.79996 3.02952 5.89093 2.92535L5.38875 2.48686ZM5.0873 2.88333L4.53002 2.51742L4.3944 2.72397L4.95168 3.08988L5.50895 3.45579L5.64457 3.24924L5.0873 2.88333ZM4.95168 3.08988L4.3944 2.72397L4.25878 2.93052L4.81606 3.29643L5.37333 3.66234L5.50895 3.45579L4.95168 3.08988ZM4.81606 3.29643L4.25878 2.93052C4.13636 3.11696 4.03975 3.31692 3.96929 3.52891L4.60192 3.73919L5.23456 3.94946C5.26878 3.84651 5.31492 3.75129 5.37333 3.66234L4.81606 3.29643ZM4.60192 3.73919L3.96929 3.52891L3.89078 3.76513L4.52341 3.9754L5.15605 4.18567L5.23456 3.94946L4.60192 3.73919ZM4.52341 3.9754L3.89078 3.76513L3.81227 4.00134L4.4449 4.21161L5.07754 4.42189L5.15605 4.18567L4.52341 3.9754ZM4.4449 4.21161L3.81227 4.00134C3.73824 4.22406 3.69958 4.45402 3.69649 4.6888L4.3631 4.69757L5.02971 4.70635C5.031 4.60812 5.04689 4.51411 5.07754 4.42189L4.4449 4.21161ZM4.3631 4.69757L3.69649 4.6888L3.69321 4.93855L4.35981 4.94733L5.02642 4.9561L5.02971 4.70635L4.3631 4.69757ZM4.35981 4.94733L3.69321 4.93855L3.68992 5.1883L4.35653 5.19708L5.02314 5.20585L5.02642 4.9561L4.35981 4.94733ZM4.35653 5.19708L3.68992 5.1883C3.68921 5.24222 3.68498 5.27922 3.68075 5.30234C3.67648 5.32568 3.67335 5.32867 3.6781 5.3184L4.28315 5.59832L4.8882 5.87824C4.98884 5.66073 5.02027 5.42374 5.02314 5.20585L4.35653 5.19708ZM4.28315 5.59832L3.6781 5.3184L3.60801 5.46989L4.21307 5.74981L4.81812 6.02974L4.8882 5.87824L4.28315 5.59832ZM4.21307 5.74981L3.60801 5.46989L3.53793 5.62138L4.14298 5.9013L4.74803 6.18123L4.81812 6.02974L4.21307 5.74981ZM4.14298 5.9013L3.53793 5.62138C3.55684 5.58051 3.57731 5.56054 3.57985 5.55816C3.58111 5.55699 3.57862 5.55948 3.57077 5.56498C3.56293 5.57047 3.55073 5.57827 3.53312 5.58788L3.85249 6.17308L4.17185 6.75827C4.38428 6.64234 4.61782 6.46268 4.74803 6.18123L4.14298 5.9013ZM3.85249 6.17308L3.53312 5.58788L3.31272 5.70817L3.63208 6.29336L3.95144 6.87855L4.17185 6.75827L3.85249 6.17308ZM3.63208 6.29336L3.31272 5.70817L3.09231 5.82845L3.41167 6.41364L3.73104 6.99884L3.95144 6.87855L3.63208 6.29336ZM3.41167 6.41364L3.09231 5.82845C2.92218 5.9213 2.75886 6.02353 2.60254 6.13519L2.99004 6.67767L3.37755 7.22015C3.48953 7.14015 3.60729 7.06637 3.73104 6.99884L3.41167 6.41364ZM2.99004 6.67767L2.60254 6.13519L2.40131 6.27893L2.78882 6.82141L3.17633 7.36388L3.37755 7.22015L2.99004 6.67767ZM2.78882 6.82141L2.40131 6.27893L2.20009 6.42267L2.5876 6.96514L2.9751 7.50762L3.17633 7.36388L2.78882 6.82141ZM2.5876 6.96514L2.20009 6.42267C2.02358 6.54875 1.86315 6.69434 1.71911 6.85822L2.21984 7.29835L2.72057 7.73848C2.79857 7.64973 2.88332 7.57319 2.9751 7.50762L2.5876 6.96514ZM2.21984 7.29835L1.71911 6.85822L1.55257 7.04768L2.0533 7.48781L2.55404 7.92794L2.72057 7.73848L2.21984 7.29835ZM2.0533 7.48781L1.55257 7.04768L1.38604 7.23715L1.88677 7.67728L2.3875 8.11741L2.55404 7.92794L2.0533 7.48781ZM1.88677 7.67728L1.38604 7.23715C1.20921 7.43833 1.08273 7.67111 1.01019 7.92896L1.65195 8.10949L2.29371 8.29003C2.31222 8.22421 2.34229 8.16884 2.3875 8.11741L1.88677 7.67728ZM1.65195 8.10949L1.01019 7.92896L0.941903 8.17171L1.58366 8.35224L2.22542 8.53278L2.29371 8.29003L1.65195 8.10949ZM1.58366 8.35224L0.941903 8.17171L0.873615 8.41446L1.51537 8.59499L2.15713 8.77553L2.22542 8.53278L1.58366 8.35224ZM1.51537 8.59499L0.873615 8.41446C0.817988 8.6122 0.779409 8.81274 0.758238 9.01571L1.42131 9.08487L2.08438 9.15403C2.09757 9.0275 2.1217 8.90145 2.15713 8.77553L1.51537 8.59499ZM1.42131 9.08487L0.758238 9.01571L0.732462 9.26283L1.39553 9.33199L2.0586 9.40115L2.08438 9.15403L1.42131 9.08487ZM1.39553 9.33199L0.732462 9.26283L0.706686 9.50995L1.36976 9.57911L2.03283 9.64828L2.0586 9.40115L1.39553 9.33199ZM1.36976 9.57911L0.706686 9.50995C0.685215 9.71581 0.682853 9.92309 0.699137 10.1312L1.36377 10.0793L2.02841 10.0273C2.0183 9.89807 2.01993 9.77192 2.03283 9.64828L1.36976 9.57911ZM1.36377 10.0793L0.699137 10.1312L0.71893 10.3843L1.38357 10.3323L2.0482 10.2803L2.02841 10.0273L1.36377 10.0793ZM1.38357 10.3323L0.71893 10.3843L0.738724 10.6373L1.40336 10.5853L2.068 10.5333L2.0482 10.2803L1.38357 10.3323ZM1.40336 10.5853L0.738724 10.6373C0.759474 10.9025 0.836046 11.1543 0.966158 11.3863L1.54762 11.0602L2.12908 10.7341C2.09324 10.6702 2.07364 10.6054 2.068 10.5333L1.40336 10.5853ZM1.54762 11.0602L0.966158 11.3863L1.09062 11.6082L1.67208 11.2821L2.25354 10.956L2.12908 10.7341L1.54762 11.0602ZM1.67208 11.2821L1.09062 11.6082L1.21509 11.8302L1.79654 11.5041L2.378 11.1779L2.25354 10.956L1.67208 11.2821ZM1.79654 11.5041L1.21509 11.8302C1.33066 12.0362 1.4746 12.2213 1.6463 12.3828L2.10307 11.8972L2.55984 11.4116C2.4888 11.3448 2.42838 11.2678 2.378 11.1779L1.79654 11.5041ZM2.10307 11.8972L1.6463 12.3828L1.82837 12.5541L2.28514 12.0685L2.7419 11.5829L2.55984 11.4116L2.10307 11.8972ZM2.28514 12.0685L1.82837 12.5541L2.01043 12.7253L2.4672 12.2397L2.92397 11.7541L2.7419 11.5829L2.28514 12.0685ZM2.4672 12.2397L2.01043 12.7253C2.15741 12.8636 2.31405 12.9891 2.4802 13.1015L2.85365 12.5492L3.2271 11.997C3.12073 11.925 3.01973 11.8442 2.92397 11.7541L2.4672 12.2397ZM2.85365 12.5492L2.4802 13.1015L2.68459 13.2397L3.05803 12.6874L3.43148 12.1352L3.2271 11.997L2.85365 12.5492ZM3.05803 12.6874L2.68459 13.2397L2.88897 13.3779L3.26242 12.8256L3.63587 12.2734L3.43148 12.1352L3.05803 12.6874ZM3.26242 12.8256L2.88897 13.3779C3.06891 13.4996 3.26147 13.5989 3.46546 13.6759L3.70076 13.0521L3.93605 12.4283C3.82811 12.3876 3.72844 12.336 3.63587 12.2734L3.26242 12.8256ZM3.70076 13.0521L3.46546 13.6759L3.69942 13.7641L3.93471 13.1403L4.17 12.5166L3.93605 12.4283L3.70076 13.0521ZM3.93471 13.1403L3.69942 13.7641L3.93337 13.8524L4.16866 13.2286L4.40395 12.6048L4.17 12.5166L3.93471 13.1403ZM4.16866 13.2286L3.93337 13.8524C4.16522 13.9398 4.40703 13.9835 4.65483 13.983L4.65343 13.3163L4.65202 12.6496C4.5654 12.6498 4.48404 12.635 4.40395 12.6048L4.16866 13.2286ZM4.65343 13.3163L4.65483 13.983L4.90565 13.9824L4.90424 13.3158L4.90284 12.6491L4.65202 12.6496L4.65343 13.3163ZM4.90424 13.3158L4.90565 13.9824L5.15647 13.9819L5.15506 13.3153L5.15365 12.6486L4.90284 12.6491L4.90424 13.3158ZM5.15506 13.3153L5.15647 13.9819C5.36385 13.9815 5.57005 13.9624 5.77461 13.9248L5.65426 13.2691L5.53391 12.6134C5.40729 12.6367 5.28069 12.6483 5.15365 12.6486L5.15506 13.3153ZM5.65426 13.2691L5.77461 13.9248L6.02299 13.8793L5.90264 13.2235L5.78229 12.5678L5.53391 12.6134L5.65426 13.2691ZM5.90264 13.2235L6.02299 13.8793L6.27137 13.8337L6.15102 13.178L6.03067 12.5222L5.78229 12.5678L5.90264 13.2235ZM6.15102 13.178L6.27137 13.8337C6.52205 13.7877 6.75696 13.695 6.97164 13.5577L6.61239 12.9961L6.25314 12.4345C6.18384 12.4789 6.11117 12.5075 6.03067 12.5222L6.15102 13.178ZM6.61239 12.9961L6.97164 13.5577L7.18463 13.4215L6.82538 12.8599L6.46613 12.2983L6.25314 12.4345L6.61239 12.9961ZM6.82538 12.8599L7.18463 13.4215L7.39762 13.2852L7.03837 12.7236L6.67911 12.162L6.46613 12.2983L6.82538 12.8599ZM7.03837 12.7236L7.39762 13.2852C7.56823 13.1761 7.72983 13.0544 7.88224 12.9204L7.44203 12.4197L7.00181 11.9191C6.89999 12.0086 6.79249 12.0895 6.67911 12.162L7.03837 12.7236ZM7.44203 12.4197L7.88224 12.9204L8.07292 12.7527L7.6327 12.2521L7.19249 11.7514L7.00181 11.9191L7.44203 12.4197ZM7.6327 12.2521L8.07292 12.7527L8.26359 12.5851L7.82338 12.0844L7.38316 11.5837L7.19249 11.7514L7.6327 12.2521ZM7.82338 12.0844L8.26359 12.5851C8.27109 12.5785 8.21769 12.6297 8.10554 12.6466C7.97123 12.6669 7.85315 12.6235 7.78124 12.5714L8.17257 12.0317L8.5639 11.492C8.38631 11.3632 8.1572 11.2903 7.90649 11.3282C7.67794 11.3627 7.50279 11.4786 7.38316 11.5837L7.82338 12.0844ZM8.17257 12.0317L7.78124 12.5714L7.93977 12.6863L8.3311 12.1466L8.72242 11.6069L8.5639 11.492L8.17257 12.0317ZM8.3311 12.1466L7.93977 12.6863L8.09829 12.8013L8.48962 12.2616L8.88095 11.7218L8.72242 11.6069L8.3311 12.1466ZM8.48962 12.2616L8.09829 12.8013C8.18905 12.8671 8.29371 12.949 8.41285 13.0483L8.83974 12.5362L9.26662 12.0241C9.1303 11.9105 9.00155 11.8093 8.88095 11.7218L8.48962 12.2616ZM8.83974 12.5362L8.41285 13.0483L8.60445 13.208L9.03133 12.6959L9.45822 12.1839L9.26662 12.0241L8.83974 12.5362ZM9.03133 12.6959L8.60445 13.208L8.79604 13.3677L9.22293 12.8557L9.64982 12.3436L9.45822 12.1839L9.03133 12.6959ZM9.22293 12.8557L8.79604 13.3677C8.99236 13.5314 9.21515 13.6516 9.45939 13.7265L9.65488 13.0891L9.85037 12.4518C9.77414 12.4284 9.70896 12.3929 9.64982 12.3436L9.22293 12.8557ZM9.65488 13.0891L9.45939 13.7265L9.69975 13.8002L9.89523 13.1628L10.0907 12.5255L9.85037 12.4518L9.65488 13.0891ZM9.89523 13.1628L9.69975 13.8002L9.9401 13.8739L10.1356 13.2366L10.3311 12.5992L10.0907 12.5255L9.89523 13.1628ZM10.1356 13.2366L9.9401 13.8739C10.1687 13.944 10.4039 13.9764 10.6428 13.9702L10.6253 13.3037L10.6079 12.6373C10.5143 12.6398 10.4229 12.6274 10.3311 12.5992L10.1356 13.2366ZM10.6253 13.3037L10.6428 13.9702L10.8921 13.9637L10.8747 13.2972L10.8572 12.6308L10.6079 12.6373L10.6253 13.3037ZM10.8747 13.2972L10.8921 13.9637L11.1415 13.9571L11.1241 13.2907L11.1066 12.6242L10.8572 12.6308L10.8747 13.2972ZM11.1241 13.2907L11.1415 13.9571C11.3608 13.9514 11.5765 13.9197 11.7872 13.8619L11.6107 13.219L11.4341 12.5761C11.3286 12.6051 11.2198 12.6213 11.1066 12.6242L11.1241 13.2907ZM11.6107 13.219L11.7872 13.8619L12.0245 13.7967L11.8479 13.1538L11.6714 12.511L11.4341 12.5761L11.6107 13.219ZM11.8479 13.1538L12.0245 13.7967L12.2617 13.7315L12.0852 13.0887L11.9086 12.4458L11.6714 12.511L11.8479 13.1538ZM12.0852 13.0887L12.2617 13.7315C12.4629 13.6763 12.6569 13.6015 12.8432 13.5074L12.5426 12.9123L12.242 12.3173C12.1348 12.3714 12.0239 12.4142 11.9086 12.4458L12.0852 13.0887ZM12.5426 12.9123L12.8432 13.5074L13.0633 13.3961L12.7627 12.8011L12.4621 12.2061L12.242 12.3173L12.5426 12.9123ZM12.7627 12.8011L13.0633 13.3961L13.2835 13.2849L12.9828 12.6899L12.6822 12.0948L12.4621 12.2061L12.7627 12.8011ZM12.9828 12.6899L13.2835 13.2849C13.4956 13.1778 13.686 13.0383 13.8524 12.8685L13.3762 12.4019L12.9 11.9353C12.8354 12.0012 12.7636 12.0537 12.6822 12.0948L12.9828 12.6899ZM13.3762 12.4019L13.8524 12.8685L14.0256 12.6917L13.5494 12.2251L13.0732 11.7586L12.9 11.9353L13.3762 12.4019ZM13.5494 12.2251L14.0256 12.6917L14.1988 12.5149L13.7226 12.0484L13.2464 11.5818L13.0732 11.7586L13.5494 12.2251ZM13.7226 12.0484L14.1988 12.5149C14.3566 12.3539 14.4903 12.174 14.5988 11.9765L14.0146 11.6554L13.4304 11.3343C13.3805 11.4251 13.3195 11.5071 13.2464 11.5818L13.7226 12.0484ZM14.0146 11.6554L14.5988 11.9765L14.7177 11.7604L14.1334 11.4392L13.5492 11.1181L13.4304 11.3343L14.0146 11.6554ZM14.1334 11.4392L14.7177 11.7604L14.8365 11.5442L14.2523 11.223L13.668 10.9019L13.5492 11.1181L14.1334 11.4392ZM14.2523 11.223L14.8365 11.5442C14.9337 11.3674 15.0158 11.1829 15.0832 10.9912L14.4542 10.7703L13.8252 10.5494C13.7817 10.6731 13.7293 10.7904 13.668 10.9019L14.2523 11.223ZM14.4542 10.7703L15.0832 10.9912L15.1663 10.7546L14.5373 10.5337L13.9082 10.3128L13.8252 10.5494L14.4542 10.7703ZM14.5373 10.5337L15.1663 10.7546L15.2493 10.518L14.6203 10.2971L13.9913 10.0762L13.9082 10.3128L14.5373 10.5337ZM14.6203 10.2971L15.2493 10.518C15.3295 10.2898 15.3702 10.0529 15.3718 9.81077L14.7052 9.80613L14.0385 9.80148C14.0379 9.89852 14.022 9.98903 13.9913 10.0762L14.6203 10.2971ZM14.7052 9.80613L15.3718 9.81077L15.3736 9.55636L14.707 9.55172L14.0403 9.54708L14.0385 9.80148L14.7052 9.80613ZM14.707 9.55172L15.3736 9.55636L15.3754 9.30195L14.7087 9.29731L14.0421 9.29267L14.0403 9.54708L14.707 9.55172ZM14.7087 9.29731L15.3754 9.30195C15.3772 9.03606 15.3227 8.77862 15.2126 8.53644L14.6057 8.81241L13.9988 9.08838C14.0284 9.15352 14.0426 9.21936 14.0421 9.29267L14.7087 9.29731ZM14.6057 8.81241L15.2126 8.53644L15.1077 8.30594L14.5009 8.58191L13.894 8.85788L13.9988 9.08838L14.6057 8.81241ZM14.5009 8.58191L15.1077 8.30594L15.0029 8.07544L14.3961 8.35141L13.7892 8.62738L13.894 8.85788L14.5009 8.58191ZM14.3961 8.35141L15.0029 8.07544C14.9208 7.89495 14.8276 7.72168 14.7232 7.55598L14.1592 7.9115L13.5953 8.26702C13.6668 8.38054 13.7315 8.50055 13.7892 8.62738L14.3961 8.35141ZM14.1592 7.9115L14.7232 7.55598L14.5912 7.34656L14.0272 7.70208L13.4632 8.0576L13.5953 8.26702L14.1592 7.9115ZM14.0272 7.70208L14.5912 7.34656L14.4591 7.13714L13.8952 7.49266L13.3312 7.84818L13.4632 8.0576L14.0272 7.70208ZM13.8952 7.49266L14.4591 7.13714C14.3324 6.93611 14.1759 6.75961 13.9913 6.60995L13.5714 7.12776L13.1515 7.64556C13.2226 7.70322 13.2819 7.76999 13.3312 7.84818L13.8952 7.49266ZM13.5714 7.12776L13.9913 6.60995L13.7996 6.45446L13.3797 6.97227L12.9598 7.49008L13.1515 7.64556L13.5714 7.12776ZM13.3797 6.97227L13.7996 6.45446L13.6079 6.29898L13.188 6.81678L12.768 7.33459L12.9598 7.49008L13.3797 6.97227ZM13.188 6.81678L13.6079 6.29898C13.4325 6.15675 13.2405 6.04072 13.0332 5.95233L12.7717 6.56558L12.5103 7.17884C12.6023 7.21806 12.6878 7.2695 12.768 7.33459L13.188 6.81678ZM12.7717 6.56558L13.0332 5.95233L12.8087 5.85662L12.5472 6.46988L12.2858 7.08313L12.5103 7.17884L12.7717 6.56558ZM12.5472 6.46988L12.8087 5.85662L12.5842 5.76091L12.3228 6.37417L12.0613 6.98742L12.2858 7.08313L12.5472 6.46988ZM12.3228 6.37417L12.5842 5.76091C12.4343 5.697 12.3108 5.64446 12.2137 5.60335L11.9537 6.2172L11.6936 6.83105C11.7894 6.87161 11.9119 6.92372 12.0613 6.98742L12.3228 6.37417ZM11.9537 6.2172L12.2137 5.60335L12.0692 5.54209L11.8091 6.15594L11.549 6.76979L11.6936 6.83105L11.9537 6.2172ZM11.8091 6.15594L12.0692 5.54209L11.9246 5.48083L11.6645 6.09468L11.4044 6.70853L11.549 6.76979L11.8091 6.15594ZM11.6645 6.09468L11.9246 5.48083C11.9838 5.50594 12.0494 5.54829 12.1064 5.61332C12.1631 5.67805 12.1952 5.747 12.2116 5.80497C12.2408 5.90774 12.2195 5.96792 12.2265 5.93799L11.5771 5.78713L10.9277 5.63626C10.8966 5.77053 10.8707 5.96406 10.9291 6.16935C10.9976 6.41073 11.1665 6.60773 11.4044 6.70853L11.6645 6.09468ZM11.5771 5.78713L12.2265 5.93799L12.2837 5.69169L11.6343 5.54083L10.985 5.38997L10.9277 5.63626L11.5771 5.78713ZM7.9999 11.7734H7.33323V11.8734H7.9999H8.66657V11.7734H7.9999ZM7.9999 11.8734L7.3335 11.8923L7.34624 12.3423L8.01264 12.3234L8.67904 12.3046L8.6663 11.8546L7.9999 11.8734ZM8.01264 12.3234L7.34624 12.3423C7.35476 12.6434 7.36263 12.8803 7.36987 13.0516L8.03594 13.0234L8.70202 12.9953C8.69517 12.8332 8.6875 12.6035 8.67904 12.3046L8.01264 12.3234ZM8.03594 13.0234L7.36987 13.0516L7.38044 13.3016L8.04651 13.2734L8.71258 13.2453L8.70202 12.9953L8.03594 13.0234ZM8.04651 13.2734L7.38044 13.3016L7.391 13.5516L8.05708 13.5234L8.72315 13.4953L8.71258 13.2453L8.04651 13.2734ZM8.05708 13.5234L7.391 13.5516C7.39707 13.695 7.39504 13.8264 7.38595 13.9463L8.05071 13.9968L8.71547 14.0472C8.72895 13.8693 8.73117 13.6851 8.72315 13.4953L8.05708 13.5234ZM8.05071 13.9968L7.38595 13.9463L7.36901 14.1697L8.03377 14.2201L8.69853 14.2705L8.71547 14.0472L8.05071 13.9968ZM8.03377 14.2201L7.37027 14.1553L7.33639 14.5019L7.9999 14.5668L8.66341 14.6316L8.69728 14.2849L8.03377 14.2201ZM7.9999 14.5668H7.33323V14.6668H7.9999H8.66657V14.5668H7.9999Z" fill="#67C3E7"/>
</g>
<defs>
<clipPath id="clip0_55_35">
<rect width="16" height="16" fill="white"/>
</clipPath>
</defs>
</svg>
