<svg width="16" height="16" viewBox="0 0 16 16" fill="none" xmlns="http://www.w3.org/2000/svg">
<g clip-path="url(#clip0_99_3198)">
<path d="M1.80002 6.86661C1.65065 7.01583 1.53216 7.19302 1.45132 7.38805C1.37047 7.58309 1.32886 7.79215 1.32886 8.00328C1.32886 8.21441 1.37047 8.42347 1.45132 8.6185C1.53216 8.81354 1.65065 8.99073 1.80002 9.13995L6.86002 14.1999C7.00923 14.3493 7.18643 14.4678 7.38146 14.5487C7.5765 14.6295 7.78556 14.6711 7.99669 14.6711C8.20782 14.6711 8.41688 14.6295 8.61191 14.5487C8.80695 14.4678 8.98414 14.3493 9.13335 14.1999L14.1934 9.13995C14.3427 8.99073 14.4612 8.81354 14.5421 8.6185C14.6229 8.42347 14.6645 8.21441 14.6645 8.00328C14.6645 7.79215 14.6229 7.58309 14.5421 7.38805C14.4612 7.19302 14.3427 7.01583 14.1934 6.86661L9.13335 1.80661C8.98414 1.65725 8.80695 1.53875 8.61191 1.45791C8.41688 1.37706 8.20782 1.33545 7.99669 1.33545C7.78556 1.33545 7.5765 1.37706 7.38146 1.45791C7.18643 1.53875 7.00923 1.65725 6.86002 1.80661L1.80002 6.86661Z" fill="#FF500D"/>
<path d="M1.5374 7.29796L0.967973 6.95127L1.5374 7.29796ZM1.4061 7.51363L0.836665 7.16694L1.4061 7.51363ZM1.34826 7.96663L0.711416 8.16379L1.34826 7.96663ZM1.71358 8.8747L2.24974 8.4785L1.71358 8.8747ZM1.85847 9.07078L1.32231 9.46698L1.85847 9.07078ZM2.00336 9.26686L2.53952 8.87066L2.00336 9.26686ZM2.33539 9.62935L1.89239 10.1275L2.33539 9.62935ZM2.70968 9.96217L3.15268 9.46398L2.70968 9.96217ZM3.04144 10.3375L3.5896 9.95809L3.04144 10.3375ZM3.18606 10.5465L2.6379 10.9259L3.18606 10.5465ZM3.33068 10.7554L2.78252 11.1348L3.33068 10.7554ZM3.68058 11.1126L3.29025 11.653L3.68058 11.1126ZM4.09116 11.4091L4.48149 10.8687L4.09116 11.4091ZM4.4688 11.7386L4.95183 11.2791L4.4688 11.7386ZM4.81353 12.101L5.29656 11.6415L4.81353 12.101ZM5.15745 12.4641L5.64255 12.0069L5.15745 12.4641ZM5.32901 12.6461L5.81411 12.1888L5.32901 12.6461ZM5.50057 12.8281L5.01547 13.2854L5.50057 12.8281ZM6.04287 13.3465L5.59492 13.8402L6.04287 13.3465ZM6.22825 13.5147L6.6762 13.0209L6.22825 13.5147ZM6.59877 13.8445L6.16033 14.3467L6.59877 13.8445ZM6.96907 14.1678L7.4075 13.6655L6.96907 14.1678ZM7.82536 14.507L7.65478 15.1515L7.82536 14.507ZM8.29141 14.5218L8.41174 15.1775L8.29141 14.5218ZM8.77608 14.4328L8.89641 15.0886L8.77608 14.4328ZM9.17396 14.1876L9.70098 14.5959L9.17396 14.1876ZM9.32951 13.9868L8.80249 13.5785L9.32951 13.9868ZM9.48505 13.786L10.0121 14.1943L9.48505 13.786ZM9.83892 13.43L9.42801 12.905L9.83892 13.43ZM10.0372 13.2748L10.4481 13.7998L10.0372 13.2748ZM10.2356 13.1196L10.6465 13.6445L10.2356 13.1196ZM10.7688 12.5921L10.2732 12.1462L10.7688 12.5921ZM10.9362 12.406L11.4318 12.8519L10.9362 12.406ZM11.2684 12.031L11.7708 12.4692L11.2684 12.031ZM11.4331 11.8422L10.9307 11.404L11.4331 11.8422ZM11.9634 11.3119L11.5602 10.781L11.9634 11.3119ZM12.1644 11.1593L11.7611 10.6284L12.1644 11.1593ZM12.3653 11.0066L12.7685 11.5375L12.3653 11.0066ZM12.7301 10.6644L13.2345 11.1003L12.7301 10.6644ZM12.894 10.4747L13.3984 10.9106L12.894 10.4747ZM13.0579 10.2851L12.5535 9.84916L13.0579 10.2851ZM13.3914 9.91141L12.9011 9.45961L13.3914 9.91141ZM13.7305 9.54343L14.2207 9.99523L13.7305 9.54343ZM14.0471 9.16705L14.5768 9.57189L14.0471 9.16705ZM14.3412 8.78227L14.8709 9.18711L14.3412 8.78227ZM14.5286 8.3487L13.8711 8.23868L14.5286 8.3487ZM14.569 8.10751L13.9114 7.99749L14.569 8.10751ZM14.6093 7.86633L15.2668 7.97634L14.6093 7.86633ZM14.5055 7.42598L13.9655 7.81689L14.5055 7.42598ZM14.2172 7.02766L13.6772 7.41857L14.2172 7.02766ZM13.9176 6.6304L14.4421 6.21887L13.9176 6.6304ZM13.6067 6.23418L14.1312 5.82265L13.6067 6.23418ZM13.282 5.85173L13.7732 5.4009L13.282 5.85173ZM12.9436 5.48304L13.4347 5.03222L12.9436 5.48304ZM12.5695 5.15005L12.961 4.61043L12.5695 5.15005ZM12.1597 4.85276L11.7682 5.39238L12.1597 4.85276ZM11.7897 4.51561L11.2882 4.9548L11.7897 4.51561ZM11.4596 4.13862L11.9612 3.69943L11.4596 4.13862ZM11.1183 3.77286L10.6456 4.24297L11.1183 3.77286ZM10.7657 3.41834L11.2384 2.94823L10.7657 3.41834ZM10.414 3.06287L10.8893 2.5953L10.414 3.06287ZM10.0634 2.70644L9.58815 3.17401L10.0634 2.70644ZM9.69297 2.36973L9.27253 2.88711L9.69297 2.36973ZM9.49792 2.21123L9.91835 1.69385L9.49792 2.21123ZM8.90136 1.78696L9.20872 1.19537L8.90136 1.78696ZM8.48845 1.57242L8.18108 2.164L8.48845 1.57242ZM6.93739 1.79905L7.33947 2.33082L6.93739 1.79905ZM6.73977 1.94848L6.33769 1.41671L6.73977 1.94848ZM6.36046 2.26976L6.81857 2.75409L6.36046 2.26976ZM5.99707 2.61347L5.53896 2.12914L5.99707 2.61347ZM5.64112 2.96463L6.11921 3.42926L5.64112 2.96463ZM5.46687 3.14393L4.98878 2.67931L5.46687 3.14393ZM5.29262 3.32323L4.81453 2.85861L5.29262 3.32323ZM4.94372 3.68145L4.46666 3.21576L4.94372 3.68145ZM4.76908 3.86036L4.29202 3.39468L4.76908 3.86036ZM4.59444 4.03927L5.0715 4.50495L4.59444 4.03927ZM3.57413 5.14027L3.15379 4.62282L3.57413 5.14027ZM3.18396 5.45721L2.76362 4.93975L3.18396 5.45721ZM2.80193 5.7823L2.35836 5.28461L2.80193 5.7823ZM2.13084 6.42826L1.59871 6.02666L2.13084 6.42826ZM1.66871 7.08229L2.23814 7.42897L1.66871 7.08229ZM1.5374 7.29796L0.967973 6.95127L0.836665 7.16694L1.4061 7.51363L1.97553 7.86032L2.10684 7.64465L1.5374 7.29796ZM1.4061 7.51363L0.836665 7.16694C0.6516 7.47091 0.604865 7.81962 0.711416 8.16379L1.34826 7.96663L1.98511 7.76948C1.98629 7.77329 1.99074 7.79204 1.98728 7.81915C1.98386 7.84596 1.97528 7.86073 1.97553 7.86032L1.4061 7.51363ZM1.34826 7.96663L0.711416 8.16379L0.78489 8.40112L1.42174 8.20396L2.05858 8.00681L1.98511 7.76948L1.34826 7.96663ZM1.42174 8.20396L0.78489 8.40112L0.858364 8.63845L1.49521 8.4413L2.13206 8.24414L2.05858 8.00681L1.42174 8.20396ZM1.49521 8.4413L0.858364 8.63845C0.929063 8.86682 1.03546 9.07881 1.17741 9.2709L1.71358 8.8747L2.24974 8.4785C2.1985 8.40916 2.15932 8.33221 2.13206 8.24414L1.49521 8.4413ZM1.71358 8.8747L1.17741 9.2709L1.32231 9.46698L1.85847 9.07078L2.39463 8.67458L2.24974 8.4785L1.71358 8.8747ZM1.85847 9.07078L1.32231 9.46698L1.4672 9.66306L2.00336 9.26686L2.53952 8.87066L2.39463 8.67458L1.85847 9.07078ZM2.00336 9.26686L1.4672 9.66306C1.59197 9.8319 1.73407 9.98675 1.89239 10.1275L2.33539 9.62935L2.7784 9.13116C2.6872 9.05006 2.60794 8.96325 2.53952 8.87066L2.00336 9.26686ZM2.33539 9.62935L1.89239 10.1275L2.07953 10.2939L2.52253 9.79576L2.96554 9.29757L2.7784 9.13116L2.33539 9.62935ZM2.52253 9.79576L2.07953 10.2939L2.26667 10.4604L2.70968 9.96217L3.15268 9.46398L2.96554 9.29757L2.52253 9.79576ZM2.70968 9.96217L2.26667 10.4604C2.3512 10.5355 2.42662 10.6206 2.49328 10.7169L3.04144 10.3375L3.5896 9.95809C3.46343 9.77582 3.31768 9.6107 3.15268 9.46398L2.70968 9.96217ZM3.04144 10.3375L2.49328 10.7169L2.6379 10.9259L3.18606 10.5465L3.73422 10.167L3.5896 9.95809L3.04144 10.3375ZM3.18606 10.5465L2.6379 10.9259L2.78252 11.1348L3.33068 10.7554L3.87884 10.376L3.73422 10.167L3.18606 10.5465ZM3.33068 10.7554L2.78252 11.1348C2.92186 11.3361 3.09181 11.5097 3.29025 11.653L3.68058 11.1126L4.07092 10.5721C3.99564 10.5178 3.93232 10.4532 3.87884 10.376L3.33068 10.7554ZM3.68058 11.1126L3.29025 11.653L3.49553 11.8013L3.88587 11.2609L4.2762 10.7204L4.07092 10.5721L3.68058 11.1126ZM3.88587 11.2609L3.49553 11.8013L3.70082 11.9496L4.09116 11.4091L4.48149 10.8687L4.2762 10.7204L3.88587 11.2609ZM4.09116 11.4091L3.70082 11.9496C3.80477 12.0246 3.89956 12.1074 3.98578 12.1981L4.4688 11.7386L4.95183 11.2791C4.80823 11.1281 4.65125 10.9913 4.48149 10.8687L4.09116 11.4091ZM4.4688 11.7386L3.98578 12.1981L4.15814 12.3793L4.64117 11.9198L5.12419 11.4603L4.95183 11.2791L4.4688 11.7386ZM4.64117 11.9198L4.15814 12.3793L4.3305 12.5604L4.81353 12.101L5.29656 11.6415L5.12419 11.4603L4.64117 11.9198ZM4.81353 12.101L4.3305 12.5604C4.44471 12.6805 4.55866 12.8008 4.67235 12.9214L5.15745 12.4641L5.64255 12.0069C5.52749 11.8848 5.41216 11.763 5.29656 11.6415L4.81353 12.101ZM5.15745 12.4641L4.67235 12.9214L4.84391 13.1034L5.32901 12.6461L5.81411 12.1888L5.64255 12.0069L5.15745 12.4641ZM5.32901 12.6461L4.84391 13.1034L5.01547 13.2854L5.50057 12.8281L5.98567 12.3708L5.81411 12.1888L5.32901 12.6461ZM5.50057 12.8281L5.01547 13.2854C5.14175 13.4194 5.27312 13.5483 5.40955 13.672L5.8575 13.1783L6.30546 12.6846C6.19472 12.5841 6.08813 12.4795 5.98567 12.3708L5.50057 12.8281ZM5.8575 13.1783L5.40955 13.672L5.59492 13.8402L6.04287 13.3465L6.49083 12.8527L6.30546 12.6846L5.8575 13.1783ZM6.04287 13.3465L5.59492 13.8402L5.78029 14.0084L6.22825 13.5147L6.6762 13.0209L6.49083 12.8527L6.04287 13.3465ZM6.22825 13.5147L5.78029 14.0084C5.90696 14.1233 6.03364 14.2361 6.16033 14.3467L6.59877 13.8445L7.0372 13.3423C6.91703 13.2374 6.79669 13.1302 6.6762 13.0209L6.22825 13.5147ZM6.59877 13.8445L6.16033 14.3467L6.34548 14.5083L6.78392 14.0061L7.22235 13.5039L7.0372 13.3423L6.59877 13.8445ZM6.78392 14.0061L6.34548 14.5083L6.53063 14.67L6.96907 14.1678L7.4075 13.6655L7.22235 13.5039L6.78392 14.0061ZM6.96907 14.1678L6.53063 14.67C6.72633 14.8408 6.95307 14.9658 7.20735 15.0331L7.37793 14.3886L7.54851 13.7441C7.50451 13.7325 7.45867 13.7102 7.4075 13.6655L6.96907 14.1678ZM7.37793 14.3886L7.20735 15.0331L7.43106 15.0923L7.60164 14.4478L7.77222 13.8033L7.54851 13.7441L7.37793 14.3886ZM7.60164 14.4478L7.43106 15.0923L7.65478 15.1515L7.82536 14.507L7.99594 13.8626L7.77222 13.8033L7.60164 14.4478ZM7.82536 14.507L7.65478 15.1515C7.90495 15.2177 8.15994 15.2237 8.41174 15.1775L8.29141 14.5218L8.17108 13.8661C8.09975 13.8791 8.04405 13.8753 7.99594 13.8626L7.82536 14.507ZM8.29141 14.5218L8.41174 15.1775L8.65408 15.133L8.53374 14.4773L8.41341 13.8216L8.17108 13.8661L8.29141 14.5218ZM8.53374 14.4773L8.65408 15.133L8.89641 15.0886L8.77608 14.4328L8.65575 13.7771L8.41341 13.8216L8.53374 14.4773ZM8.77608 14.4328L8.89641 15.0886C9.22475 15.0283 9.5002 14.855 9.70098 14.5959L9.17396 14.1876L8.64694 13.7793C8.64309 13.7843 8.64112 13.786 8.64145 13.7857C8.64184 13.7853 8.6437 13.7837 8.64691 13.7818C8.65014 13.7798 8.65329 13.7783 8.65574 13.7774C8.65812 13.7765 8.6584 13.7766 8.65575 13.7771L8.77608 14.4328ZM9.17396 14.1876L9.70098 14.5959L9.85652 14.3951L9.32951 13.9868L8.80249 13.5785L8.64694 13.7793L9.17396 14.1876ZM9.32951 13.9868L9.85652 14.3951L10.0121 14.1943L9.48505 13.786L8.95803 13.3777L8.80249 13.5785L9.32951 13.9868ZM9.48505 13.786L10.0121 14.1943C10.0823 14.1036 10.1614 14.0242 10.2498 13.955L9.83892 13.43L9.42801 12.905C9.25205 13.0428 9.09517 13.2007 8.95803 13.3777L9.48505 13.786ZM9.83892 13.43L10.2498 13.955L10.4481 13.7998L10.0372 13.2748L9.62633 12.7498L9.42801 12.905L9.83892 13.43ZM10.0372 13.2748L10.4481 13.7998L10.6465 13.6445L10.2356 13.1196L9.82465 12.5946L9.62633 12.7498L10.0372 13.2748ZM10.2356 13.1196L10.6465 13.6445C10.809 13.5173 10.9593 13.3771 11.0969 13.2241L10.6013 12.7782L10.1057 12.3323C10.0201 12.4275 9.92658 12.5148 9.82465 12.5946L10.2356 13.1196ZM10.6013 12.7782L11.0969 13.2241L11.2644 13.038L10.7688 12.5921L10.2732 12.1462L10.1057 12.3323L10.6013 12.7782ZM10.7688 12.5921L11.2644 13.038L11.4318 12.8519L10.9362 12.406L10.4406 11.9601L10.2732 12.1462L10.7688 12.5921ZM10.9362 12.406L11.4318 12.8519C11.5457 12.7253 11.6587 12.5977 11.7708 12.4692L11.2684 12.031L10.766 11.5928C10.6584 11.7162 10.5499 11.8386 10.4406 11.9601L10.9362 12.406ZM11.2684 12.031L11.7708 12.4692L11.9355 12.2804L11.4331 11.8422L10.9307 11.404L10.766 11.5928L11.2684 12.031ZM11.4331 11.8422L11.9355 12.2804L12.1002 12.0916L11.5978 11.6534L11.0954 11.2151L10.9307 11.404L11.4331 11.8422ZM11.5978 11.6534L12.1002 12.0916C12.18 12.0001 12.2686 11.9173 12.3667 11.8428L11.9634 11.3119L11.5602 10.781C11.3904 10.91 11.2352 11.0548 11.0954 11.2151L11.5978 11.6534ZM11.9634 11.3119L12.3667 11.8428L12.5676 11.6902L12.1644 11.1593L11.7611 10.6284L11.5602 10.781L11.9634 11.3119ZM12.1644 11.1593L12.5676 11.6902L12.7685 11.5375L12.3653 11.0066L11.9621 10.4758L11.7611 10.6284L12.1644 11.1593ZM12.3653 11.0066L12.7685 11.5375C12.9392 11.4079 13.0947 11.262 13.2345 11.1003L12.7301 10.6644L12.2257 10.2285C12.147 10.3196 12.0593 10.4019 11.9621 10.4758L12.3653 11.0066ZM12.7301 10.6644L13.2345 11.1003L13.3984 10.9106L12.894 10.4747L12.3896 10.0388L12.2257 10.2285L12.7301 10.6644ZM12.894 10.4747L13.3984 10.9106L13.5623 10.721L13.0579 10.2851L12.5535 9.84916L12.3896 10.0388L12.894 10.4747ZM13.0579 10.2851L13.5623 10.721C13.667 10.5999 13.7734 10.4806 13.8816 10.3632L13.3914 9.91141L12.9011 9.45961C12.7833 9.5875 12.6674 9.71735 12.5535 9.84916L13.0579 10.2851ZM13.3914 9.91141L13.8816 10.3632L14.0512 10.1792L13.5609 9.72742L13.0707 9.27562L12.9011 9.45961L13.3914 9.91141ZM13.5609 9.72742L14.0512 10.1792L14.2207 9.99523L13.7305 9.54343L13.2403 9.09163L13.0707 9.27562L13.5609 9.72742ZM13.7305 9.54343L14.2207 9.99523C14.3472 9.85803 14.4659 9.71693 14.5768 9.57189L14.0471 9.16705L13.5174 8.76221C13.4322 8.8737 13.3399 8.98352 13.2403 9.09163L13.7305 9.54343ZM14.0471 9.16705L14.5768 9.57189L14.7238 9.3795L14.1942 8.97466L13.6645 8.56982L13.5174 8.76221L14.0471 9.16705ZM14.1942 8.97466L14.7238 9.3795L14.8709 9.18711L14.3412 8.78227L13.8115 8.37744L13.6645 8.56982L14.1942 8.97466ZM14.3412 8.78227L14.8709 9.18711C15.0356 8.97159 15.1415 8.72563 15.1861 8.45872L14.5286 8.3487L13.8711 8.23868C13.8619 8.29335 13.8429 8.33644 13.8115 8.37744L14.3412 8.78227ZM14.5286 8.3487L15.1861 8.45872L15.2265 8.21753L14.569 8.10751L13.9114 7.99749L13.8711 8.23868L14.5286 8.3487ZM14.569 8.10751L15.2265 8.21753L15.2668 7.97634L14.6093 7.86633L13.9518 7.75631L13.9114 7.99749L14.569 8.10751ZM14.6093 7.86633L15.2668 7.97634C15.3234 7.63851 15.2456 7.31149 15.0455 7.03507L14.5055 7.42598L13.9655 7.81689C13.9664 7.81817 13.9593 7.80815 13.9547 7.78861C13.95 7.769 13.9518 7.75613 13.9518 7.75631L14.6093 7.86633ZM14.5055 7.42598L15.0455 7.03507L14.9014 6.83592L14.3614 7.22682L13.8213 7.61773L13.9655 7.81689L14.5055 7.42598ZM14.3614 7.22682L14.9014 6.83592L14.7572 6.63676L14.2172 7.02766L13.6772 7.41857L13.8213 7.61773L14.3614 7.22682ZM14.2172 7.02766L14.7572 6.63676C14.6559 6.49684 14.5509 6.35755 14.4421 6.21887L13.9176 6.6304L13.3931 7.04193C13.4915 7.16739 13.5862 7.29294 13.6772 7.41857L14.2172 7.02766ZM13.9176 6.6304L14.4421 6.21887L14.2866 6.02076L13.7621 6.43229L13.2377 6.84382L13.3931 7.04193L13.9176 6.6304ZM13.7621 6.43229L14.2866 6.02076L14.1312 5.82265L13.6067 6.23418L13.0822 6.64571L13.2377 6.84382L13.7621 6.43229ZM13.6067 6.23418L14.1312 5.82265C14.017 5.67714 13.8977 5.53654 13.7732 5.4009L13.282 5.85173L12.7909 6.30255C12.892 6.4127 12.9891 6.52707 13.0822 6.64571L13.6067 6.23418ZM13.282 5.85173L13.7732 5.4009L13.604 5.21656L13.1128 5.66738L12.6217 6.11821L12.7909 6.30255L13.282 5.85173ZM13.1128 5.66738L13.604 5.21656L13.4347 5.03222L12.9436 5.48304L12.4525 5.93386L12.6217 6.11821L13.1128 5.66738ZM12.9436 5.48304L13.4347 5.03222C13.2914 4.87609 13.1333 4.73542 12.961 4.61043L12.5695 5.15005L12.178 5.68968C12.2789 5.76289 12.3702 5.84421 12.4525 5.93386L12.9436 5.48304ZM12.5695 5.15005L12.961 4.61043L12.7561 4.46178L12.3646 5.00141L11.9731 5.54103L12.178 5.68968L12.5695 5.15005ZM12.3646 5.00141L12.7561 4.46178L12.5512 4.31313L12.1597 4.85276L11.7682 5.39238L11.9731 5.54103L12.3646 5.00141ZM12.1597 4.85276L12.5512 4.31313C12.4545 4.24299 12.3682 4.16421 12.2913 4.07642L11.7897 4.51561L11.2882 4.9548C11.4314 5.11834 11.5917 5.26433 11.7682 5.39238L12.1597 4.85276ZM11.7897 4.51561L12.2913 4.07642L12.1262 3.88793L11.6247 4.32712L11.1231 4.7663L11.2882 4.9548L11.7897 4.51561ZM11.6247 4.32712L12.1262 3.88793L11.9612 3.69943L11.4596 4.13862L10.9581 4.57781L11.1231 4.7663L11.6247 4.32712ZM11.4596 4.13862L11.9612 3.69943C11.8419 3.56318 11.7185 3.43095 11.591 3.30275L11.1183 3.77286L10.6456 4.24297C10.7531 4.35113 10.8573 4.46273 10.9581 4.57781L11.4596 4.13862ZM11.1183 3.77286L11.591 3.30275L11.4147 3.12549L10.942 3.5956L10.4693 4.06571L10.6456 4.24297L11.1183 3.77286ZM10.942 3.5956L11.4147 3.12549L11.2384 2.94823L10.7657 3.41834L10.293 3.88845L10.4693 4.06571L10.942 3.5956ZM10.7657 3.41834L11.2384 2.94823C11.1217 2.8309 11.0053 2.71326 10.8893 2.5953L10.414 3.06287L9.93883 3.53043C10.0566 3.65009 10.1746 3.76943 10.293 3.88845L10.7657 3.41834ZM10.414 3.06287L10.8893 2.5953L10.7139 2.41709L10.2387 2.88466L9.76349 3.35222L9.93883 3.53043L10.414 3.06287ZM10.2387 2.88466L10.7139 2.41709L10.5386 2.23888L10.0634 2.70644L9.58815 3.17401L9.76349 3.35222L10.2387 2.88466ZM10.0634 2.70644L10.5386 2.23888C10.4043 2.10237 10.2625 1.97352 10.1134 1.85235L9.69297 2.36973L9.27253 2.88711C9.3835 2.97728 9.48867 3.0729 9.58815 3.17401L10.0634 2.70644ZM9.69297 2.36973L10.1134 1.85235L9.91835 1.69385L9.49792 2.21123L9.07748 2.72861L9.27253 2.88711L9.69297 2.36973ZM9.49792 2.21123L9.91835 1.69385L9.7233 1.53535L9.30287 2.05273L8.88243 2.5701L9.07748 2.72861L9.49792 2.21123ZM9.30287 2.05273L9.7233 1.53535C9.56097 1.40343 9.38953 1.28931 9.20872 1.19537L8.90136 1.78696L8.59399 2.37854C8.68847 2.42762 8.7847 2.49068 8.88243 2.5701L9.30287 2.05273ZM8.90136 1.78696L9.20872 1.19537L9.00227 1.0881L8.6949 1.67969L8.38754 2.27127L8.59399 2.37854L8.90136 1.78696ZM8.6949 1.67969L9.00227 1.0881L8.79581 0.980837L8.48845 1.57242L8.18108 2.164L8.38754 2.27127L8.6949 1.67969ZM8.48845 1.57242L8.79581 0.980837C8.55363 0.855007 8.29101 0.797698 8.02004 0.807705L8.04465 1.47392L8.06925 2.14013C8.11474 2.13845 8.14799 2.14681 8.18108 2.164L8.48845 1.57242ZM8.04465 1.47392L8.02004 0.807705L7.7827 0.816469L7.8073 1.48268L7.83191 2.14889L8.06925 2.14013L8.04465 1.47392ZM7.8073 1.48268L7.7827 0.816469L7.54536 0.825234L7.56996 1.49145L7.59456 2.15766L7.83191 2.14889L7.8073 1.48268ZM7.56996 1.49145L7.54536 0.825234C7.24437 0.836349 6.96873 0.939565 6.73292 1.11787L7.135 1.64963L7.53709 2.1814C7.56476 2.16047 7.5791 2.15823 7.59456 2.15766L7.56996 1.49145ZM7.135 1.64963L6.73292 1.11787L6.53531 1.26729L6.93739 1.79905L7.33947 2.33082L7.53709 2.1814L7.135 1.64963ZM6.93739 1.79905L6.53531 1.26729L6.33769 1.41671L6.73977 1.94848L7.14186 2.48024L7.33947 2.33082L6.93739 1.79905ZM6.73977 1.94848L6.33769 1.41671C6.18623 1.53124 6.0411 1.65418 5.90235 1.78542L6.36046 2.26976L6.81857 2.75409C6.92208 2.65619 7.02983 2.56495 7.14186 2.48024L6.73977 1.94848ZM6.36046 2.26976L5.90235 1.78542L5.72066 1.95728L6.17877 2.44161L6.63688 2.92595L6.81857 2.75409L6.36046 2.26976ZM6.17877 2.44161L5.72066 1.95728L5.53896 2.12914L5.99707 2.61347L6.45518 3.09781L6.63688 2.92595L6.17877 2.44161ZM5.99707 2.61347L5.53896 2.12914C5.41104 2.25014 5.28573 2.37376 5.16304 2.50001L5.64112 2.96463L6.11921 3.42926C6.22886 3.31643 6.34085 3.20595 6.45518 3.09781L5.99707 2.61347ZM5.64112 2.96463L5.16304 2.50001L4.98878 2.67931L5.46687 3.14393L5.94496 3.60856L6.11921 3.42926L5.64112 2.96463ZM5.46687 3.14393L4.98878 2.67931L4.81453 2.85861L5.29262 3.32323L5.77071 3.78786L5.94496 3.60856L5.46687 3.14393ZM5.29262 3.32323L4.81453 2.85861C4.69871 2.97779 4.58275 3.09684 4.46666 3.21576L4.94372 3.68145L5.42078 4.14713C5.53756 4.0275 5.6542 3.90775 5.77071 3.78786L5.29262 3.32323ZM4.94372 3.68145L4.46666 3.21576L4.29202 3.39468L4.76908 3.86036L5.24614 4.32604L5.42078 4.14713L4.94372 3.68145ZM4.76908 3.86036L4.29202 3.39468L4.11738 3.57359L4.59444 4.03927L5.0715 4.50495L5.24614 4.32604L4.76908 3.86036ZM4.59444 4.03927L4.11738 3.57359C3.99041 3.70366 3.86784 3.83805 3.74968 3.97674L4.25715 4.40908L4.76462 4.84143C4.86332 4.72557 4.96561 4.61342 5.0715 4.50495L4.59444 4.03927ZM4.25715 4.40908L3.74968 3.97674L3.58704 4.16765L4.0945 4.59999L4.60197 5.03234L4.76462 4.84143L4.25715 4.40908ZM4.0945 4.59999L3.58704 4.16765L3.42439 4.35855L3.93186 4.7909L4.43932 5.22324L4.60197 5.03234L4.0945 4.59999ZM3.93186 4.7909L3.42439 4.35855C3.3424 4.45479 3.25233 4.54277 3.15379 4.62282L3.57413 5.14027L3.99446 5.65773C4.15603 5.52649 4.30445 5.38155 4.43932 5.22324L3.93186 4.7909ZM3.57413 5.14027L3.15379 4.62282L2.95871 4.78128L3.37904 5.29874L3.79938 5.8162L3.99446 5.65773L3.57413 5.14027ZM3.37904 5.29874L2.95871 4.78128L2.76362 4.93975L3.18396 5.45721L3.60429 5.97467L3.79938 5.8162L3.37904 5.29874ZM3.18396 5.45721L2.76362 4.93975C2.6257 5.05179 2.49061 5.16674 2.35836 5.28461L2.80193 5.7823L3.24551 6.27998C3.36251 6.17569 3.4821 6.07392 3.60429 5.97467L3.18396 5.45721ZM2.80193 5.7823L2.35836 5.28461L2.17142 5.45123L2.615 5.94891L3.05857 6.44659L3.24551 6.27998L2.80193 5.7823ZM2.615 5.94891L2.17142 5.45123L1.98448 5.61784L2.42806 6.11553L2.87163 6.61321L3.05857 6.44659L2.615 5.94891ZM2.42806 6.11553L1.98448 5.61784C1.83826 5.74817 1.70612 5.88434 1.59871 6.02666L2.13084 6.42826L2.66298 6.82985C2.7026 6.77735 2.76861 6.70503 2.87163 6.61321L2.42806 6.11553ZM2.13084 6.42826L1.59871 6.02666L1.48844 6.17278L2.02057 6.57438L2.5527 6.97597L2.66298 6.82985L2.13084 6.42826ZM2.02057 6.57438L1.48844 6.17278L1.37816 6.3189L1.9103 6.72049L2.44243 7.12209L2.5527 6.97597L2.02057 6.57438ZM1.9103 6.72049L1.37816 6.3189C1.28739 6.43918 1.19436 6.57943 1.09928 6.7356L1.66871 7.08229L2.23814 7.42897C2.31814 7.29758 2.38617 7.19664 2.44243 7.12209L1.9103 6.72049ZM1.66871 7.08229L1.09928 6.7356L0.967973 6.95127L1.5374 7.29796L2.10684 7.64465L2.23814 7.42897L1.66871 7.08229Z" fill="#FF500D"/>
<path d="M7.00699 7.68564C7.00699 7.34069 6.52811 7.27124 6.25789 7.27124C5.97139 7.27124 5.63957 7.48783 5.50879 7.74939" stroke="#1D293D" stroke-width="0.25" stroke-linecap="round"/>
<path d="M9.33398 7.59001C9.34477 7.50372 9.5022 7.3903 9.57306 7.35093C9.70673 7.27667 9.86911 7.27124 10.0193 7.27124C10.4089 7.27124 10.7619 7.34124 11.0872 7.55813" stroke="#1D293D" stroke-width="0.25" stroke-linecap="round"/>
<path d="M7.77519 8.7679C7.86797 8.71488 8.0077 8.75777 8.10141 8.7866C8.18205 8.82692 8.22108 8.824 8.30711 8.824C8.37057 8.824 8.46946 8.81164 8.52507 8.78662C8.61367 8.74675 8.67061 8.7305 8.76527 8.7305C8.91098 8.7305 9.02783 8.87784 9.16733 8.89776C9.19533 8.90176 9.2726 8.88363 9.29408 8.90296C9.34438 8.94823 9.39037 9.00582 9.42913 9.06295C9.51176 9.18472 9.58777 9.33115 9.64315 9.46709C9.68629 9.57298 9.69647 9.68419 9.7325 9.79227C9.74383 9.82627 9.88823 10.2089 9.83015 10.2255C9.79076 10.2367 9.74563 10.2192 9.70548 10.2307C9.54757 10.2758 9.3813 10.2873 9.22239 10.3294C9.09713 10.3625 8.97449 10.4035 8.84942 10.4364C8.76087 10.4597 8.67654 10.465 8.58762 10.4842C8.36183 10.533 8.08298 10.4883 7.85415 10.4883C7.72099 10.4883 7.52294 10.5263 7.40222 10.4613C7.35173 10.4341 7.30461 10.4186 7.2495 10.4031C7.09924 10.3611 6.93258 10.3721 6.78614 10.32C6.71787 10.2958 6.68018 10.3149 6.68018 10.2359C6.68018 10.1738 6.72213 10.1239 6.75498 10.0728C6.81678 9.97664 6.82948 9.86698 6.87134 9.76318C6.90356 9.68327 6.94588 9.59167 6.96068 9.50657C6.96855 9.46132 6.98062 9.35837 7.02094 9.32891C7.14852 9.23568 7.25924 9.12304 7.37936 9.02139C7.43277 8.9762 7.49725 8.96105 7.55806 8.92685C7.63679 8.88256 7.69948 8.81116 7.77519 8.7679Z" fill="#D63C00"/>
<path d="M7.75274 8.7991L7.69026 8.69084L7.75274 8.7991ZM7.50095 8.94628L7.43611 8.83941L7.50095 8.94628ZM7.26032 9.1148L7.35073 9.20113L7.26032 9.1148ZM7.20915 9.16839L7.11875 9.08206L7.20915 9.16839ZM7.07422 9.33495L7.1838 9.39509L7.07422 9.33495ZM7.00904 9.45372L6.89945 9.39358L7.00904 9.45372ZM6.94843 9.58199L6.83264 9.53491L6.94843 9.58199ZM6.7742 9.98769L6.88806 10.0393L6.7742 9.98769ZM6.7409 10.2297L6.61592 10.2274L6.7409 10.2297ZM6.81087 10.3078L6.84395 10.1872L6.81087 10.3078ZM6.95296 10.3468L6.91988 10.4673L6.95296 10.3468ZM7.09571 10.3818L7.06923 10.504L7.09571 10.3818ZM7.23911 10.4129L7.26559 10.2907L7.23911 10.4129ZM7.38163 10.4459L7.35179 10.5673L7.38163 10.4459ZM7.52328 10.4807L7.55313 10.3593L7.52328 10.4807ZM7.66773 10.4985L7.66715 10.6234L7.66773 10.4985ZM7.74135 10.4988L7.74192 10.3738L7.74135 10.4988ZM7.96212 10.5042L7.95416 10.6289L7.96212 10.5042ZM8.03565 10.5089L8.02769 10.6336L8.03565 10.5089ZM8.10918 10.5135L8.11713 10.3888L8.10918 10.5135ZM8.25634 10.5114L8.24478 10.3869L8.25634 10.5114ZM8.32998 10.5046L8.31842 10.3801L8.32998 10.5046ZM8.40361 10.4977L8.41517 10.6222L8.40361 10.4977ZM8.55002 10.4802L8.5682 10.6039L8.55002 10.4802ZM8.839 10.4278L8.80455 10.3077L8.839 10.4278ZM8.98034 10.3873L9.0148 10.5074L8.98034 10.3873ZM9.1237 10.3541L9.10175 10.231L9.1237 10.3541ZM9.26907 10.3281L9.24712 10.2051L9.26907 10.3281ZM9.4146 10.3028L9.39363 10.1795L9.4146 10.3028ZM9.68142 10.2346L9.61396 10.1294L9.68142 10.2346ZM9.77803 10.1727L9.84548 10.2779L9.77803 10.1727ZM9.81036 10.0699L9.93238 10.0427L9.81036 10.0699ZM9.79438 9.998L9.67236 10.0251L9.79438 9.998ZM9.77841 9.92613L9.65639 9.95325L9.77841 9.92613ZM9.73831 9.78458L9.62019 9.82548L9.73831 9.78458ZM9.69005 9.64521L9.80817 9.60431L9.69005 9.64521ZM9.63803 9.50814L9.75352 9.46032L9.63803 9.50814ZM9.58223 9.37337L9.46673 9.42118L9.58223 9.37337ZM9.51821 9.24222L9.62698 9.18061L9.51821 9.24222ZM9.44598 9.11469L9.33721 9.17629L9.44598 9.11469ZM9.24452 8.92938L9.17049 9.03009L9.24452 8.92938ZM8.98604 8.81468L9.02887 8.69724L8.98604 8.81468ZM8.71215 8.76849L8.69921 8.89282L8.71215 8.76849ZM8.57185 8.77908L8.60192 8.90041L8.57185 8.77908ZM8.42864 8.81456L8.39858 8.69323L8.42864 8.81456ZM8.29313 8.82088L8.27113 8.94393L8.29313 8.82088ZM8.02996 8.78065L8.01959 8.90522L8.02996 8.78065ZM7.95852 8.77471L7.96888 8.65014L7.89744 8.64419L7.88707 8.76876L7.8767 8.89333L7.94815 8.89928L7.95852 8.77471ZM7.88707 8.76876L7.89744 8.64419C7.82409 8.63809 7.75394 8.65409 7.69026 8.69084L7.75274 8.7991L7.81522 8.90737C7.83539 8.89573 7.85479 8.89151 7.8767 8.89333L7.88707 8.76876ZM7.75274 8.7991L7.69026 8.69084L7.62738 8.72713L7.68986 8.83539L7.75234 8.94366L7.81522 8.90737L7.75274 8.7991ZM7.68986 8.83539L7.62738 8.72713L7.5645 8.76341L7.62698 8.87168L7.68946 8.97995L7.75234 8.94366L7.68986 8.83539ZM7.62698 8.87168L7.5645 8.76341C7.52177 8.78807 7.47898 8.8134 7.43611 8.83941L7.50095 8.94628L7.56578 9.05315C7.60711 9.02807 7.64834 9.00367 7.68946 8.97995L7.62698 8.87168ZM7.50095 8.94628L7.43611 8.83941L7.37296 8.87772L7.4378 8.98459L7.50263 9.09146L7.56578 9.05315L7.50095 8.94628ZM7.4378 8.98459L7.37296 8.87772L7.30981 8.91603L7.37465 9.0229L7.43948 9.12977L7.50263 9.09146L7.4378 8.98459ZM7.37465 9.0229L7.30981 8.91603C7.25829 8.94729 7.21159 8.98483 7.16992 9.02847L7.26032 9.1148L7.35073 9.20113C7.37728 9.17332 7.4068 9.1496 7.43948 9.12977L7.37465 9.0229ZM7.26032 9.1148L7.16992 9.02847L7.11875 9.08206L7.20915 9.16839L7.29955 9.25472L7.35073 9.20113L7.26032 9.1148ZM7.20915 9.16839L7.11875 9.08206L7.06758 9.13565L7.15798 9.22198L7.24838 9.30831L7.29955 9.25472L7.20915 9.16839ZM7.15798 9.22198L7.06758 9.13565C7.02665 9.17851 6.99205 9.22485 6.96463 9.27481L7.07422 9.33495L7.1838 9.39509C7.19983 9.36587 7.22107 9.3369 7.24838 9.30831L7.15798 9.22198ZM7.07422 9.33495L6.96463 9.27481L6.93204 9.33419L7.04163 9.39433L7.15121 9.45447L7.1838 9.39509L7.07422 9.33495ZM7.04163 9.39433L6.93204 9.33419L6.89945 9.39358L7.00904 9.45372L7.11862 9.51386L7.15121 9.45447L7.04163 9.39433ZM7.00904 9.45372L6.89945 9.39358C6.87519 9.43778 6.85296 9.48494 6.83264 9.53491L6.94843 9.58199L7.06422 9.62908C7.08126 9.58719 7.09942 9.54883 7.11862 9.51386L7.00904 9.45372ZM6.94843 9.58199L6.83264 9.53491L6.80462 9.6038L6.92042 9.65088L7.03621 9.69797L7.06422 9.62908L6.94843 9.58199ZM6.92042 9.65088L6.80462 9.6038L6.77661 9.67269L6.8924 9.71978L7.0082 9.76686L7.03621 9.69797L6.92042 9.65088ZM6.8924 9.71978L6.77661 9.67269C6.75854 9.71714 6.73982 9.76071 6.72047 9.80342L6.83433 9.85501L6.94818 9.9066C6.96891 9.86086 6.98892 9.81427 7.0082 9.76686L6.8924 9.71978ZM6.83433 9.85501L6.72047 9.80342L6.69041 9.86976L6.80427 9.92135L6.91812 9.97294L6.94818 9.9066L6.83433 9.85501ZM6.80427 9.92135L6.69041 9.86976L6.66035 9.9361L6.7742 9.98769L6.88806 10.0393L6.91812 9.97294L6.80427 9.92135ZM6.7742 9.98769L6.66035 9.9361C6.63494 9.99217 6.61918 10.0506 6.61808 10.1103L6.74306 10.1126L6.86804 10.1149C6.86838 10.0965 6.87339 10.0717 6.88806 10.0393L6.7742 9.98769ZM6.74306 10.1126L6.61808 10.1103L6.617 10.1689L6.74198 10.1712L6.86696 10.1735L6.86804 10.1149L6.74306 10.1126ZM6.74198 10.1712L6.617 10.1689L6.61592 10.2274L6.7409 10.2297L6.86588 10.232L6.86696 10.1735L6.74198 10.1712ZM6.7409 10.2297L6.61592 10.2274C6.61505 10.2745 6.62949 10.3226 6.66477 10.3619C6.69771 10.3987 6.73995 10.4179 6.77778 10.4283L6.81087 10.3078L6.84395 10.1872C6.83442 10.1846 6.84132 10.1844 6.85094 10.1951C6.856 10.2007 6.86025 10.2078 6.86295 10.2155C6.86556 10.2231 6.86594 10.229 6.86588 10.232L6.7409 10.2297ZM6.81087 10.3078L6.77778 10.4283L6.84883 10.4478L6.88192 10.3273L6.915 10.2067L6.84395 10.1872L6.81087 10.3078ZM6.88192 10.3273L6.84883 10.4478L6.91988 10.4673L6.95296 10.3468L6.98605 10.2262L6.915 10.2067L6.88192 10.3273ZM6.95296 10.3468L6.91988 10.4673C6.96942 10.4809 7.0192 10.4931 7.06923 10.504L7.09571 10.3818L7.12219 10.2597C7.07662 10.2498 7.03124 10.2386 6.98605 10.2262L6.95296 10.3468ZM7.09571 10.3818L7.06923 10.504L7.14093 10.5195L7.16741 10.3974L7.19389 10.2752L7.12219 10.2597L7.09571 10.3818ZM7.16741 10.3974L7.14093 10.5195L7.21263 10.5351L7.23911 10.4129L7.26559 10.2907L7.19389 10.2752L7.16741 10.3974ZM7.23911 10.4129L7.21263 10.5351C7.25931 10.5452 7.30569 10.5559 7.35179 10.5673L7.38163 10.4459L7.41148 10.3245C7.36314 10.3126 7.31451 10.3014 7.26559 10.2907L7.23911 10.4129ZM7.38163 10.4459L7.35179 10.5673L7.42261 10.5847L7.45246 10.4633L7.4823 10.3419L7.41148 10.3245L7.38163 10.4459ZM7.45246 10.4633L7.42261 10.5847L7.49344 10.6021L7.52328 10.4807L7.55313 10.3593L7.4823 10.3419L7.45246 10.4633ZM7.52328 10.4807L7.49344 10.6021C7.55033 10.6161 7.6083 10.6232 7.66715 10.6234L7.66773 10.4985L7.6683 10.3735C7.629 10.3733 7.59068 10.3685 7.55313 10.3593L7.52328 10.4807ZM7.66773 10.4985L7.66715 10.6234L7.74077 10.6238L7.74135 10.4988L7.74192 10.3738L7.6683 10.3735L7.66773 10.4985ZM7.74135 10.4988L7.74077 10.6238L7.81439 10.6241L7.81497 10.4991L7.81554 10.3741L7.74192 10.3738L7.74135 10.4988ZM7.81497 10.4991L7.81439 10.6241C7.86101 10.6243 7.90759 10.6259 7.95416 10.6289L7.96212 10.5042L7.97008 10.3794C7.9186 10.3761 7.86709 10.3744 7.81554 10.3741L7.81497 10.4991ZM7.96212 10.5042L7.95416 10.6289L8.02769 10.6336L8.03565 10.5089L8.04361 10.3841L7.97008 10.3794L7.96212 10.5042ZM8.03565 10.5089L8.02769 10.6336L8.10122 10.6383L8.10918 10.5135L8.11713 10.3888L8.04361 10.3841L8.03565 10.5089ZM8.10918 10.5135L8.10122 10.6383C8.15676 10.6418 8.21234 10.641 8.2679 10.6359L8.25634 10.5114L8.24478 10.3869C8.20216 10.3909 8.15963 10.3915 8.11713 10.3888L8.10918 10.5135ZM8.25634 10.5114L8.2679 10.6359L8.34153 10.629L8.32998 10.5046L8.31842 10.3801L8.24478 10.3869L8.25634 10.5114ZM8.32998 10.5046L8.34153 10.629L8.41517 10.6222L8.40361 10.4977L8.39205 10.3733L8.31842 10.3801L8.32998 10.5046ZM8.40361 10.4977L8.41517 10.6222C8.46646 10.6174 8.51747 10.6113 8.5682 10.6039L8.55002 10.4802L8.53183 10.3565C8.48553 10.3633 8.43894 10.3689 8.39205 10.3733L8.40361 10.4977ZM8.55002 10.4802L8.5682 10.6039L8.64097 10.5932L8.62279 10.4695L8.6046 10.3458L8.53183 10.3565L8.55002 10.4802ZM8.62279 10.4695L8.64097 10.5932L8.71374 10.5825L8.69556 10.4588L8.67738 10.3351L8.6046 10.3458L8.62279 10.4695ZM8.69556 10.4588L8.71374 10.5825C8.76775 10.5745 8.821 10.563 8.87345 10.548L8.839 10.4278L8.80455 10.3077C8.76277 10.3196 8.7204 10.3288 8.67738 10.3351L8.69556 10.4588ZM8.839 10.4278L8.87345 10.548L8.94413 10.5277L8.90967 10.4076L8.87522 10.2874L8.80455 10.3077L8.839 10.4278ZM8.90967 10.4076L8.94413 10.5277L9.0148 10.5074L8.98034 10.3873L8.94589 10.2671L8.87522 10.2874L8.90967 10.4076ZM8.98034 10.3873L9.0148 10.5074C9.05778 10.4951 9.10139 10.485 9.14565 10.4771L9.1237 10.3541L9.10175 10.231C9.04909 10.2404 8.99713 10.2524 8.94589 10.2671L8.98034 10.3873ZM9.1237 10.3541L9.14565 10.4771L9.21834 10.4641L9.19639 10.3411L9.17443 10.218L9.10175 10.231L9.1237 10.3541ZM9.19639 10.3411L9.21834 10.4641L9.29103 10.4512L9.26907 10.3281L9.24712 10.2051L9.17443 10.218L9.19639 10.3411ZM9.26907 10.3281L9.29103 10.4512C9.33916 10.4426 9.38734 10.4342 9.43557 10.426L9.4146 10.3028L9.39363 10.1795C9.34475 10.1879 9.29591 10.1964 9.24712 10.2051L9.26907 10.3281ZM9.4146 10.3028L9.43557 10.426L9.5084 10.4136L9.48744 10.2904L9.46647 10.1671L9.39363 10.1795L9.4146 10.3028ZM9.48744 10.2904L9.5084 10.4136L9.58124 10.4012L9.56028 10.278L9.53931 10.1547L9.46647 10.1671L9.48744 10.2904ZM9.56028 10.278L9.58124 10.4012C9.64179 10.3909 9.69911 10.3718 9.74887 10.3399L9.68142 10.2346L9.61396 10.1294C9.59933 10.1388 9.57588 10.1485 9.53931 10.1547L9.56028 10.278ZM9.68142 10.2346L9.74887 10.3399L9.79718 10.3089L9.72972 10.2037L9.66227 10.0984L9.61396 10.1294L9.68142 10.2346ZM9.72972 10.2037L9.79718 10.3089L9.84548 10.2779L9.77803 10.1727L9.71057 10.0675L9.66227 10.0984L9.72972 10.2037ZM9.77803 10.1727L9.84548 10.2779C9.88453 10.2529 9.91474 10.216 9.92951 10.169C9.94345 10.1247 9.94079 10.0806 9.93238 10.0427L9.81036 10.0699L9.68833 10.097C9.69057 10.1071 9.68785 10.1041 9.69102 10.094C9.69269 10.0887 9.69556 10.0829 9.69972 10.0776C9.70382 10.0724 9.70793 10.0692 9.71057 10.0675L9.77803 10.1727ZM9.81036 10.0699L9.93238 10.0427L9.91641 9.97088L9.79438 9.998L9.67236 10.0251L9.68833 10.097L9.81036 10.0699ZM9.79438 9.998L9.91641 9.97088L9.90043 9.89901L9.77841 9.92613L9.65639 9.95325L9.67236 10.0251L9.79438 9.998ZM9.77841 9.92613L9.90043 9.89901C9.88874 9.84643 9.87407 9.79464 9.85643 9.74368L9.73831 9.78458L9.62019 9.82548C9.63471 9.86742 9.64678 9.91001 9.65639 9.95325L9.77841 9.92613ZM9.73831 9.78458L9.85643 9.74368L9.8323 9.674L9.71418 9.71489L9.59606 9.75579L9.62019 9.82548L9.73831 9.78458ZM9.71418 9.71489L9.8323 9.674L9.80817 9.60431L9.69005 9.64521L9.57193 9.68611L9.59606 9.75579L9.71418 9.71489ZM9.69005 9.64521L9.80817 9.60431C9.79129 9.55555 9.77307 9.50755 9.75352 9.46032L9.63803 9.50814L9.52253 9.55596C9.54018 9.59858 9.55665 9.64196 9.57193 9.68611L9.69005 9.64521ZM9.63803 9.50814L9.75352 9.46032L9.72562 9.39294L9.61013 9.44075L9.49463 9.48857L9.52253 9.55596L9.63803 9.50814ZM9.61013 9.44075L9.72562 9.39294L9.69772 9.32555L9.58223 9.37337L9.46673 9.42118L9.49463 9.48857L9.61013 9.44075ZM9.58223 9.37337L9.69772 9.32555C9.67715 9.27588 9.65357 9.22755 9.62698 9.18061L9.51821 9.24222L9.40945 9.30382C9.43101 9.3419 9.4501 9.38101 9.46673 9.42118L9.58223 9.37337ZM9.51821 9.24222L9.62698 9.18061L9.59086 9.11685L9.4821 9.17845L9.37333 9.24006L9.40945 9.30382L9.51821 9.24222ZM9.4821 9.17845L9.59086 9.11685L9.55475 9.05308L9.44598 9.11469L9.33721 9.17629L9.37333 9.24006L9.4821 9.17845ZM9.44598 9.11469L9.55475 9.05308C9.52261 8.99634 9.48073 8.94787 9.42879 8.90969L9.35475 9.01041L9.28071 9.11112C9.30226 9.12696 9.3212 9.14801 9.33721 9.17629L9.44598 9.11469ZM9.35475 9.01041L9.42879 8.90969L9.37367 8.86918L9.29964 8.96989L9.2256 9.07061L9.28071 9.11112L9.35475 9.01041ZM9.29964 8.96989L9.37367 8.86918L9.31856 8.82866L9.24452 8.92938L9.17049 9.03009L9.2256 9.07061L9.29964 8.96989ZM9.24452 8.92938L9.31856 8.82866C9.27175 8.79425 9.22018 8.76703 9.16445 8.7467L9.12162 8.86413L9.07878 8.98156C9.11345 8.99421 9.14381 9.01048 9.17049 9.03009L9.24452 8.92938ZM9.12162 8.86413L9.16445 8.7467L9.09666 8.72197L9.05383 8.8394L9.01099 8.95684L9.07878 8.98156L9.12162 8.86413ZM9.05383 8.8394L9.09666 8.72197L9.02887 8.69724L8.98604 8.81468L8.9432 8.93211L9.01099 8.95684L9.05383 8.8394ZM8.98604 8.81468L9.02887 8.69724C8.97447 8.6774 8.91895 8.66435 8.86249 8.65847L8.84955 8.78279L8.8366 8.90712C8.87174 8.91078 8.90722 8.91898 8.9432 8.93211L8.98604 8.81468ZM8.84955 8.78279L8.86249 8.65847L8.7938 8.65131L8.78085 8.77564L8.7679 8.89997L8.8366 8.90712L8.84955 8.78279ZM8.78085 8.77564L8.7938 8.65131L8.7251 8.64416L8.71215 8.76849L8.69921 8.89282L8.7679 8.89997L8.78085 8.77564ZM8.71215 8.76849L8.7251 8.64416C8.66394 8.63779 8.60262 8.64267 8.54179 8.65775L8.57185 8.77908L8.60192 8.90041C8.63656 8.89182 8.66876 8.88965 8.69921 8.89282L8.71215 8.76849ZM8.57185 8.77908L8.54179 8.65775L8.47018 8.67549L8.50025 8.79682L8.53031 8.91815L8.60192 8.90041L8.57185 8.77908ZM8.50025 8.79682L8.47018 8.67549L8.39858 8.69323L8.42864 8.81456L8.45871 8.93589L8.53031 8.91815L8.50025 8.79682ZM8.42864 8.81456L8.39858 8.69323C8.36556 8.70141 8.33825 8.70196 8.31513 8.69783L8.29313 8.82088L8.27113 8.94393C8.33323 8.95503 8.39625 8.95137 8.45871 8.93589L8.42864 8.81456ZM8.29313 8.82088L8.31513 8.69783L8.25122 8.68641L8.22922 8.80945L8.20722 8.9325L8.27113 8.94393L8.29313 8.82088ZM8.22922 8.80945L8.25122 8.68641L8.18732 8.67498L8.16531 8.79803L8.14331 8.92108L8.20722 8.9325L8.22922 8.80945ZM8.16531 8.79803L8.18732 8.67498C8.14049 8.6666 8.09146 8.66034 8.04033 8.65608L8.02996 8.78065L8.01959 8.90522C8.06372 8.9089 8.10493 8.91421 8.14331 8.92108L8.16531 8.79803ZM8.02996 8.78065L8.04033 8.65608L7.96888 8.65014L7.95852 8.77471L7.94815 8.89928L8.01959 8.90522L8.02996 8.78065Z" fill="#D63C00"/>
<path d="M8.75 8.62491C8.62343 8.82839 7.93498 8.85467 7.875 8.62491C7.84327 8.5034 7.60587 7.76193 7.7891 7.74994C8.10993 7.72893 8.4298 7.77706 8.75 7.77706C8.84313 8.01488 8.89632 8.38966 8.75 8.62491Z" fill="#FF895C"/>
<path d="M7.93727 8.68862L8.02666 8.60125L7.93727 8.68862ZM8.0108 8.7465L8.08209 8.64382L8.0108 8.7465ZM8.03719 8.76482L7.96591 8.8675L8.03719 8.76482ZM8.12786 8.77976L8.13444 8.90458L8.12786 8.77976ZM8.16001 8.77806L8.15343 8.65324L8.16001 8.77806ZM8.22327 8.77972L8.2099 8.904L8.22327 8.77972ZM8.28551 8.78641L8.29887 8.66213L8.28551 8.78641ZM8.34693 8.78124L8.38073 8.90159L8.34693 8.78124ZM8.37724 8.77273L8.34344 8.65239L8.37724 8.77273ZM8.49723 8.74129L8.46772 8.61982L8.49723 8.74129ZM8.52691 8.73408L8.55642 8.85554L8.52691 8.73408ZM8.58655 8.71875L8.61923 8.8394L8.58655 8.71875ZM8.64646 8.70252L8.61377 8.58187L8.64646 8.70252ZM8.6997 8.6732L8.78387 8.76561L8.6997 8.6732ZM8.72299 8.65198L8.80716 8.7444L8.72299 8.65198ZM8.78331 8.58076L8.67048 8.52696L8.78331 8.58076ZM8.79704 8.55196L8.90987 8.60576L8.79704 8.55196ZM8.83048 8.46307L8.7077 8.43962L8.83048 8.46307ZM8.83646 8.43179L8.71368 8.40834L8.83646 8.43179ZM8.84244 8.40051L8.96522 8.42396L8.84244 8.40051ZM8.84511 8.33762L8.72079 8.35061L8.84511 8.33762ZM8.84181 8.30601L8.96613 8.29302L8.84181 8.30601ZM8.8385 8.27441L8.96283 8.26141L8.8385 8.27441ZM8.83927 8.2111L8.96325 8.227L8.83927 8.2111ZM8.84333 8.1794L8.71935 8.16349L8.84333 8.1794ZM8.8474 8.14769L8.97138 8.1636L8.8474 8.14769ZM8.84254 8.08553L8.72258 8.1207L8.84254 8.08553ZM8.83361 8.05507L8.95356 8.01991L8.83361 8.05507ZM8.82468 8.02461L8.94463 7.98945L8.82468 8.02461ZM8.77857 7.84561L8.8802 7.77283L8.77857 7.84561ZM8.74417 7.79757L8.64254 7.87035L8.74417 7.79757ZM8.66481 7.76471L8.64721 7.88846L8.66481 7.76471ZM8.44676 7.75144L8.43866 7.6267L8.44676 7.75144ZM8.41535 7.75348L8.40725 7.62874L8.41535 7.75348ZM8.32135 7.75542L8.31279 7.88012L8.32135 7.75542ZM8.16509 7.75263L8.15787 7.62784L8.16509 7.75263ZM8.13374 7.75444L8.14096 7.87923L8.13374 7.75444ZM8.0712 7.75815L8.06363 7.63338L8.0712 7.75815ZM8.00883 7.76193L8.01639 7.8867L8.00883 7.76193ZM7.71971 8.00007L7.59715 7.97547L7.71971 8.00007ZM7.72385 8.06191L7.60589 8.10326L7.72385 8.06191ZM7.76475 8.18188L7.64543 8.21912L7.76475 8.18188ZM7.79888 8.30217L7.67633 8.32679L7.79888 8.30217ZM7.81119 8.36344L7.68864 8.38806L7.81119 8.36344ZM7.8273 8.42374L7.7088 8.46351L7.8273 8.42374ZM7.83726 8.45341L7.71875 8.49318L7.83726 8.45341ZM7.84721 8.48308L7.96572 8.44331L7.84721 8.48308ZM7.86163 8.54079L7.73818 8.5604L7.86163 8.54079ZM7.87054 8.59687L7.99399 8.57725L7.87054 8.59687ZM7.89575 8.64614L7.80636 8.73351L7.89575 8.64614ZM7.91651 8.66738L7.82711 8.75475L7.84787 8.77599L7.93727 8.68862L8.02666 8.60125L8.0059 8.58001L7.91651 8.66738ZM7.93727 8.68862L7.84787 8.77599C7.86768 8.79626 7.88955 8.81449 7.91313 8.83086L7.98441 8.72818L8.0557 8.6255C8.04409 8.61744 8.03453 8.60931 8.02666 8.60125L7.93727 8.68862ZM7.98441 8.72818L7.91313 8.83086L7.93952 8.84918L8.0108 8.7465L8.08209 8.64382L8.0557 8.6255L7.98441 8.72818ZM8.0108 8.7465L7.93952 8.84918L7.96591 8.8675L8.03719 8.76482L8.10848 8.66214L8.08209 8.64382L8.0108 8.7465ZM8.03719 8.76482L7.96591 8.8675C8.00632 8.89556 8.05323 8.90886 8.1023 8.90628L8.09572 8.78145L8.08915 8.65662C8.09137 8.65651 8.09495 8.6567 8.09918 8.6579C8.10341 8.6591 8.10659 8.66083 8.10848 8.66214L8.03719 8.76482ZM8.09572 8.78145L8.1023 8.90628L8.13444 8.90458L8.12786 8.77976L8.12129 8.65493L8.08915 8.65662L8.09572 8.78145ZM8.12786 8.77976L8.13444 8.90458L8.16658 8.90289L8.16001 8.77806L8.15343 8.65324L8.12129 8.65493L8.12786 8.77976ZM8.16001 8.77806L8.16658 8.90289C8.18155 8.9021 8.19596 8.9025 8.2099 8.904L8.22327 8.77972L8.23663 8.65543C8.20908 8.65247 8.18132 8.65177 8.15343 8.65324L8.16001 8.77806ZM8.22327 8.77972L8.2099 8.904L8.24102 8.90735L8.25439 8.78306L8.26775 8.65878L8.23663 8.65543L8.22327 8.77972ZM8.25439 8.78306L8.24102 8.90735L8.27214 8.91069L8.28551 8.78641L8.29887 8.66213L8.26775 8.65878L8.25439 8.78306ZM8.28551 8.78641L8.27214 8.91069C8.30881 8.91464 8.34529 8.91154 8.38073 8.90159L8.34693 8.78124L8.31313 8.6609C8.30816 8.6623 8.30369 8.66265 8.29887 8.66213L8.28551 8.78641ZM8.34693 8.78124L8.38073 8.90159L8.41104 8.89308L8.37724 8.77273L8.34344 8.65239L8.31313 8.6609L8.34693 8.78124ZM8.37724 8.77273L8.41104 8.89308L8.44135 8.88456L8.40755 8.76422L8.37375 8.64388L8.34344 8.65239L8.37724 8.77273ZM8.40755 8.76422L8.44135 8.88456C8.46017 8.87928 8.47874 8.87441 8.49705 8.86996L8.46754 8.7485L8.43804 8.62703C8.41677 8.6322 8.39534 8.63781 8.37375 8.64388L8.40755 8.76422ZM8.46754 8.7485L8.49705 8.86996L8.52673 8.86275L8.49723 8.74129L8.46772 8.61982L8.43804 8.62703L8.46754 8.7485ZM8.49723 8.74129L8.52673 8.86275L8.55642 8.85554L8.52691 8.73408L8.49741 8.61261L8.46772 8.61982L8.49723 8.74129ZM8.52691 8.73408L8.55642 8.85554C8.57729 8.85047 8.59823 8.84509 8.61923 8.8394L8.58655 8.71875L8.55387 8.5981C8.53494 8.60323 8.51612 8.60806 8.49741 8.61261L8.52691 8.73408ZM8.58655 8.71875L8.61923 8.8394L8.64919 8.83129L8.6165 8.71064L8.58382 8.58999L8.55387 8.5981L8.58655 8.71875ZM8.6165 8.71064L8.64919 8.83129L8.67914 8.82317L8.64646 8.70252L8.61377 8.58187L8.58382 8.58999L8.6165 8.71064ZM8.64646 8.70252L8.67914 8.82317C8.71857 8.81249 8.75389 8.79291 8.78387 8.76561L8.6997 8.6732L8.61553 8.58078C8.61512 8.58115 8.61484 8.58137 8.61468 8.58148C8.61453 8.58159 8.61445 8.58163 8.61444 8.58164C8.61442 8.58165 8.6144 8.58167 8.61433 8.58169C8.61427 8.58172 8.61409 8.58178 8.61377 8.58187L8.64646 8.70252ZM8.6997 8.6732L8.78387 8.76561L8.80716 8.7444L8.72299 8.65198L8.63883 8.55957L8.61553 8.58078L8.6997 8.6732ZM8.72299 8.65198L8.80716 8.7444L8.83045 8.72319L8.74628 8.63077L8.66212 8.53835L8.63883 8.55957L8.72299 8.65198ZM8.74628 8.63077L8.83045 8.72319C8.8581 8.69801 8.88011 8.66817 8.89614 8.63456L8.78331 8.58076L8.67048 8.52696C8.6682 8.53174 8.66553 8.53525 8.66212 8.53835L8.74628 8.63077ZM8.78331 8.58076L8.89614 8.63456L8.90987 8.60576L8.79704 8.55196L8.68421 8.49816L8.67048 8.52696L8.78331 8.58076ZM8.79704 8.55196L8.90987 8.60576L8.9236 8.57696L8.81077 8.52316L8.69795 8.46936L8.68421 8.49816L8.79704 8.55196ZM8.81077 8.52316L8.9236 8.57696C8.93735 8.54813 8.94727 8.5179 8.95326 8.48653L8.83048 8.46307L8.7077 8.43962C8.70573 8.44996 8.70251 8.45979 8.69795 8.46936L8.81077 8.52316ZM8.83048 8.46307L8.95326 8.48653L8.95924 8.45525L8.83646 8.43179L8.71368 8.40834L8.7077 8.43962L8.83048 8.46307ZM8.83646 8.43179L8.95924 8.45525L8.96522 8.42396L8.84244 8.40051L8.71966 8.37705L8.71368 8.40834L8.83646 8.43179ZM8.84244 8.40051L8.96522 8.42396C8.97149 8.39112 8.97291 8.35788 8.96943 8.32462L8.84511 8.33762L8.72079 8.35061C8.72172 8.35949 8.72135 8.36818 8.71966 8.37705L8.84244 8.40051ZM8.84511 8.33762L8.96943 8.32462L8.96613 8.29302L8.84181 8.30601L8.71748 8.319L8.72079 8.35061L8.84511 8.33762ZM8.84181 8.30601L8.96613 8.29302L8.96283 8.26141L8.8385 8.27441L8.71418 8.2874L8.71748 8.319L8.84181 8.30601ZM8.8385 8.27441L8.96283 8.26141C8.96163 8.25001 8.96176 8.23861 8.96325 8.227L8.83927 8.2111L8.71528 8.19519C8.71135 8.22586 8.71097 8.25666 8.71418 8.2874L8.8385 8.27441ZM8.83927 8.2111L8.96325 8.227L8.96732 8.1953L8.84333 8.1794L8.71935 8.16349L8.71528 8.19519L8.83927 8.2111ZM8.84333 8.1794L8.96732 8.1953L8.97138 8.1636L8.8474 8.14769L8.72342 8.13179L8.71935 8.16349L8.84333 8.1794ZM8.8474 8.14769L8.97138 8.1636C8.97627 8.12547 8.97333 8.08736 8.96249 8.05037L8.84254 8.08553L8.72258 8.1207C8.72365 8.12432 8.72395 8.12765 8.72342 8.13179L8.8474 8.14769ZM8.84254 8.08553L8.96249 8.05037L8.95356 8.01991L8.83361 8.05507L8.71366 8.09024L8.72258 8.1207L8.84254 8.08553ZM8.83361 8.05507L8.95356 8.01991L8.94463 7.98945L8.82468 8.02461L8.70473 8.05978L8.71366 8.09024L8.83361 8.05507ZM8.82468 8.02461L8.94463 7.98945C8.94015 7.97416 8.93667 7.95876 8.93418 7.94323L8.81076 7.96302L8.68734 7.98282C8.6915 8.0088 8.69731 8.03446 8.70473 8.05978L8.82468 8.02461ZM8.81076 7.96302L8.93418 7.94323L8.92919 7.9121L8.80577 7.93189L8.68234 7.95169L8.68734 7.98282L8.81076 7.96302ZM8.80577 7.93189L8.92919 7.9121L8.92419 7.88097L8.80077 7.90076L8.67735 7.92056L8.68234 7.95169L8.80577 7.93189ZM8.80077 7.90076L8.92419 7.88097C8.91801 7.84241 8.90369 7.80562 8.8802 7.77283L8.77857 7.84561L8.67695 7.9184C8.6764 7.91763 8.67688 7.9176 8.67735 7.92056L8.80077 7.90076ZM8.77857 7.84561L8.8802 7.77283L8.863 7.74881L8.76137 7.82159L8.65975 7.89437L8.67695 7.9184L8.77857 7.84561ZM8.76137 7.82159L8.863 7.74881L8.84579 7.72478L8.74417 7.79757L8.64254 7.87035L8.65975 7.89437L8.76137 7.82159ZM8.74417 7.79757L8.84579 7.72478C8.81311 7.67915 8.76565 7.65279 8.71349 7.64537L8.69589 7.76913L8.67828 7.89288C8.6744 7.89233 8.66768 7.89065 8.66005 7.88615C8.65226 7.88156 8.64639 7.87573 8.64254 7.87035L8.74417 7.79757ZM8.69589 7.76913L8.71349 7.64537L8.68242 7.64095L8.66481 7.76471L8.64721 7.88846L8.67828 7.89288L8.69589 7.76913ZM8.66481 7.76471L8.68242 7.64095L8.65134 7.63653L8.63374 7.76029L8.61613 7.88404L8.64721 7.88846L8.66481 7.76471ZM8.63374 7.76029L8.65134 7.63653C8.62696 7.63307 8.60252 7.63069 8.57803 7.62942L8.57154 7.75425L8.56505 7.87908C8.58205 7.87996 8.59908 7.88162 8.61613 7.88404L8.63374 7.76029ZM8.57154 7.75425L8.57803 7.62942L8.5469 7.6278L8.54041 7.75263L8.53393 7.87746L8.56505 7.87908L8.57154 7.75425ZM8.54041 7.75263L8.5469 7.6278L8.51578 7.62618L8.50929 7.75101L8.5028 7.87584L8.53393 7.87746L8.54041 7.75263ZM8.50929 7.75101L8.51578 7.62618C8.49012 7.62485 8.46441 7.62503 8.43866 7.6267L8.44676 7.75144L8.45486 7.87617C8.47099 7.87512 8.48696 7.87502 8.5028 7.87584L8.50929 7.75101ZM8.44676 7.75144L8.43866 7.6267L8.40725 7.62874L8.41535 7.75348L8.42345 7.87821L8.45486 7.87617L8.44676 7.75144ZM8.41535 7.75348L8.40725 7.62874L8.37584 7.63078L8.38394 7.75552L8.39204 7.88025L8.42345 7.87821L8.41535 7.75348ZM8.38394 7.75552L8.37584 7.63078C8.36041 7.63178 8.34511 7.63175 8.32991 7.63071L8.32135 7.75542L8.31279 7.88012C8.33917 7.88193 8.3656 7.88197 8.39204 7.88025L8.38394 7.75552ZM8.32135 7.75542L8.32991 7.63071L8.29872 7.62857L8.29017 7.75328L8.28161 7.87798L8.31279 7.88012L8.32135 7.75542ZM8.29017 7.75328L8.29872 7.62857L8.26754 7.62643L8.25898 7.75114L8.25043 7.87584L8.28161 7.87798L8.29017 7.75328ZM8.25898 7.75114L8.26754 7.62643C8.24147 7.62464 8.21535 7.62451 8.18922 7.62602L8.19644 7.75081L8.20367 7.8756C8.21934 7.8747 8.23491 7.87478 8.25043 7.87584L8.25898 7.75114ZM8.19644 7.75081L8.18922 7.62602L8.15787 7.62784L8.16509 7.75263L8.17231 7.87742L8.20367 7.8756L8.19644 7.75081ZM8.16509 7.75263L8.15787 7.62784L8.12651 7.62965L8.13374 7.75444L8.14096 7.87923L8.17231 7.87742L8.16509 7.75263ZM8.13374 7.75444L8.12651 7.62965C8.1055 7.63087 8.08454 7.63211 8.06363 7.63338L8.0712 7.75815L8.07876 7.88292C8.09944 7.88167 8.12017 7.88044 8.14096 7.87923L8.13374 7.75444ZM8.0712 7.75815L8.06363 7.63338L8.03245 7.63527L8.04001 7.76004L8.04757 7.88481L8.07876 7.88292L8.0712 7.75815ZM8.04001 7.76004L8.03245 7.63527L8.00126 7.63716L8.00883 7.76193L8.01639 7.8867L8.04757 7.88481L8.04001 7.76004ZM8.00883 7.76193L8.00126 7.63716C7.98478 7.63816 7.96834 7.6383 7.95194 7.63759L7.94654 7.76247L7.94113 7.88735C7.9662 7.88844 7.9913 7.88822 8.01639 7.8867L8.00883 7.76193ZM7.94654 7.76247L7.95194 7.63759L7.92084 7.63624L7.91543 7.76112L7.91002 7.88601L7.94113 7.88735L7.94654 7.76247ZM7.91543 7.76112L7.92084 7.63624L7.88973 7.63489L7.88432 7.75978L7.87892 7.88466L7.91002 7.88601L7.91543 7.76112ZM7.88432 7.75978L7.88973 7.63489C7.86129 7.63366 7.8329 7.63506 7.80464 7.63903L7.82203 7.76281L7.83942 7.8866C7.85275 7.88472 7.86588 7.8841 7.87892 7.88466L7.88432 7.75978ZM7.82203 7.76281L7.80464 7.63903L7.77346 7.64341L7.79085 7.76719L7.80824 7.89098L7.83942 7.8866L7.82203 7.76281ZM7.79085 7.76719L7.77346 7.64341L7.74227 7.64779L7.75966 7.77157L7.77705 7.89536L7.80824 7.89098L7.79085 7.76719ZM7.75966 7.77157L7.74227 7.64779C7.71151 7.65211 7.66942 7.66631 7.63846 7.7059C7.60792 7.74495 7.60408 7.78848 7.60648 7.81819L7.73107 7.80813L7.85567 7.79807C7.85633 7.80633 7.8564 7.83304 7.83539 7.85991C7.81396 7.88731 7.78703 7.89396 7.77705 7.89536L7.75966 7.77157ZM7.73107 7.80813L7.60648 7.81819L7.60908 7.85036L7.73367 7.84031L7.85826 7.83025L7.85567 7.79807L7.73107 7.80813ZM7.73367 7.84031L7.60908 7.85036L7.61167 7.88254L7.73627 7.87248L7.86086 7.86242L7.85826 7.83025L7.73367 7.84031ZM7.73627 7.87248L7.61167 7.88254C7.61246 7.89234 7.6119 7.902 7.60992 7.91186L7.73248 7.93646L7.85503 7.96107C7.86157 7.92852 7.86353 7.89553 7.86086 7.86242L7.73627 7.87248ZM7.73248 7.93646L7.60992 7.91186L7.60354 7.94366L7.72609 7.96827L7.84865 7.99287L7.85503 7.96107L7.73248 7.93646ZM7.72609 7.96827L7.60354 7.94366L7.59715 7.97547L7.71971 8.00007L7.84226 8.02468L7.84865 7.99287L7.72609 7.96827ZM7.71971 8.00007L7.59715 7.97547C7.58857 8.01822 7.5913 8.06163 7.60589 8.10326L7.72385 8.06191L7.84181 8.02056C7.84193 8.02091 7.84219 8.02183 7.84227 8.02308C7.84235 8.02432 7.84221 8.02495 7.84226 8.02468L7.71971 8.00007ZM7.72385 8.06191L7.60589 8.10326L7.61641 8.13329L7.73437 8.09194L7.85234 8.05059L7.84181 8.02056L7.72385 8.06191ZM7.73437 8.09194L7.61641 8.13329L7.62694 8.16332L7.7449 8.12197L7.86286 8.08062L7.85234 8.05059L7.73437 8.09194ZM7.7449 8.12197L7.62694 8.16332C7.63349 8.182 7.63965 8.2006 7.64543 8.21912L7.76475 8.18188L7.88408 8.14465C7.87742 8.12332 7.87035 8.10198 7.86286 8.08062L7.7449 8.12197ZM7.76475 8.18188L7.64543 8.21912L7.65475 8.249L7.77408 8.21177L7.8934 8.17453L7.88408 8.14465L7.76475 8.18188ZM7.77408 8.21177L7.65475 8.249L7.66408 8.27889L7.7834 8.24165L7.90273 8.20442L7.8934 8.17453L7.77408 8.21177ZM7.7834 8.24165L7.66408 8.27889C7.669 8.29467 7.67309 8.31063 7.67633 8.32679L7.79888 8.30217L7.92144 8.27755C7.91648 8.25286 7.91024 8.22848 7.90273 8.20442L7.7834 8.24165ZM7.79888 8.30217L7.67633 8.32679L7.68248 8.35742L7.80504 8.33281L7.92759 8.30819L7.92144 8.27755L7.79888 8.30217ZM7.80504 8.33281L7.68248 8.35742L7.68864 8.38806L7.81119 8.36344L7.93374 8.33882L7.92759 8.30819L7.80504 8.33281ZM7.81119 8.36344L7.68864 8.38806C7.69377 8.41362 7.7005 8.43878 7.7088 8.46351L7.8273 8.42374L7.9458 8.38397C7.94083 8.36914 7.93681 8.35411 7.93374 8.33882L7.81119 8.36344ZM7.8273 8.42374L7.7088 8.46351L7.71875 8.49318L7.83726 8.45341L7.95576 8.41364L7.9458 8.38397L7.8273 8.42374ZM7.83726 8.45341L7.71875 8.49318L7.72871 8.52285L7.84721 8.48308L7.96572 8.44331L7.95576 8.41364L7.83726 8.45341ZM7.84721 8.48308L7.72871 8.52285C7.73336 8.53672 7.7364 8.54921 7.73818 8.5604L7.86163 8.54079L7.98508 8.52117C7.98092 8.49498 7.97434 8.469 7.96572 8.44331L7.84721 8.48308ZM7.86163 8.54079L7.73818 8.5604L7.74263 8.58844L7.86608 8.56883L7.98953 8.54921L7.98508 8.52117L7.86163 8.54079ZM7.86608 8.56883L7.74263 8.58844L7.74709 8.61648L7.87054 8.59687L7.99399 8.57725L7.98953 8.54921L7.86608 8.56883ZM7.87054 8.59687L7.74709 8.61648C7.75432 8.66196 7.77531 8.70175 7.80636 8.73351L7.89575 8.64614L7.98515 8.55878C7.98637 8.56003 7.98843 8.56251 7.99035 8.56627C7.9923 8.57008 7.99346 8.57393 7.99399 8.57725L7.87054 8.59687ZM7.89575 8.64614L7.80636 8.73351L7.82711 8.75475L7.91651 8.66738L8.0059 8.58001L7.98515 8.55878L7.89575 8.64614Z" fill="#FF895C"/>
</g>
<defs>
<clipPath id="clip0_99_3198">
<rect width="16" height="16" fill="white"/>
</clipPath>
</defs>
</svg>
