<svg width="16" height="16" viewBox="0 0 16 16" fill="none" xmlns="http://www.w3.org/2000/svg">
<g clip-path="url(#clip0_55_37)">
<path d="M1.80002 6.86661C1.65065 7.01583 1.53216 7.19302 1.45132 7.38805C1.37047 7.58309 1.32886 7.79215 1.32886 8.00328C1.32886 8.21441 1.37047 8.42347 1.45132 8.6185C1.53216 8.81354 1.65065 8.99073 1.80002 9.13995L6.86002 14.1999C7.00923 14.3493 7.18643 14.4678 7.38146 14.5487C7.5765 14.6295 7.78556 14.6711 7.99669 14.6711C8.20782 14.6711 8.41688 14.6295 8.61191 14.5487C8.80695 14.4678 8.98414 14.3493 9.13335 14.1999L14.1934 9.13995C14.3427 8.99073 14.4612 8.81354 14.5421 8.6185C14.6229 8.42347 14.6645 8.21441 14.6645 8.00328C14.6645 7.79215 14.6229 7.58309 14.5421 7.38805C14.4612 7.19302 14.3427 7.01583 14.1934 6.86661L9.13335 1.80661C8.98414 1.65725 8.80695 1.53875 8.61191 1.45791C8.41688 1.37706 8.20782 1.33545 7.99669 1.33545C7.78556 1.33545 7.5765 1.37706 7.38146 1.45791C7.18643 1.53875 7.00923 1.65725 6.86002 1.80661L1.80002 6.86661Z" fill="#FF500D"/>
<path d="M1.5374 7.29796L0.967973 6.95127L1.5374 7.29796ZM1.4061 7.51363L0.836665 7.16694L1.4061 7.51363ZM1.34826 7.96663L0.711416 8.16379L1.34826 7.96663ZM1.71358 8.8747L2.24974 8.4785L1.71358 8.8747ZM1.85847 9.07078L1.32231 9.46698L1.85847 9.07078ZM2.00336 9.26686L2.53952 8.87066L2.00336 9.26686ZM2.33539 9.62935L1.89239 10.1275L2.33539 9.62935ZM2.70968 9.96217L3.15268 9.46398L2.70968 9.96217ZM3.04144 10.3375L3.5896 9.95809L3.04144 10.3375ZM3.18606 10.5465L2.6379 10.9259L3.18606 10.5465ZM3.33068 10.7554L2.78252 11.1348L3.33068 10.7554ZM3.68058 11.1126L3.29025 11.653L3.68058 11.1126ZM4.09116 11.4091L4.48149 10.8687L4.09116 11.4091ZM4.4688 11.7386L4.95183 11.2791L4.4688 11.7386ZM4.81353 12.101L5.29656 11.6415L4.81353 12.101ZM5.15745 12.4641L5.64255 12.0069L5.15745 12.4641ZM5.32901 12.6461L5.81411 12.1888L5.32901 12.6461ZM5.50057 12.8281L5.01547 13.2854L5.50057 12.8281ZM6.04287 13.3465L5.59492 13.8402L6.04287 13.3465ZM6.22825 13.5147L6.6762 13.0209L6.22825 13.5147ZM6.59877 13.8445L6.16033 14.3467L6.59877 13.8445ZM6.96907 14.1678L7.4075 13.6655L6.96907 14.1678ZM7.82536 14.507L7.65478 15.1515L7.82536 14.507ZM8.29141 14.5218L8.41174 15.1775L8.29141 14.5218ZM8.77608 14.4328L8.89641 15.0886L8.77608 14.4328ZM9.17396 14.1876L9.70098 14.5959L9.17396 14.1876ZM9.32951 13.9868L8.80249 13.5785L9.32951 13.9868ZM9.48505 13.786L10.0121 14.1943L9.48505 13.786ZM9.83892 13.43L9.42801 12.905L9.83892 13.43ZM10.0372 13.2748L10.4481 13.7998L10.0372 13.2748ZM10.2356 13.1196L10.6465 13.6445L10.2356 13.1196ZM10.7688 12.5921L10.2732 12.1462L10.7688 12.5921ZM10.9362 12.406L11.4318 12.8519L10.9362 12.406ZM11.2684 12.031L11.7708 12.4692L11.2684 12.031ZM11.4331 11.8422L10.9307 11.404L11.4331 11.8422ZM11.9634 11.3119L11.5602 10.781L11.9634 11.3119ZM12.1644 11.1593L11.7611 10.6284L12.1644 11.1593ZM12.3653 11.0066L12.7685 11.5375L12.3653 11.0066ZM12.7301 10.6644L13.2345 11.1003L12.7301 10.6644ZM12.894 10.4747L13.3984 10.9106L12.894 10.4747ZM13.0579 10.2851L12.5535 9.84916L13.0579 10.2851ZM13.3914 9.91141L12.9011 9.45961L13.3914 9.91141ZM13.7305 9.54343L14.2207 9.99523L13.7305 9.54343ZM14.0471 9.16705L14.5768 9.57189L14.0471 9.16705ZM14.3412 8.78227L14.8709 9.18711L14.3412 8.78227ZM14.5286 8.3487L13.8711 8.23868L14.5286 8.3487ZM14.569 8.10751L13.9114 7.99749L14.569 8.10751ZM14.6093 7.86633L15.2668 7.97634L14.6093 7.86633ZM14.5055 7.42598L13.9655 7.81689L14.5055 7.42598ZM14.2172 7.02766L13.6772 7.41857L14.2172 7.02766ZM13.9176 6.6304L14.4421 6.21887L13.9176 6.6304ZM13.6067 6.23418L14.1312 5.82265L13.6067 6.23418ZM13.282 5.85173L13.7732 5.4009L13.282 5.85173ZM12.9436 5.48304L13.4347 5.03222L12.9436 5.48304ZM12.5695 5.15005L12.961 4.61043L12.5695 5.15005ZM12.1597 4.85276L11.7682 5.39238L12.1597 4.85276ZM11.7897 4.51561L11.2882 4.9548L11.7897 4.51561ZM11.4596 4.13862L11.9612 3.69943L11.4596 4.13862ZM11.1183 3.77286L10.6456 4.24297L11.1183 3.77286ZM10.7657 3.41834L11.2384 2.94823L10.7657 3.41834ZM10.414 3.06287L10.8893 2.5953L10.414 3.06287ZM10.0634 2.70644L9.58815 3.17401L10.0634 2.70644ZM9.69297 2.36973L9.27253 2.88711L9.69297 2.36973ZM9.49792 2.21123L9.91835 1.69385L9.49792 2.21123ZM8.90136 1.78696L9.20872 1.19537L8.90136 1.78696ZM8.48845 1.57242L8.18108 2.164L8.48845 1.57242ZM6.93739 1.79905L7.33947 2.33082L6.93739 1.79905ZM6.73977 1.94848L6.33769 1.41671L6.73977 1.94848ZM6.36046 2.26976L6.81857 2.75409L6.36046 2.26976ZM5.99707 2.61347L5.53896 2.12914L5.99707 2.61347ZM5.64112 2.96463L6.11921 3.42926L5.64112 2.96463ZM5.46687 3.14393L4.98878 2.67931L5.46687 3.14393ZM5.29262 3.32323L4.81453 2.85861L5.29262 3.32323ZM4.94372 3.68145L4.46666 3.21576L4.94372 3.68145ZM4.76908 3.86036L4.29202 3.39468L4.76908 3.86036ZM4.59444 4.03927L5.0715 4.50495L4.59444 4.03927ZM3.57413 5.14027L3.15379 4.62282L3.57413 5.14027ZM3.18396 5.45721L2.76362 4.93975L3.18396 5.45721ZM2.80193 5.7823L2.35836 5.28461L2.80193 5.7823ZM2.13084 6.42826L1.59871 6.02666L2.13084 6.42826ZM1.66871 7.08229L2.23814 7.42897L1.66871 7.08229ZM1.5374 7.29796L0.967973 6.95127L0.836665 7.16694L1.4061 7.51363L1.97553 7.86032L2.10684 7.64465L1.5374 7.29796ZM1.4061 7.51363L0.836665 7.16694C0.6516 7.47091 0.604865 7.81962 0.711416 8.16379L1.34826 7.96663L1.98511 7.76948C1.98629 7.77329 1.99074 7.79204 1.98728 7.81915C1.98386 7.84596 1.97528 7.86073 1.97553 7.86032L1.4061 7.51363ZM1.34826 7.96663L0.711416 8.16379L0.78489 8.40112L1.42174 8.20396L2.05858 8.00681L1.98511 7.76948L1.34826 7.96663ZM1.42174 8.20396L0.78489 8.40112L0.858364 8.63845L1.49521 8.4413L2.13206 8.24414L2.05858 8.00681L1.42174 8.20396ZM1.49521 8.4413L0.858364 8.63845C0.929063 8.86682 1.03546 9.07881 1.17741 9.2709L1.71358 8.8747L2.24974 8.4785C2.1985 8.40916 2.15932 8.33221 2.13206 8.24414L1.49521 8.4413ZM1.71358 8.8747L1.17741 9.2709L1.32231 9.46698L1.85847 9.07078L2.39463 8.67458L2.24974 8.4785L1.71358 8.8747ZM1.85847 9.07078L1.32231 9.46698L1.4672 9.66306L2.00336 9.26686L2.53952 8.87066L2.39463 8.67458L1.85847 9.07078ZM2.00336 9.26686L1.4672 9.66306C1.59197 9.8319 1.73407 9.98675 1.89239 10.1275L2.33539 9.62935L2.7784 9.13116C2.6872 9.05006 2.60794 8.96325 2.53952 8.87066L2.00336 9.26686ZM2.33539 9.62935L1.89239 10.1275L2.07953 10.2939L2.52253 9.79576L2.96554 9.29757L2.7784 9.13116L2.33539 9.62935ZM2.52253 9.79576L2.07953 10.2939L2.26667 10.4604L2.70968 9.96217L3.15268 9.46398L2.96554 9.29757L2.52253 9.79576ZM2.70968 9.96217L2.26667 10.4604C2.3512 10.5355 2.42662 10.6206 2.49328 10.7169L3.04144 10.3375L3.5896 9.95809C3.46343 9.77582 3.31768 9.6107 3.15268 9.46398L2.70968 9.96217ZM3.04144 10.3375L2.49328 10.7169L2.6379 10.9259L3.18606 10.5465L3.73422 10.167L3.5896 9.95809L3.04144 10.3375ZM3.18606 10.5465L2.6379 10.9259L2.78252 11.1348L3.33068 10.7554L3.87884 10.376L3.73422 10.167L3.18606 10.5465ZM3.33068 10.7554L2.78252 11.1348C2.92186 11.3361 3.09181 11.5097 3.29025 11.653L3.68058 11.1126L4.07092 10.5721C3.99564 10.5178 3.93232 10.4532 3.87884 10.376L3.33068 10.7554ZM3.68058 11.1126L3.29025 11.653L3.49553 11.8013L3.88587 11.2609L4.2762 10.7204L4.07092 10.5721L3.68058 11.1126ZM3.88587 11.2609L3.49553 11.8013L3.70082 11.9496L4.09116 11.4091L4.48149 10.8687L4.2762 10.7204L3.88587 11.2609ZM4.09116 11.4091L3.70082 11.9496C3.80477 12.0246 3.89956 12.1074 3.98578 12.1981L4.4688 11.7386L4.95183 11.2791C4.80823 11.1281 4.65125 10.9913 4.48149 10.8687L4.09116 11.4091ZM4.4688 11.7386L3.98578 12.1981L4.15814 12.3793L4.64117 11.9198L5.12419 11.4603L4.95183 11.2791L4.4688 11.7386ZM4.64117 11.9198L4.15814 12.3793L4.3305 12.5604L4.81353 12.101L5.29656 11.6415L5.12419 11.4603L4.64117 11.9198ZM4.81353 12.101L4.3305 12.5604C4.44471 12.6805 4.55866 12.8008 4.67235 12.9214L5.15745 12.4641L5.64255 12.0069C5.52749 11.8848 5.41216 11.763 5.29656 11.6415L4.81353 12.101ZM5.15745 12.4641L4.67235 12.9214L4.84391 13.1034L5.32901 12.6461L5.81411 12.1888L5.64255 12.0069L5.15745 12.4641ZM5.32901 12.6461L4.84391 13.1034L5.01547 13.2854L5.50057 12.8281L5.98567 12.3708L5.81411 12.1888L5.32901 12.6461ZM5.50057 12.8281L5.01547 13.2854C5.14175 13.4194 5.27312 13.5483 5.40955 13.672L5.8575 13.1783L6.30546 12.6846C6.19472 12.5841 6.08813 12.4795 5.98567 12.3708L5.50057 12.8281ZM5.8575 13.1783L5.40955 13.672L5.59492 13.8402L6.04287 13.3465L6.49083 12.8527L6.30546 12.6846L5.8575 13.1783ZM6.04287 13.3465L5.59492 13.8402L5.78029 14.0084L6.22825 13.5147L6.6762 13.0209L6.49083 12.8527L6.04287 13.3465ZM6.22825 13.5147L5.78029 14.0084C5.90696 14.1233 6.03364 14.2361 6.16033 14.3467L6.59877 13.8445L7.0372 13.3423C6.91703 13.2374 6.79669 13.1302 6.6762 13.0209L6.22825 13.5147ZM6.59877 13.8445L6.16033 14.3467L6.34548 14.5083L6.78392 14.0061L7.22235 13.5039L7.0372 13.3423L6.59877 13.8445ZM6.78392 14.0061L6.34548 14.5083L6.53063 14.67L6.96907 14.1678L7.4075 13.6655L7.22235 13.5039L6.78392 14.0061ZM6.96907 14.1678L6.53063 14.67C6.72633 14.8408 6.95307 14.9658 7.20735 15.0331L7.37793 14.3886L7.54851 13.7441C7.50451 13.7325 7.45867 13.7102 7.4075 13.6655L6.96907 14.1678ZM7.37793 14.3886L7.20735 15.0331L7.43106 15.0923L7.60164 14.4478L7.77222 13.8033L7.54851 13.7441L7.37793 14.3886ZM7.60164 14.4478L7.43106 15.0923L7.65478 15.1515L7.82536 14.507L7.99594 13.8626L7.77222 13.8033L7.60164 14.4478ZM7.82536 14.507L7.65478 15.1515C7.90495 15.2177 8.15994 15.2237 8.41174 15.1775L8.29141 14.5218L8.17108 13.8661C8.09975 13.8791 8.04405 13.8753 7.99594 13.8626L7.82536 14.507ZM8.29141 14.5218L8.41174 15.1775L8.65408 15.133L8.53374 14.4773L8.41341 13.8216L8.17108 13.8661L8.29141 14.5218ZM8.53374 14.4773L8.65408 15.133L8.89641 15.0886L8.77608 14.4328L8.65575 13.7771L8.41341 13.8216L8.53374 14.4773ZM8.77608 14.4328L8.89641 15.0886C9.22475 15.0283 9.5002 14.855 9.70098 14.5959L9.17396 14.1876L8.64694 13.7793C8.64309 13.7843 8.64112 13.786 8.64145 13.7857C8.64184 13.7853 8.6437 13.7837 8.64691 13.7818C8.65014 13.7798 8.65329 13.7783 8.65574 13.7774C8.65812 13.7765 8.6584 13.7766 8.65575 13.7771L8.77608 14.4328ZM9.17396 14.1876L9.70098 14.5959L9.85652 14.3951L9.32951 13.9868L8.80249 13.5785L8.64694 13.7793L9.17396 14.1876ZM9.32951 13.9868L9.85652 14.3951L10.0121 14.1943L9.48505 13.786L8.95803 13.3777L8.80249 13.5785L9.32951 13.9868ZM9.48505 13.786L10.0121 14.1943C10.0823 14.1036 10.1614 14.0242 10.2498 13.955L9.83892 13.43L9.42801 12.905C9.25205 13.0428 9.09517 13.2007 8.95803 13.3777L9.48505 13.786ZM9.83892 13.43L10.2498 13.955L10.4481 13.7998L10.0372 13.2748L9.62633 12.7498L9.42801 12.905L9.83892 13.43ZM10.0372 13.2748L10.4481 13.7998L10.6465 13.6445L10.2356 13.1196L9.82465 12.5946L9.62633 12.7498L10.0372 13.2748ZM10.2356 13.1196L10.6465 13.6445C10.809 13.5173 10.9593 13.3771 11.0969 13.2241L10.6013 12.7782L10.1057 12.3323C10.0201 12.4275 9.92658 12.5148 9.82465 12.5946L10.2356 13.1196ZM10.6013 12.7782L11.0969 13.2241L11.2644 13.038L10.7688 12.5921L10.2732 12.1462L10.1057 12.3323L10.6013 12.7782ZM10.7688 12.5921L11.2644 13.038L11.4318 12.8519L10.9362 12.406L10.4406 11.9601L10.2732 12.1462L10.7688 12.5921ZM10.9362 12.406L11.4318 12.8519C11.5457 12.7253 11.6587 12.5977 11.7708 12.4692L11.2684 12.031L10.766 11.5928C10.6584 11.7162 10.5499 11.8386 10.4406 11.9601L10.9362 12.406ZM11.2684 12.031L11.7708 12.4692L11.9355 12.2804L11.4331 11.8422L10.9307 11.404L10.766 11.5928L11.2684 12.031ZM11.4331 11.8422L11.9355 12.2804L12.1002 12.0916L11.5978 11.6534L11.0954 11.2151L10.9307 11.404L11.4331 11.8422ZM11.5978 11.6534L12.1002 12.0916C12.18 12.0001 12.2686 11.9173 12.3667 11.8428L11.9634 11.3119L11.5602 10.781C11.3904 10.91 11.2352 11.0548 11.0954 11.2151L11.5978 11.6534ZM11.9634 11.3119L12.3667 11.8428L12.5676 11.6902L12.1644 11.1593L11.7611 10.6284L11.5602 10.781L11.9634 11.3119ZM12.1644 11.1593L12.5676 11.6902L12.7685 11.5375L12.3653 11.0066L11.9621 10.4758L11.7611 10.6284L12.1644 11.1593ZM12.3653 11.0066L12.7685 11.5375C12.9392 11.4079 13.0947 11.262 13.2345 11.1003L12.7301 10.6644L12.2257 10.2285C12.147 10.3196 12.0593 10.4019 11.9621 10.4758L12.3653 11.0066ZM12.7301 10.6644L13.2345 11.1003L13.3984 10.9106L12.894 10.4747L12.3896 10.0388L12.2257 10.2285L12.7301 10.6644ZM12.894 10.4747L13.3984 10.9106L13.5623 10.721L13.0579 10.2851L12.5535 9.84916L12.3896 10.0388L12.894 10.4747ZM13.0579 10.2851L13.5623 10.721C13.667 10.5999 13.7734 10.4806 13.8816 10.3632L13.3914 9.91141L12.9011 9.45961C12.7833 9.5875 12.6674 9.71735 12.5535 9.84916L13.0579 10.2851ZM13.3914 9.91141L13.8816 10.3632L14.0512 10.1792L13.5609 9.72742L13.0707 9.27562L12.9011 9.45961L13.3914 9.91141ZM13.5609 9.72742L14.0512 10.1792L14.2207 9.99523L13.7305 9.54343L13.2403 9.09163L13.0707 9.27562L13.5609 9.72742ZM13.7305 9.54343L14.2207 9.99523C14.3472 9.85803 14.4659 9.71693 14.5768 9.57189L14.0471 9.16705L13.5174 8.76221C13.4322 8.8737 13.3399 8.98352 13.2403 9.09163L13.7305 9.54343ZM14.0471 9.16705L14.5768 9.57189L14.7238 9.3795L14.1942 8.97466L13.6645 8.56982L13.5174 8.76221L14.0471 9.16705ZM14.1942 8.97466L14.7238 9.3795L14.8709 9.18711L14.3412 8.78227L13.8115 8.37744L13.6645 8.56982L14.1942 8.97466ZM14.3412 8.78227L14.8709 9.18711C15.0356 8.97159 15.1415 8.72563 15.1861 8.45872L14.5286 8.3487L13.8711 8.23868C13.8619 8.29335 13.8429 8.33644 13.8115 8.37744L14.3412 8.78227ZM14.5286 8.3487L15.1861 8.45872L15.2265 8.21753L14.569 8.10751L13.9114 7.99749L13.8711 8.23868L14.5286 8.3487ZM14.569 8.10751L15.2265 8.21753L15.2668 7.97634L14.6093 7.86633L13.9518 7.75631L13.9114 7.99749L14.569 8.10751ZM14.6093 7.86633L15.2668 7.97634C15.3234 7.63851 15.2456 7.31149 15.0455 7.03507L14.5055 7.42598L13.9655 7.81689C13.9664 7.81817 13.9593 7.80815 13.9547 7.78861C13.95 7.769 13.9518 7.75613 13.9518 7.75631L14.6093 7.86633ZM14.5055 7.42598L15.0455 7.03507L14.9014 6.83592L14.3614 7.22682L13.8213 7.61773L13.9655 7.81689L14.5055 7.42598ZM14.3614 7.22682L14.9014 6.83592L14.7572 6.63676L14.2172 7.02766L13.6772 7.41857L13.8213 7.61773L14.3614 7.22682ZM14.2172 7.02766L14.7572 6.63676C14.6559 6.49684 14.5509 6.35755 14.4421 6.21887L13.9176 6.6304L13.3931 7.04193C13.4915 7.16739 13.5862 7.29294 13.6772 7.41857L14.2172 7.02766ZM13.9176 6.6304L14.4421 6.21887L14.2866 6.02076L13.7621 6.43229L13.2377 6.84382L13.3931 7.04193L13.9176 6.6304ZM13.7621 6.43229L14.2866 6.02076L14.1312 5.82265L13.6067 6.23418L13.0822 6.64571L13.2377 6.84382L13.7621 6.43229ZM13.6067 6.23418L14.1312 5.82265C14.017 5.67714 13.8977 5.53654 13.7732 5.4009L13.282 5.85173L12.7909 6.30255C12.892 6.4127 12.9891 6.52707 13.0822 6.64571L13.6067 6.23418ZM13.282 5.85173L13.7732 5.4009L13.604 5.21656L13.1128 5.66738L12.6217 6.11821L12.7909 6.30255L13.282 5.85173ZM13.1128 5.66738L13.604 5.21656L13.4347 5.03222L12.9436 5.48304L12.4525 5.93386L12.6217 6.11821L13.1128 5.66738ZM12.9436 5.48304L13.4347 5.03222C13.2914 4.87609 13.1333 4.73542 12.961 4.61043L12.5695 5.15005L12.178 5.68968C12.2789 5.76289 12.3702 5.84421 12.4525 5.93386L12.9436 5.48304ZM12.5695 5.15005L12.961 4.61043L12.7561 4.46178L12.3646 5.00141L11.9731 5.54103L12.178 5.68968L12.5695 5.15005ZM12.3646 5.00141L12.7561 4.46178L12.5512 4.31313L12.1597 4.85276L11.7682 5.39238L11.9731 5.54103L12.3646 5.00141ZM12.1597 4.85276L12.5512 4.31313C12.4545 4.24299 12.3682 4.16421 12.2913 4.07642L11.7897 4.51561L11.2882 4.9548C11.4314 5.11834 11.5917 5.26433 11.7682 5.39238L12.1597 4.85276ZM11.7897 4.51561L12.2913 4.07642L12.1262 3.88793L11.6247 4.32712L11.1231 4.7663L11.2882 4.9548L11.7897 4.51561ZM11.6247 4.32712L12.1262 3.88793L11.9612 3.69943L11.4596 4.13862L10.9581 4.57781L11.1231 4.7663L11.6247 4.32712ZM11.4596 4.13862L11.9612 3.69943C11.8419 3.56318 11.7185 3.43095 11.591 3.30275L11.1183 3.77286L10.6456 4.24297C10.7531 4.35113 10.8573 4.46273 10.9581 4.57781L11.4596 4.13862ZM11.1183 3.77286L11.591 3.30275L11.4147 3.12549L10.942 3.5956L10.4693 4.06571L10.6456 4.24297L11.1183 3.77286ZM10.942 3.5956L11.4147 3.12549L11.2384 2.94823L10.7657 3.41834L10.293 3.88845L10.4693 4.06571L10.942 3.5956ZM10.7657 3.41834L11.2384 2.94823C11.1217 2.8309 11.0053 2.71326 10.8893 2.5953L10.414 3.06287L9.93883 3.53043C10.0566 3.65009 10.1746 3.76943 10.293 3.88845L10.7657 3.41834ZM10.414 3.06287L10.8893 2.5953L10.7139 2.41709L10.2387 2.88466L9.76349 3.35222L9.93883 3.53043L10.414 3.06287ZM10.2387 2.88466L10.7139 2.41709L10.5386 2.23888L10.0634 2.70644L9.58815 3.17401L9.76349 3.35222L10.2387 2.88466ZM10.0634 2.70644L10.5386 2.23888C10.4043 2.10237 10.2625 1.97352 10.1134 1.85235L9.69297 2.36973L9.27253 2.88711C9.3835 2.97728 9.48867 3.0729 9.58815 3.17401L10.0634 2.70644ZM9.69297 2.36973L10.1134 1.85235L9.91835 1.69385L9.49792 2.21123L9.07748 2.72861L9.27253 2.88711L9.69297 2.36973ZM9.49792 2.21123L9.91835 1.69385L9.7233 1.53535L9.30287 2.05273L8.88243 2.5701L9.07748 2.72861L9.49792 2.21123ZM9.30287 2.05273L9.7233 1.53535C9.56097 1.40343 9.38953 1.28931 9.20872 1.19537L8.90136 1.78696L8.59399 2.37854C8.68847 2.42762 8.7847 2.49068 8.88243 2.5701L9.30287 2.05273ZM8.90136 1.78696L9.20872 1.19537L9.00227 1.0881L8.6949 1.67969L8.38754 2.27127L8.59399 2.37854L8.90136 1.78696ZM8.6949 1.67969L9.00227 1.0881L8.79581 0.980837L8.48845 1.57242L8.18108 2.164L8.38754 2.27127L8.6949 1.67969ZM8.48845 1.57242L8.79581 0.980837C8.55363 0.855007 8.29101 0.797698 8.02004 0.807705L8.04465 1.47392L8.06925 2.14013C8.11474 2.13845 8.14799 2.14681 8.18108 2.164L8.48845 1.57242ZM8.04465 1.47392L8.02004 0.807705L7.7827 0.816469L7.8073 1.48268L7.83191 2.14889L8.06925 2.14013L8.04465 1.47392ZM7.8073 1.48268L7.7827 0.816469L7.54536 0.825234L7.56996 1.49145L7.59456 2.15766L7.83191 2.14889L7.8073 1.48268ZM7.56996 1.49145L7.54536 0.825234C7.24437 0.836349 6.96873 0.939565 6.73292 1.11787L7.135 1.64963L7.53709 2.1814C7.56476 2.16047 7.5791 2.15823 7.59456 2.15766L7.56996 1.49145ZM7.135 1.64963L6.73292 1.11787L6.53531 1.26729L6.93739 1.79905L7.33947 2.33082L7.53709 2.1814L7.135 1.64963ZM6.93739 1.79905L6.53531 1.26729L6.33769 1.41671L6.73977 1.94848L7.14186 2.48024L7.33947 2.33082L6.93739 1.79905ZM6.73977 1.94848L6.33769 1.41671C6.18623 1.53124 6.0411 1.65418 5.90235 1.78542L6.36046 2.26976L6.81857 2.75409C6.92208 2.65619 7.02983 2.56495 7.14186 2.48024L6.73977 1.94848ZM6.36046 2.26976L5.90235 1.78542L5.72066 1.95728L6.17877 2.44161L6.63688 2.92595L6.81857 2.75409L6.36046 2.26976ZM6.17877 2.44161L5.72066 1.95728L5.53896 2.12914L5.99707 2.61347L6.45518 3.09781L6.63688 2.92595L6.17877 2.44161ZM5.99707 2.61347L5.53896 2.12914C5.41104 2.25014 5.28573 2.37376 5.16304 2.50001L5.64112 2.96463L6.11921 3.42926C6.22886 3.31643 6.34085 3.20595 6.45518 3.09781L5.99707 2.61347ZM5.64112 2.96463L5.16304 2.50001L4.98878 2.67931L5.46687 3.14393L5.94496 3.60856L6.11921 3.42926L5.64112 2.96463ZM5.46687 3.14393L4.98878 2.67931L4.81453 2.85861L5.29262 3.32323L5.77071 3.78786L5.94496 3.60856L5.46687 3.14393ZM5.29262 3.32323L4.81453 2.85861C4.69871 2.97779 4.58275 3.09684 4.46666 3.21576L4.94372 3.68145L5.42078 4.14713C5.53756 4.0275 5.6542 3.90775 5.77071 3.78786L5.29262 3.32323ZM4.94372 3.68145L4.46666 3.21576L4.29202 3.39468L4.76908 3.86036L5.24614 4.32604L5.42078 4.14713L4.94372 3.68145ZM4.76908 3.86036L4.29202 3.39468L4.11738 3.57359L4.59444 4.03927L5.0715 4.50495L5.24614 4.32604L4.76908 3.86036ZM4.59444 4.03927L4.11738 3.57359C3.99041 3.70366 3.86784 3.83805 3.74968 3.97674L4.25715 4.40908L4.76462 4.84143C4.86332 4.72557 4.96561 4.61342 5.0715 4.50495L4.59444 4.03927ZM4.25715 4.40908L3.74968 3.97674L3.58704 4.16765L4.0945 4.59999L4.60197 5.03234L4.76462 4.84143L4.25715 4.40908ZM4.0945 4.59999L3.58704 4.16765L3.42439 4.35855L3.93186 4.7909L4.43932 5.22324L4.60197 5.03234L4.0945 4.59999ZM3.93186 4.7909L3.42439 4.35855C3.3424 4.45479 3.25233 4.54277 3.15379 4.62282L3.57413 5.14027L3.99446 5.65773C4.15603 5.52649 4.30445 5.38155 4.43932 5.22324L3.93186 4.7909ZM3.57413 5.14027L3.15379 4.62282L2.95871 4.78128L3.37904 5.29874L3.79938 5.8162L3.99446 5.65773L3.57413 5.14027ZM3.37904 5.29874L2.95871 4.78128L2.76362 4.93975L3.18396 5.45721L3.60429 5.97467L3.79938 5.8162L3.37904 5.29874ZM3.18396 5.45721L2.76362 4.93975C2.6257 5.05179 2.49061 5.16674 2.35836 5.28461L2.80193 5.7823L3.24551 6.27998C3.36251 6.17569 3.4821 6.07392 3.60429 5.97467L3.18396 5.45721ZM2.80193 5.7823L2.35836 5.28461L2.17142 5.45123L2.615 5.94891L3.05857 6.44659L3.24551 6.27998L2.80193 5.7823ZM2.615 5.94891L2.17142 5.45123L1.98448 5.61784L2.42806 6.11553L2.87163 6.61321L3.05857 6.44659L2.615 5.94891ZM2.42806 6.11553L1.98448 5.61784C1.83826 5.74817 1.70612 5.88434 1.59871 6.02666L2.13084 6.42826L2.66298 6.82985C2.7026 6.77735 2.76861 6.70503 2.87163 6.61321L2.42806 6.11553ZM2.13084 6.42826L1.59871 6.02666L1.48844 6.17278L2.02057 6.57438L2.5527 6.97597L2.66298 6.82985L2.13084 6.42826ZM2.02057 6.57438L1.48844 6.17278L1.37816 6.3189L1.9103 6.72049L2.44243 7.12209L2.5527 6.97597L2.02057 6.57438ZM1.9103 6.72049L1.37816 6.3189C1.28739 6.43918 1.19436 6.57943 1.09928 6.7356L1.66871 7.08229L2.23814 7.42897C2.31814 7.29758 2.38617 7.19664 2.44243 7.12209L1.9103 6.72049ZM1.66871 7.08229L1.09928 6.7356L0.967973 6.95127L1.5374 7.29796L2.10684 7.64465L2.23814 7.42897L1.66871 7.08229Z" fill="#FF500D"/>
</g>
<defs>
<clipPath id="clip0_55_37">
<rect width="16" height="16" fill="white"/>
</clipPath>
</defs>
</svg>
