<svg width="16" height="16" viewBox="0 0 16 16" fill="none" xmlns="http://www.w3.org/2000/svg">
<path d="M12.6666 9.33333C13.6599 8.36 14.6666 7.19333 14.6666 5.66667C14.6666 4.69421 14.2803 3.76158 13.5926 3.07394C12.905 2.38631 11.9724 2 10.9999 2C9.82658 2 8.99992 2.33333 7.99992 3.33333C6.99992 2.33333 6.17325 2 4.99992 2C4.02746 2 3.09483 2.38631 2.40719 3.07394C1.71956 3.76158 1.33325 4.69421 1.33325 5.66667C1.33325 7.2 2.33325 8.36667 3.33325 9.33333L7.99992 14L12.6666 9.33333Z" fill="#FF500D"/>
<path d="M12.9743 9.01161L12.5451 8.60124L12.9743 9.01161ZM13.1281 8.85075L13.5572 9.26113L13.1281 8.85075ZM13.4269 8.52055L12.9759 8.13442L13.4269 8.52055ZM13.7168 8.18187L13.2658 7.79574L13.7168 8.18187ZM13.9685 7.81702L14.4897 8.10137L13.9685 7.81702ZM14.1818 7.42599L14.703 7.71035L14.1818 7.42599ZM14.3792 7.02509L13.8361 6.78514L14.3792 7.02509ZM14.5607 6.61432L15.1038 6.85428L14.5607 6.61432ZM14.6701 6.18358L14.0783 6.13467L14.6701 6.18358ZM14.7073 5.73286L14.1156 5.68395L14.7073 5.73286ZM14.6512 5.29571L14.0913 5.49316L14.6512 5.29571ZM14.5766 5.08393L15.1365 4.88647L14.5766 5.08393ZM14.5019 4.87214L13.9419 5.06959L14.5019 4.87214ZM14.3495 4.45699L13.7949 4.66882L14.3495 4.45699ZM14.1942 4.05026L14.7489 3.83842L14.1942 4.05026ZM13.9922 3.66511L13.5021 4.00033L13.9922 3.66511ZM13.8679 3.48333L13.3778 3.81855L13.8679 3.48333ZM13.7435 3.30156L14.2336 2.96634L13.7435 3.30156ZM13.4511 2.97406L13.0622 3.42268L13.4511 2.97406ZM13.1149 2.68262L13.5039 2.234L13.1149 2.68262ZM12.7417 2.45123L12.9704 1.90331L12.7417 2.45123ZM12.3312 2.27988L12.56 1.73196L12.3312 2.27988ZM11.908 2.16549L11.8305 2.75415L11.908 2.16549ZM11.69 2.13677L11.6124 2.72543L11.69 2.13677ZM11.472 2.10805L11.5495 1.51938L11.472 2.10805ZM11.0342 2.07832L11.0315 2.67207L11.0342 2.07832ZM9.93326 2.14483L9.84093 1.55831L9.93326 2.14483ZM8.57602 2.85066L8.17689 2.41107L8.57602 2.85066ZM8.24765 3.1488L8.64678 3.58839L8.24765 3.1488ZM7.91278 3.17176L7.55994 3.6493L7.91278 3.17176ZM7.74209 3.04564L7.38925 3.52319L7.74209 3.04564ZM7.5714 2.91953L7.92423 2.44199L7.5714 2.91953ZM7.21366 2.67221L7.53653 2.17392L7.21366 2.67221ZM6.83956 2.42981L6.51669 2.9281L6.83956 2.42981ZM6.43881 2.24501L6.60819 1.67593L6.43881 2.24501ZM6.22511 2.1814L6.05573 2.75048L6.22511 2.1814ZM5.35236 1.98901L5.26637 2.5765L5.35236 1.98901ZM2.86078 2.75698L2.57261 2.23785L2.86078 2.75698ZM2.66657 2.86479L2.3784 2.34566L2.66657 2.86479ZM2.19239 3.3206L1.72977 2.94841L2.19239 3.3206ZM1.6048 4.26433L1.07723 3.99191L1.6048 4.26433ZM1.48249 4.68444L0.891091 4.63164L1.48249 4.68444ZM1.34433 6.01737L0.754669 5.94783L1.34433 6.01737ZM1.40229 6.44805L0.851996 6.67101L1.40229 6.44805ZM1.75916 7.26694L1.23534 7.54649L1.75916 7.26694ZM2.21289 8.02311L2.6703 7.64454L2.21289 8.02311ZM2.49543 8.36448L2.03802 8.74306L2.49543 8.36448ZM2.79463 8.69051L2.37827 9.11381L2.79463 8.69051ZM3.41502 9.32501L2.96709 9.71476L3.41502 9.32501ZM3.56161 9.49349L3.11368 9.88324L3.56161 9.49349ZM3.7082 9.66197L4.15613 9.27222L3.7082 9.66197ZM4.0097 9.99043L4.43627 9.57742L4.0097 9.99043ZM4.62842 10.6312L5.05727 10.2206L4.62842 10.6312ZM4.93647 10.953L4.50762 11.3636L4.93647 10.953ZM5.25084 11.2684L5.66288 10.8408L5.25084 11.2684ZM5.57153 11.5774L5.15949 12.0049L5.57153 11.5774ZM5.90069 11.878L6.28919 11.429L5.90069 11.878ZM6.23832 12.1702L5.84982 12.6192L6.23832 12.1702ZM6.54986 12.4884L7.00697 12.1095L6.54986 12.4884ZM6.69258 12.6606L6.23548 13.0395L6.69258 12.6606ZM6.8353 12.8327L7.29241 12.4538L6.8353 12.8327ZM7.13005 13.1678L6.69601 13.5729L7.13005 13.1678ZM7.4341 13.4935L7.86813 13.0883L7.4341 13.4935ZM7.76438 13.6915L7.64932 14.274L7.76438 13.6915ZM8.1209 13.762L8.23596 13.1795L8.1209 13.762ZM8.45016 13.6333L8.0135 13.231L8.45016 13.6333ZM8.60116 13.4694L9.03782 13.8717L8.60116 13.4694ZM8.75216 13.3055L8.31549 12.9032L8.75216 13.3055ZM9.03964 12.9632L8.56806 12.6025L9.03964 12.9632ZM9.3126 12.6064L8.84103 12.2457L9.3126 12.6064ZM9.63212 12.2962L9.28506 11.8144L9.63212 12.2962ZM9.81514 12.1643L10.1622 12.6461L9.81514 12.1643ZM9.99817 12.0325L9.65112 11.5507L9.99817 12.0325ZM10.3172 11.7217L9.84445 11.3624L10.3172 11.7217ZM10.5891 11.3639L11.0618 11.7231L10.5891 11.3639ZM10.8994 11.0444L11.2721 11.5067L10.8994 11.0444ZM11.0738 10.9039L10.7011 10.4416L11.0738 10.9039ZM11.2481 10.7633L11.6208 11.2256L11.2481 10.7633ZM11.5826 10.468L11.1699 10.0411L11.5826 10.468ZM11.9028 10.1585L12.3155 10.5855L11.9028 10.1585ZM12.1977 9.82364L12.6731 10.1793L12.1977 9.82364ZM12.4672 9.4634L11.9918 9.1077L12.4672 9.4634ZM12.6181 9.29579L12.2544 9.7651L12.6181 9.29579ZM12.6343 9.30831L12.998 8.83901L12.6343 9.30831ZM12.6504 9.32082L13.0142 8.85152L12.6504 9.32082ZM12.8204 9.17247L12.3913 8.7621L12.8204 9.17247ZM12.9743 9.01161L13.4034 9.42199L13.5572 9.26113L13.1281 8.85075L12.699 8.44038L12.5451 8.60124L12.9743 9.01161ZM13.1281 8.85075L13.5572 9.26113C13.6673 9.146 13.7742 9.02785 13.8779 8.90669L13.4269 8.52055L12.9759 8.13442C12.8863 8.23905 12.794 8.34103 12.699 8.44038L13.1281 8.85075ZM13.4269 8.52055L13.8779 8.90669L14.0229 8.73735L13.5719 8.35121L13.1208 7.96508L12.9759 8.13442L13.4269 8.52055ZM13.5719 8.35121L14.0229 8.73735L14.1679 8.56801L13.7168 8.18187L13.2658 7.79574L13.1208 7.96508L13.5719 8.35121ZM13.7168 8.18187L14.1679 8.56801C14.2914 8.42375 14.3988 8.26803 14.4897 8.10137L13.9685 7.81702L13.4472 7.53267C13.3959 7.6267 13.3356 7.71421 13.2658 7.79574L13.7168 8.18187ZM13.9685 7.81702L14.4897 8.10137L14.5964 7.90586L14.0751 7.62151L13.5539 7.33716L13.4472 7.53267L13.9685 7.81702ZM14.0751 7.62151L14.5964 7.90586L14.703 7.71035L14.1818 7.42599L13.6606 7.14164L13.5539 7.33716L14.0751 7.62151ZM14.1818 7.42599L14.703 7.71035C14.7821 7.5654 14.8552 7.41695 14.9223 7.26505L14.3792 7.02509L13.8361 6.78514C13.7822 6.90709 13.7237 7.02591 13.6606 7.14164L14.1818 7.42599ZM14.3792 7.02509L14.9223 7.26505L15.013 7.05966L14.4699 6.81971L13.9268 6.57975L13.8361 6.78514L14.3792 7.02509ZM14.4699 6.81971L15.013 7.05966L15.1038 6.85428L14.5607 6.61432L14.0176 6.37437L13.9268 6.57975L14.4699 6.81971ZM14.5607 6.61432L15.1038 6.85428C15.1912 6.65639 15.244 6.44819 15.2618 6.23248L14.6701 6.18358L14.0783 6.13467C14.0713 6.21944 14.0511 6.29841 14.0176 6.37437L14.5607 6.61432ZM14.6701 6.18358L15.2618 6.23248L15.2804 6.00712L14.6887 5.95822L14.0969 5.90931L14.0783 6.13467L14.6701 6.18358ZM14.6887 5.95822L15.2804 6.00712L15.299 5.78176L14.7073 5.73286L14.1156 5.68395L14.0969 5.90931L14.6887 5.95822ZM14.7073 5.73286L15.299 5.78176C15.3183 5.54868 15.289 5.31898 15.2112 5.09826L14.6512 5.29571L14.0913 5.49316C14.113 5.55483 14.1211 5.61656 14.1156 5.68395L14.7073 5.73286ZM14.6512 5.29571L15.2112 5.09826L15.1365 4.88647L14.5766 5.08393L14.0166 5.28138L14.0913 5.49316L14.6512 5.29571ZM14.5766 5.08393L15.1365 4.88647L15.0618 4.67469L14.5019 4.87214L13.9419 5.06959L14.0166 5.28138L14.5766 5.08393ZM14.5019 4.87214L15.0618 4.67469C15.0104 4.52883 14.9579 4.38565 14.9042 4.24515L14.3495 4.45699L13.7949 4.66882C13.8448 4.79948 13.8938 4.93307 13.9419 5.06959L14.5019 4.87214ZM14.3495 4.45699L14.9042 4.24515L14.8266 4.04179L14.2719 4.25362L13.7172 4.46546L13.7949 4.66882L14.3495 4.45699ZM14.2719 4.25362L14.8266 4.04179L14.7489 3.83842L14.1942 4.05026L13.6395 4.26209L13.7172 4.46546L14.2719 4.25362ZM14.1942 4.05026L14.7489 3.83842C14.6803 3.65882 14.5912 3.48908 14.4823 3.32989L13.9922 3.66511L13.5021 4.00033C13.559 4.08352 13.6046 4.17054 13.6395 4.26209L14.1942 4.05026ZM13.9922 3.66511L14.4823 3.32989L14.3579 3.14812L13.8679 3.48333L13.3778 3.81855L13.5021 4.00033L13.9922 3.66511ZM13.8679 3.48333L14.3579 3.14812L14.2336 2.96634L13.7435 3.30156L13.2535 3.63677L13.3778 3.81855L13.8679 3.48333ZM13.7435 3.30156L14.2336 2.96634C14.1217 2.80275 13.9901 2.65556 13.84 2.52544L13.4511 2.97406L13.0622 3.42268C13.1362 3.48685 13.1996 3.55799 13.2535 3.63677L13.7435 3.30156ZM13.4511 2.97406L13.84 2.52544L13.672 2.37972L13.283 2.82834L12.8941 3.27696L13.0622 3.42268L13.4511 2.97406ZM13.283 2.82834L13.672 2.37972L13.5039 2.234L13.1149 2.68262L12.726 3.13125L12.8941 3.27696L13.283 2.82834ZM13.1149 2.68262L13.5039 2.234C13.3441 2.09545 13.1656 1.98479 12.9704 1.90331L12.7417 2.45123L12.5129 2.99915C12.5914 3.0319 12.6617 3.0755 12.726 3.13125L13.1149 2.68262ZM12.7417 2.45123L12.9704 1.90331L12.7652 1.81764L12.5364 2.36556L12.3077 2.91347L12.5129 2.99915L12.7417 2.45123ZM12.5364 2.36556L12.7652 1.81764L12.56 1.73196L12.3312 2.27988L12.1025 2.8278L12.3077 2.91347L12.5364 2.36556ZM12.3312 2.27988L12.56 1.73196C12.3753 1.65488 12.1835 1.60289 11.9855 1.57682L11.908 2.16549L11.8305 2.75415C11.9232 2.76637 12.0135 2.79065 12.1025 2.8278L12.3312 2.27988ZM11.908 2.16549L11.9855 1.57682L11.7675 1.5481L11.69 2.13677L11.6124 2.72543L11.8305 2.75415L11.908 2.16549ZM11.69 2.13677L11.7675 1.5481L11.5495 1.51938L11.472 2.10805L11.3944 2.69671L11.6124 2.72543L11.69 2.13677ZM11.472 2.10805L11.5495 1.51938C11.3794 1.49697 11.2084 1.48536 11.0369 1.48458L11.0342 2.07832L11.0315 2.67207C11.1529 2.67262 11.2739 2.68083 11.3944 2.69671L11.472 2.10805ZM11.0342 2.07832L11.0369 1.48458L10.8171 1.48357L10.8144 2.07732L10.8117 2.67106L11.0315 2.67207L11.0342 2.07832ZM10.8144 2.07732L10.8171 1.48357L10.5974 1.48257L10.5947 2.07631L10.5919 2.67006L10.8117 2.67106L10.8144 2.07732ZM10.5947 2.07631L10.5974 1.48257C10.4185 1.48175 10.2398 1.49551 10.0617 1.52354L10.1541 2.11007L10.2464 2.6966C10.3627 2.67829 10.4778 2.66954 10.5919 2.67006L10.5947 2.07631ZM10.1541 2.11007L10.0617 1.52354L9.84093 1.55831L9.93326 2.14483L10.0256 2.73136L10.2464 2.6966L10.1541 2.11007ZM9.93326 2.14483L9.84093 1.55831L9.62011 1.59307L9.71245 2.17959L9.80478 2.76612L10.0256 2.73136L9.93326 2.14483ZM9.71245 2.17959L9.62011 1.59307C9.39053 1.62921 9.17573 1.71155 8.98075 1.83797L9.30378 2.33616L9.6268 2.83435C9.6823 2.79837 9.73995 2.77633 9.80478 2.76612L9.71245 2.17959ZM9.30378 2.33616L8.98075 1.83797L8.79289 1.95978L9.11592 2.45797L9.43894 2.95616L9.6268 2.83435L9.30378 2.33616ZM9.11592 2.45797L8.79289 1.95978L8.60503 2.08159L8.92806 2.57978L9.25108 3.07797L9.43894 2.95616L9.11592 2.45797ZM8.92806 2.57978L8.60503 2.08159C8.45314 2.18007 8.31031 2.28993 8.17689 2.41107L8.57602 2.85066L8.97515 3.29024C9.06063 3.21262 9.15249 3.14189 9.25108 3.07797L8.92806 2.57978ZM8.57602 2.85066L8.17689 2.41107L8.0127 2.56015L8.41184 2.99973L8.81097 3.43931L8.97515 3.29024L8.57602 2.85066ZM8.41184 2.99973L8.0127 2.56015L7.84852 2.70922L8.24765 3.1488L8.64678 3.58839L8.81097 3.43931L8.41184 2.99973ZM8.24765 3.1488L7.84852 2.70922C7.86084 2.69804 7.92637 2.64459 8.04124 2.63672C8.16005 2.62857 8.23997 2.67527 8.26562 2.69422L7.91278 3.17176L7.55994 3.6493C7.69939 3.75233 7.89201 3.83724 8.12245 3.82144C8.34895 3.80591 8.52501 3.69895 8.64678 3.58839L8.24765 3.1488ZM7.91278 3.17176L8.26562 2.69422L8.09492 2.5681L7.74209 3.04564L7.38925 3.52319L7.55994 3.6493L7.91278 3.17176ZM7.74209 3.04564L8.09492 2.5681L7.92423 2.44199L7.5714 2.91953L7.21856 3.39707L7.38925 3.52319L7.74209 3.04564ZM7.5714 2.91953L7.92423 2.44199C7.80019 2.35034 7.67092 2.261 7.53653 2.17392L7.21366 2.67221L6.89079 3.1705C7.00579 3.24502 7.11502 3.32056 7.21856 3.39707L7.5714 2.91953ZM7.21366 2.67221L7.53653 2.17392L7.34948 2.05272L7.02661 2.55101L6.70374 3.0493L6.89079 3.1705L7.21366 2.67221ZM7.02661 2.55101L7.34948 2.05272L7.16243 1.93152L6.83956 2.42981L6.51669 2.9281L6.70374 3.0493L7.02661 2.55101ZM6.83956 2.42981L7.16243 1.93152C6.99019 1.81992 6.80491 1.73448 6.60819 1.67593L6.43881 2.24501L6.26943 2.81409C6.35764 2.84034 6.43954 2.87811 6.51669 2.9281L6.83956 2.42981ZM6.43881 2.24501L6.60819 1.67593L6.39449 1.61232L6.22511 2.1814L6.05573 2.75048L6.26943 2.81409L6.43881 2.24501ZM6.22511 2.1814L6.39449 1.61232L6.18079 1.54872L6.01141 2.1178L5.84203 2.68688L6.05573 2.75048L6.22511 2.1814ZM6.01141 2.1178L6.18079 1.54872C6.01075 1.49811 5.83741 1.45993 5.66103 1.43411L5.57504 2.0216L5.48905 2.60909C5.60955 2.62673 5.72714 2.65268 5.84203 2.68688L6.01141 2.1178ZM5.57504 2.0216L5.66103 1.43411L5.43835 1.40152L5.35236 1.98901L5.26637 2.5765L5.48905 2.60909L5.57504 2.0216ZM5.35236 1.98901L5.43835 1.40152L5.21568 1.36893L5.12969 1.95642L5.0437 2.54391L5.26637 2.5765L5.35236 1.98901ZM5.12969 1.95642L5.21568 1.36893C4.98038 1.33449 4.74582 1.35224 4.51838 1.42161L4.6916 1.98953L4.86483 2.55745C4.92461 2.53922 4.98212 2.53489 5.0437 2.54391L5.12969 1.95642ZM4.6916 1.98953L4.51838 1.42161L4.30296 1.48732L4.47618 2.05524L4.64941 2.62316L4.86483 2.55745L4.6916 1.98953ZM4.47618 2.05524L4.30296 1.48732L4.08753 1.55303L4.26076 2.12095L4.43398 2.68887L4.64941 2.62316L4.47618 2.05524ZM4.26076 2.12095L4.08753 1.55303C3.92139 1.6037 3.76034 1.66362 3.60466 1.73298L3.84631 2.27533L4.08795 2.81769C4.19765 2.76881 4.3129 2.7258 4.43398 2.68887L4.26076 2.12095ZM3.84631 2.27533L3.60466 1.73298L3.40563 1.82166L3.64727 2.36401L3.88892 2.90636L4.08795 2.81769L3.84631 2.27533ZM3.64727 2.36401L3.40563 1.82166L3.20659 1.91034L3.44824 2.45269L3.68988 2.99504L3.88892 2.90636L3.64727 2.36401ZM3.44824 2.45269L3.20659 1.91034C3.05776 1.97665 2.91117 2.04992 2.76683 2.13004L3.05499 2.64918L3.34316 3.16831C3.45777 3.10469 3.57334 3.04697 3.68988 2.99504L3.44824 2.45269ZM3.05499 2.64918L2.76683 2.13004L2.57261 2.23785L2.86078 2.75698L3.14895 3.27611L3.34316 3.16831L3.05499 2.64918ZM2.86078 2.75698L2.57261 2.23785L2.3784 2.34566L2.66657 2.86479L2.95474 3.38392L3.14895 3.27611L2.86078 2.75698ZM2.66657 2.86479L2.3784 2.34566C2.18146 2.45498 2.01092 2.59894 1.86975 2.77441L2.33237 3.1466L2.79499 3.51878C2.84048 3.46225 2.89274 3.41834 2.95474 3.38392L2.66657 2.86479ZM2.33237 3.1466L1.86975 2.77441L1.72977 2.94841L2.19239 3.3206L2.65501 3.69278L2.79499 3.51878L2.33237 3.1466ZM2.19239 3.3206L1.72977 2.94841L1.58978 3.12241L2.0524 3.4946L2.51502 3.86679L2.65501 3.69278L2.19239 3.3206ZM2.0524 3.4946L1.58978 3.12241C1.4715 3.26944 1.3689 3.42706 1.2823 3.59476L1.80987 3.86718L2.33744 4.13959C2.38756 4.04253 2.44665 3.95177 2.51502 3.86679L2.0524 3.4946ZM1.80987 3.86718L1.2823 3.59476L1.17977 3.79334L1.70734 4.06575L2.23491 4.33817L2.33744 4.13959L1.80987 3.86718ZM1.70734 4.06575L1.17977 3.79334L1.07723 3.99191L1.6048 4.26433L2.13237 4.53674L2.23491 4.33817L1.70734 4.06575ZM1.6048 4.26433L1.07723 3.99191C0.973743 4.19233 0.911153 4.40692 0.891091 4.63164L1.48249 4.68444L2.07389 4.73724C2.08019 4.66657 2.09915 4.60108 2.13237 4.53674L1.6048 4.26433ZM1.48249 4.68444L0.891091 4.63164L0.871312 4.85317L1.46271 4.90597L2.05411 4.95877L2.07389 4.73724L1.48249 4.68444ZM1.46271 4.90597L0.871312 4.85317L0.851533 5.07471L1.44293 5.12751L2.03433 5.18031L2.05411 4.95877L1.46271 4.90597ZM1.44293 5.12751L0.851533 5.07471C0.838851 5.21676 0.824079 5.35929 0.807215 5.50228L1.39688 5.57182L1.98654 5.64136C2.00471 5.48732 2.02064 5.33364 2.03433 5.18031L1.44293 5.12751ZM1.39688 5.57182L0.807215 5.50228L0.780942 5.72505L1.37061 5.7946L1.96027 5.86414L1.98654 5.64136L1.39688 5.57182ZM1.37061 5.7946L0.780942 5.72505L0.754669 5.94783L1.34433 6.01737L1.934 6.08691L1.96027 5.86414L1.37061 5.7946ZM1.34433 6.01737L0.754669 5.94783C0.725446 6.19561 0.758308 6.43978 0.851996 6.67101L1.40229 6.44805L1.95259 6.22509C1.93397 6.17912 1.92819 6.13617 1.934 6.08691L1.34433 6.01737ZM1.40229 6.44805L0.851996 6.67101L0.936232 6.87892L1.48653 6.65596L2.03683 6.433L1.95259 6.22509L1.40229 6.44805ZM1.48653 6.65596L0.936232 6.87892L1.02047 7.08683L1.57077 6.86387L2.12106 6.64091L2.03683 6.433L1.48653 6.65596ZM1.57077 6.86387L1.02047 7.08683C1.08434 7.24448 1.15595 7.39774 1.23534 7.54649L1.75916 7.26694L2.28298 6.98738C2.22349 6.87592 2.16951 6.76047 2.12106 6.64091L1.57077 6.86387ZM1.75916 7.26694L1.23534 7.54649L1.33949 7.74166L1.86331 7.4621L2.38713 7.18254L2.28298 6.98738L1.75916 7.26694ZM1.86331 7.4621L1.33949 7.74166L1.44365 7.93682L1.96747 7.65726L2.49129 7.37771L2.38713 7.18254L1.86331 7.4621ZM1.96747 7.65726L1.44365 7.93682C1.53188 8.10213 1.63594 8.25725 1.75549 8.40168L2.21289 8.02311L2.6703 7.64454C2.60149 7.56139 2.54194 7.47261 2.49129 7.37771L1.96747 7.65726ZM2.21289 8.02311L1.75549 8.40168L1.89675 8.57237L2.35416 8.1938L2.81157 7.81523L2.6703 7.64454L2.21289 8.02311ZM2.35416 8.1938L1.89675 8.57237L2.03802 8.74306L2.49543 8.36448L2.95284 7.98591L2.81157 7.81523L2.35416 8.1938ZM2.49543 8.36448L2.03802 8.74306C2.14511 8.87244 2.25854 8.99605 2.37827 9.11381L2.79463 8.69051L3.21099 8.26721C3.12014 8.17785 3.03411 8.08411 2.95284 7.98591L2.49543 8.36448ZM2.79463 8.69051L2.37827 9.11381L2.5362 9.26915L2.95256 8.84585L3.36892 8.42255L3.21099 8.26721L2.79463 8.69051ZM2.95256 8.84585L2.5362 9.26915L2.69413 9.42449L3.11049 9.00119L3.52685 8.57789L3.36892 8.42255L2.95256 8.84585ZM3.11049 9.00119L2.69413 9.42449C2.78838 9.51719 2.87936 9.61393 2.96709 9.71476L3.41502 9.32501L3.86294 8.93527C3.75521 8.81145 3.64318 8.69231 3.52685 8.57789L3.11049 9.00119ZM3.41502 9.32501L2.96709 9.71476L3.11368 9.88324L3.56161 9.49349L4.00954 9.10375L3.86294 8.93527L3.41502 9.32501ZM3.56161 9.49349L3.11368 9.88324L3.26028 10.0517L3.7082 9.66197L4.15613 9.27222L4.00954 9.10375L3.56161 9.49349ZM3.7082 9.66197L3.26028 10.0517C3.3649 10.172 3.47252 10.2892 3.58313 10.4034L4.0097 9.99043L4.43627 9.57742C4.34035 9.47835 4.24697 9.37662 4.15613 9.27222L3.7082 9.66197ZM4.0097 9.99043L3.58313 10.4034L3.73802 10.5634L4.1646 10.1504L4.59117 9.73741L4.43627 9.57742L4.0097 9.99043ZM4.1646 10.1504L3.73802 10.5634L3.89292 10.7234L4.31949 10.3104L4.74607 9.89739L4.59117 9.73741L4.1646 10.1504ZM4.31949 10.3104L3.89292 10.7234C3.99543 10.8293 4.09764 10.9354 4.19957 11.0419L4.62842 10.6312L5.05727 10.2206C4.95383 10.1126 4.85009 10.0048 4.74607 9.89739L4.31949 10.3104ZM4.62842 10.6312L4.19957 11.0419L4.35359 11.2027L4.78244 10.7921L5.2113 10.3815L5.05727 10.2206L4.62842 10.6312ZM4.78244 10.7921L4.35359 11.2027L4.50762 11.3636L4.93647 10.953L5.36532 10.5423L5.2113 10.3815L4.78244 10.7921ZM4.93647 10.953L4.50762 11.3636C4.61579 11.4766 4.72619 11.5873 4.83881 11.6959L5.25084 11.2684L5.66288 10.8408C5.5617 10.7433 5.46251 10.6438 5.36532 10.5423L4.93647 10.953ZM5.25084 11.2684L4.83881 11.6959L4.99915 11.8504L5.41118 11.4229L5.82322 10.9954L5.66288 10.8408L5.25084 11.2684ZM5.41118 11.4229L4.99915 11.8504L5.15949 12.0049L5.57153 11.5774L5.98356 11.1499L5.82322 10.9954L5.41118 11.4229ZM5.57153 11.5774L5.15949 12.0049C5.27406 12.1154 5.39163 12.2227 5.51219 12.3271L5.90069 11.878L6.28919 11.429C6.18466 11.3386 6.08279 11.2456 5.98356 11.1499L5.57153 11.5774ZM5.90069 11.878L5.51219 12.3271L5.68101 12.4731L6.06951 12.0241L6.45801 11.5751L6.28919 11.429L5.90069 11.878ZM6.06951 12.0241L5.68101 12.4731L5.84982 12.6192L6.23832 12.1702L6.62682 11.7212L6.45801 11.5751L6.06951 12.0241ZM6.23832 12.1702L5.84982 12.6192C5.93756 12.6951 6.01847 12.7777 6.09275 12.8673L6.54986 12.4884L7.00697 12.1095C6.89096 11.9695 6.76417 11.84 6.62682 11.7212L6.23832 12.1702ZM6.54986 12.4884L6.09275 12.8673L6.23548 13.0395L6.69258 12.6606L7.14969 12.2816L7.00697 12.1095L6.54986 12.4884ZM6.69258 12.6606L6.23548 13.0395L6.3782 13.2117L6.8353 12.8327L7.29241 12.4538L7.14969 12.2816L6.69258 12.6606ZM6.8353 12.8327L6.3782 13.2117C6.48075 13.3354 6.58669 13.4558 6.69601 13.5729L7.13005 13.1678L7.56408 12.7626C7.47071 12.6626 7.38015 12.5596 7.29241 12.4538L6.8353 12.8327ZM7.13005 13.1678L6.69601 13.5729L6.84804 13.7358L7.28207 13.3306L7.71611 12.9255L7.56408 12.7626L7.13005 13.1678ZM7.28207 13.3306L6.84804 13.7358L7.00006 13.8986L7.4341 13.4935L7.86813 13.0883L7.71611 12.9255L7.28207 13.3306ZM7.4341 13.4935L7.00006 13.8986C7.16693 14.0774 7.38278 14.2214 7.64932 14.274L7.76438 13.6915L7.87944 13.109C7.88475 13.1101 7.8894 13.1115 7.89308 13.113C7.8967 13.1144 7.89838 13.1154 7.89805 13.1152C7.8973 13.1148 7.88677 13.1083 7.86813 13.0883L7.4341 13.4935ZM7.76438 13.6915L7.64932 14.274L7.82758 14.3092L7.94264 13.7268L8.0577 13.1443L7.87944 13.109L7.76438 13.6915ZM7.94264 13.7268L7.82758 14.3092L8.00584 14.3445L8.1209 13.762L8.23596 13.1795L8.0577 13.1443L7.94264 13.7268ZM8.1209 13.762L8.00584 14.3445C8.37547 14.4175 8.68288 14.257 8.88682 14.0356L8.45016 13.6333L8.0135 13.231C8.00878 13.2361 8.02812 13.2132 8.07623 13.1944C8.12976 13.1735 8.18772 13.1699 8.23596 13.1795L8.1209 13.762ZM8.45016 13.6333L8.88682 14.0356L9.03782 13.8717L8.60116 13.4694L8.1645 13.0671L8.0135 13.231L8.45016 13.6333ZM8.60116 13.4694L9.03782 13.8717L9.18882 13.7078L8.75216 13.3055L8.31549 12.9032L8.1645 13.0671L8.60116 13.4694ZM8.75216 13.3055L9.18882 13.7078C9.30184 13.5852 9.40931 13.4572 9.51121 13.324L9.03964 12.9632L8.56806 12.6025C8.48798 12.7071 8.4038 12.8074 8.31549 12.9032L8.75216 13.3055ZM9.03964 12.9632L9.51121 13.324L9.64769 13.1456L9.17612 12.7848L8.70455 12.4241L8.56806 12.6025L9.03964 12.9632ZM9.17612 12.7848L9.64769 13.1456L9.78418 12.9672L9.3126 12.6064L8.84103 12.2457L8.70455 12.4241L9.17612 12.7848ZM9.3126 12.6064L9.78418 12.9672C9.83966 12.8947 9.90416 12.832 9.97917 12.7779L9.63212 12.2962L9.28506 11.8144C9.11603 11.9362 8.96752 12.0803 8.84103 12.2457L9.3126 12.6064ZM9.63212 12.2962L9.97917 12.7779L10.1622 12.6461L9.81514 12.1643L9.46809 11.6826L9.28506 11.8144L9.63212 12.2962ZM9.81514 12.1643L10.1622 12.6461L10.3452 12.5142L9.99817 12.0325L9.65112 11.5507L9.46809 11.6826L9.81514 12.1643ZM9.99817 12.0325L10.3452 12.5142C10.5148 12.3921 10.6635 12.2473 10.7899 12.081L10.3172 11.7217L9.84445 11.3624C9.78953 11.4347 9.7256 11.4971 9.65112 11.5507L9.99817 12.0325ZM10.3172 11.7217L10.7899 12.081L10.9259 11.9021L10.4531 11.5428L9.98042 11.1835L9.84445 11.3624L10.3172 11.7217ZM10.4531 11.5428L10.9259 11.9021L11.0618 11.7231L10.5891 11.3639L10.1164 11.0046L9.98042 11.1835L10.4531 11.5428ZM10.5891 11.3639L11.0618 11.7231C11.1235 11.642 11.1934 11.5701 11.2721 11.5067L10.8994 11.0444L10.5268 10.5822C10.373 10.7061 10.236 10.8472 10.1164 11.0046L10.5891 11.3639ZM10.8994 11.0444L11.2721 11.5067L11.4464 11.3661L11.0738 10.9039L10.7011 10.4416L10.5268 10.5822L10.8994 11.0444ZM11.0738 10.9039L11.4464 11.3661L11.6208 11.2256L11.2481 10.7633L10.8755 10.3011L10.7011 10.4416L11.0738 10.9039ZM11.2481 10.7633L11.6208 11.2256C11.7508 11.1208 11.8756 11.0106 11.9952 10.895L11.5826 10.468L11.1699 10.0411C11.0761 10.1318 10.9779 10.2185 10.8755 10.3011L11.2481 10.7633ZM11.5826 10.468L11.9952 10.895L12.1553 10.7402L11.7427 10.3133L11.3301 9.88634L11.1699 10.0411L11.5826 10.468ZM11.7427 10.3133L12.1553 10.7402L12.3155 10.5855L11.9028 10.1585L11.4902 9.73159L11.3301 9.88634L11.7427 10.3133ZM11.9028 10.1585L12.3155 10.5855C12.4452 10.46 12.5645 10.3245 12.6731 10.1793L12.1977 9.82364L11.7223 9.46795C11.6513 9.5629 11.5739 9.65067 11.4902 9.73159L11.9028 10.1585ZM12.1977 9.82364L12.6731 10.1793L12.8079 9.99922L12.3325 9.64352L11.8571 9.28782L11.7223 9.46795L12.1977 9.82364ZM12.3325 9.64352L12.8079 9.99922L12.9427 9.8191L12.4672 9.4634L11.9918 9.1077L11.8571 9.28782L12.3325 9.64352ZM12.4672 9.4634L12.9427 9.8191C12.9852 9.76228 13.0071 9.73592 13.0136 9.72873C13.0203 9.72131 13.0022 9.74301 12.9673 9.77014C12.9537 9.78073 12.901 9.82164 12.82 9.85191C12.7537 9.87666 12.4981 9.95398 12.2544 9.7651L12.6181 9.29579L12.9819 8.82649C12.7355 8.63552 12.476 8.71277 12.4045 8.73945C12.3183 8.77164 12.2592 8.81649 12.238 8.83302C12.1879 8.87203 12.1496 8.91363 12.1311 8.93415C12.0873 8.98283 12.0392 9.04444 11.9918 9.1077L12.4672 9.4634ZM12.6181 9.29579L12.2544 9.7651L12.2706 9.77761L12.6343 9.30831L12.998 8.83901L12.9819 8.82649L12.6181 9.29579ZM12.6343 9.30831L12.2706 9.77761L12.2867 9.79012L12.6504 9.32082L13.0142 8.85152L12.998 8.83901L12.6343 9.30831ZM12.6504 9.32082L12.2867 9.79012C12.5136 9.966 12.7538 9.91029 12.8138 9.8938C12.8948 9.87157 12.9532 9.83724 12.9762 9.8232C13.0286 9.79127 13.0702 9.75582 13.0914 9.73734C13.1406 9.69444 13.1953 9.63952 13.2495 9.58284L12.8204 9.17247L12.3913 8.7621C12.343 8.81266 12.3181 8.83609 12.3106 8.84264C12.3034 8.84889 12.3225 8.83094 12.358 8.80928C12.3726 8.80039 12.424 8.76938 12.4994 8.74868C12.5539 8.73372 12.7899 8.67772 13.0142 8.85152L12.6504 9.32082ZM12.8204 9.17247L13.2495 9.58284L13.4034 9.42199L12.9743 9.01161L12.5451 8.60124L12.3913 8.7621L12.8204 9.17247Z" fill="#FF500D"/>
</svg>
