<svg width="16" height="16" viewBox="0 0 16 16" fill="none" xmlns="http://www.w3.org/2000/svg">
<g clip-path="url(#clip0_87_333)">
<path d="M3.33325 5.99992C2.33325 6.99992 1.33325 8.13325 1.33325 9.66658C1.33325 10.1481 1.42809 10.6249 1.61236 11.0698C1.79663 11.5146 2.06671 11.9188 2.40719 12.2593C3.09483 12.9469 4.02746 13.3333 4.99992 13.3333C6.19992 13.3333 6.99992 12.9999 7.99992 11.9999C8.99992 12.9999 9.79992 13.3333 10.9999 13.3333C11.4814 13.3333 11.9582 13.2384 12.4031 13.0541C12.848 12.8699 13.2522 12.5998 13.5926 12.2593C13.9331 11.9188 14.2032 11.5146 14.3875 11.0698C14.5717 10.6249 14.6666 10.1481 14.6666 9.66658C14.6666 8.13325 13.6666 6.99992 12.6666 5.99992L7.99992 1.33325L3.33325 5.99992Z" fill="#67C3E7"/>
<path d="M7.99992 11.9999V14.6666V11.9999Z" fill="#67C3E7"/>
<path d="M2.95298 6.33082L3.3906 6.83374L2.95298 6.33082ZM2.76284 6.49626L2.32522 5.99334L2.76284 6.49626ZM2.43444 6.87289L1.87669 6.50771L2.43444 6.87289ZM2.29618 7.08406L2.85394 7.44924L2.29618 7.08406ZM2.15792 7.29524L1.60017 6.93006L2.15792 7.29524ZM1.88699 7.72195L1.31925 7.3725L1.88699 7.72195ZM1.62164 8.15304L2.18938 8.5025L1.62164 8.15304ZM1.47613 8.62115L0.810327 8.58731L1.47613 8.62115ZM1.4633 8.87371L0.79749 8.83987L1.4633 8.87371ZM1.39227 10.6252L2.02025 10.4014L1.39227 10.6252ZM1.56366 11.1061L0.935671 11.3299L1.56366 11.1061ZM2.00437 11.7061L2.47871 11.2376L2.00437 11.7061ZM2.18189 11.8858L1.70756 12.3543L2.18189 11.8858ZM2.52916 12.247L3.01597 11.7915L2.52916 12.247ZM2.86869 12.6098L2.38188 13.0653L2.86869 12.6098ZM3.26157 12.9128L3.58044 12.3273L3.26157 12.9128ZM3.48469 13.0343L3.16582 13.6198L3.48469 13.0343ZM3.70781 13.1558L3.38895 13.7413L3.70781 13.1558ZM4.18438 13.288L4.15638 13.9541L4.18438 13.288ZM4.69128 13.3093L4.71929 12.6432L4.69128 13.3093ZM5.19698 13.319L5.19969 13.9856L5.19698 13.319ZM5.70149 13.3169L5.69878 12.6502L5.70149 13.3169ZM6.1915 13.2256L5.95474 12.6023L6.1915 13.2256ZM6.66702 13.0449L6.90377 13.6681L6.66702 13.0449ZM7.08224 12.7749L7.55654 13.2434L7.08224 12.7749ZM7.43718 12.4156L6.96288 11.9471L7.43718 12.4156ZM7.80579 12.2795L7.95412 11.6296L7.80579 12.2795ZM7.99694 12.3232L7.84862 12.9731L7.99694 12.3232ZM8.18809 12.3668L8.03976 13.0167L8.18809 12.3668ZM8.8196 12.6464L9.13451 12.0588L8.8196 12.6464ZM9.03979 12.7644L8.72487 13.352L9.03979 12.7644ZM9.49143 12.9562L9.28894 13.5914L9.49143 12.9562ZM9.95436 13.1038L9.75187 13.7389L9.95436 13.1038ZM10.4298 13.1918L10.3909 13.8574L10.4298 13.1918ZM10.6738 13.2061L10.7127 12.5406L10.6738 13.2061ZM11.4044 13.2026L11.317 12.5417L11.4044 13.2026ZM11.8898 13.1384L11.9771 13.7993L11.8898 13.1384ZM12.5895 12.9122L12.3288 12.2986L12.5895 12.9122ZM12.818 12.8151L12.5573 12.2015L12.818 12.8151ZM13.2419 12.5595L13.6619 13.0772L13.2419 12.5595ZM13.4372 12.401L13.8573 12.9187L13.4372 12.401ZM13.6326 12.2425L13.2126 11.7248L13.6326 12.2425ZM13.9716 11.8745L13.4217 11.4976L13.9716 11.8745ZM14.1153 11.665L14.6651 12.0419L14.1153 11.665ZM14.2589 11.4554L13.709 11.0785L14.2589 11.4554ZM14.439 10.9959L13.7793 10.8997L14.439 10.9959ZM14.5119 10.4959L15.1716 10.592L14.5119 10.4959ZM14.5764 9.99905L13.914 9.92368L14.5764 9.99905ZM14.6326 9.50545L15.295 9.58081L14.6326 9.50545ZM14.578 9.02427L13.9493 9.24607L14.578 9.02427ZM14.2072 8.10806L14.7848 7.7753L14.2072 8.10806ZM13.9617 7.68187L13.384 8.01463L13.9617 7.68187ZM13.7063 7.25605L14.272 6.90338L13.7063 7.25605ZM13.5737 7.04333L14.1394 6.69066L13.5737 7.04333ZM13.4411 6.83061L12.8753 7.18329L13.4411 6.83061ZM13.1161 6.45613L12.6871 6.96639L13.1161 6.45613ZM12.7313 6.1326L12.3023 6.64286L12.7313 6.1326ZM12.3864 5.76981L12.9175 5.36685L12.3864 5.76981ZM12.0814 5.36775L11.5503 5.77071L12.0814 5.36775ZM11.7453 4.99673L11.2923 5.48587L11.7453 4.99673ZM11.004 4.32379L11.4373 3.81711L11.004 4.32379ZM10.8134 4.16082L10.3802 4.66749L10.8134 4.16082ZM10.6229 3.99785L11.0561 3.49117L10.6229 3.99785ZM10.2563 3.65732L9.7828 4.12663L10.2563 3.65732ZM9.90429 3.3022L9.43081 3.77152L9.90429 3.3022ZM9.55063 2.94875L9.0816 3.42251L9.55063 2.94875ZM9.37297 2.77286L9.84201 2.2991L9.37297 2.77286ZM9.19531 2.59697L9.66434 2.12321L9.19531 2.59697ZM8.86452 2.22065L9.39428 1.81593L8.86452 2.22065ZM8.55827 1.81979L8.02851 2.22452L8.55827 1.81979ZM8.22041 1.64512L8.12835 0.984837L8.22041 1.64512ZM7.47962 1.88938L7.92427 2.3861L7.47962 1.88938ZM7.10651 2.22338L6.66187 1.72666L7.10651 2.22338ZM6.74691 2.57088L6.26567 2.10951L6.74691 2.57088ZM6.57385 2.75138L7.05509 3.21275L6.57385 2.75138ZM6.4008 2.93188L5.91957 2.47051L6.4008 2.93188ZM6.03729 3.27548L6.47092 3.78185L6.03729 3.27548ZM5.84684 3.43857L5.41321 2.9322L5.84684 3.43857ZM5.65638 3.60167L5.22275 3.09529L5.65638 3.60167ZM5.15816 4.16411L4.63011 3.75716L5.15816 4.16411ZM5.00428 4.36378L5.53233 4.77073L5.00428 4.36378ZM4.66631 4.73292L4.21479 4.24242L4.66631 4.73292ZM4.29812 5.07184L4.74963 5.56233L4.29812 5.07184ZM3.94996 5.43078L4.45394 5.86718L3.94996 5.43078ZM3.78589 5.62027L3.2819 5.18387L3.78589 5.62027ZM3.62182 5.80975L4.1258 6.24615L3.62182 5.80975ZM3.42662 5.9994L3.43031 6.66606L3.42662 5.9994ZM3.3955 5.99957L3.39181 5.33292L3.3955 5.99957ZM3.36438 5.99975L3.36069 5.33309L3.36438 5.99975ZM3.14312 6.16537L3.58074 6.66829L3.14312 6.16537ZM8.66658 11.9999C8.66658 11.6317 8.36811 11.3333 7.99992 11.3333C7.63173 11.3333 7.33325 11.6317 7.33325 11.9999H8.66658ZM7.99992 12.0999H7.33325V12.1388L7.33778 12.1775L7.99992 12.0999ZM8.05261 12.5499L7.39047 12.6275L8.05261 12.5499ZM8.09393 13.2499L7.42795 13.2196L8.09393 13.2499ZM8.07117 13.7499L8.73715 13.7802L8.07117 13.7499ZM8.04483 14.1666L7.38083 14.1069L8.04483 14.1666ZM8.02986 14.3333L8.6911 14.4181L8.69272 14.4055L8.69385 14.3929L8.02986 14.3333ZM7.99992 14.5666L7.33867 14.4817L7.33325 14.524V14.5666H7.99992ZM7.33325 14.6666C7.33325 15.0348 7.63173 15.3333 7.99992 15.3333C8.36811 15.3333 8.66658 15.0348 8.66658 14.6666H7.33325ZM2.95298 6.33082L2.51536 5.82789L2.32522 5.99334L2.76284 6.49626L3.20046 6.99919L3.3906 6.83374L2.95298 6.33082ZM2.76284 6.49626L2.32522 5.99334C2.15221 6.14388 2.00234 6.31579 1.87669 6.50771L2.43444 6.87289L2.9922 7.23806C3.05089 7.14842 3.11995 7.06924 3.20046 6.99919L2.76284 6.49626ZM2.43444 6.87289L1.87669 6.50771L1.73843 6.71889L2.29618 7.08406L2.85394 7.44924L2.9922 7.23806L2.43444 6.87289ZM2.29618 7.08406L1.73843 6.71889L1.60017 6.93006L2.15792 7.29524L2.71568 7.66041L2.85394 7.44924L2.29618 7.08406ZM2.15792 7.29524L1.60017 6.93006C1.50458 7.07605 1.41095 7.22353 1.31925 7.3725L1.88699 7.72195L2.45473 8.07141C2.53993 7.93298 2.62691 7.79599 2.71568 7.66041L2.15792 7.29524ZM1.88699 7.72195L1.31925 7.3725L1.18658 7.58804L1.75432 7.9375L2.32205 8.28695L2.45473 8.07141L1.88699 7.72195ZM1.75432 7.9375L1.18658 7.58804L1.05391 7.80359L1.62164 8.15304L2.18938 8.5025L2.32205 8.28695L1.75432 7.9375ZM1.62164 8.15304L1.05391 7.80359C0.906849 8.0425 0.824571 8.30706 0.810327 8.58731L1.47613 8.62115L2.14194 8.65499C2.14481 8.59848 2.15954 8.55097 2.18938 8.5025L1.62164 8.15304ZM1.47613 8.62115L0.810327 8.58731L0.79749 8.83987L1.4633 8.87371L2.1291 8.90755L2.14194 8.65499L1.47613 8.62115ZM1.4633 8.87371L0.79749 8.83987L0.784653 9.09243L1.45046 9.12627L2.11627 9.16011L2.1291 8.90755L1.4633 8.87371ZM1.45046 9.12627L0.784653 9.09243C0.776986 9.24327 0.763367 9.39384 0.743781 9.54418L1.40486 9.6303L2.06594 9.71642C2.09004 9.53147 2.10682 9.34602 2.11627 9.16011L1.45046 9.12627ZM1.40486 9.6303L0.743781 9.54418L0.71102 9.79564L1.3721 9.88177L2.03318 9.96789L2.06594 9.71642L1.40486 9.6303ZM1.3721 9.88177L0.71102 9.79564L0.678259 10.0471L1.33934 10.1332L2.00042 10.2194L2.03318 9.96789L1.3721 9.88177ZM1.33934 10.1332L0.678259 10.0471C0.642714 10.3199 0.672038 10.5901 0.764286 10.849L1.39227 10.6252L2.02025 10.4014C1.99825 10.3396 1.99228 10.2818 2.00042 10.2194L1.33934 10.1332ZM1.39227 10.6252L0.764286 10.849L0.849979 11.0894L1.47796 10.8656L2.10595 10.6419L2.02025 10.4014L1.39227 10.6252ZM1.47796 10.8656L0.849979 11.0894L0.935671 11.3299L1.56366 11.1061L2.19164 10.8823L2.10595 10.6419L1.47796 10.8656ZM1.56366 11.1061L0.935671 11.3299C1.02516 11.581 1.16496 11.8049 1.35253 11.9948L1.82686 11.5263L2.30119 11.0579C2.25208 11.0081 2.21641 10.9518 2.19164 10.8823L1.56366 11.1061ZM1.82686 11.5263L1.35253 11.9948L1.53004 12.1745L2.00437 11.7061L2.47871 11.2376L2.30119 11.0579L1.82686 11.5263ZM2.00437 11.7061L1.53004 12.1745L1.70756 12.3543L2.18189 11.8858L2.65622 11.4173L2.47871 11.2376L2.00437 11.7061ZM2.18189 11.8858L1.70756 12.3543C1.82175 12.4699 1.93335 12.5859 2.04236 12.7024L2.52916 12.247L3.01597 11.7915C2.89863 11.6661 2.77871 11.5414 2.65622 11.4173L2.18189 11.8858ZM2.52916 12.247L2.04236 12.7024L2.21212 12.8839L2.69892 12.4284L3.18573 11.9729L3.01597 11.7915L2.52916 12.247ZM2.69892 12.4284L2.21212 12.8839L2.38188 13.0653L2.86869 12.6098L3.35549 12.1544L3.18573 11.9729L2.69892 12.4284ZM2.86869 12.6098L2.38188 13.0653C2.54483 13.2395 2.73282 13.3839 2.9427 13.4983L3.26157 12.9128L3.58044 12.3273C3.49282 12.2796 3.41889 12.2221 3.35549 12.1544L2.86869 12.6098ZM3.26157 12.9128L2.9427 13.4983L3.16582 13.6198L3.48469 13.0343L3.80356 12.4488L3.58044 12.3273L3.26157 12.9128ZM3.48469 13.0343L3.16582 13.6198L3.38895 13.7413L3.70781 13.1558L4.02668 12.5704L3.80356 12.4488L3.48469 13.0343ZM3.70781 13.1558L3.38895 13.7413C3.62706 13.871 3.88541 13.9427 4.15638 13.9541L4.18438 13.288L4.21239 12.6219C4.14543 12.6191 4.08606 12.6027 4.02668 12.5704L3.70781 13.1558ZM4.18438 13.288L4.15638 13.9541L4.40983 13.9647L4.43783 13.2987L4.46584 12.6326L4.21239 12.6219L4.18438 13.288ZM4.43783 13.2987L4.40983 13.9647L4.66328 13.9754L4.69128 13.3093L4.71929 12.6432L4.46584 12.6326L4.43783 13.2987ZM4.69128 13.3093L4.66328 13.9754C4.84242 13.9829 5.02123 13.9863 5.19969 13.9856L5.19698 13.319L5.19427 12.6523C5.0364 12.6529 4.87808 12.6499 4.71929 12.6432L4.69128 13.3093ZM5.19698 13.319L5.19969 13.9856L5.45194 13.9846L5.44923 13.3179L5.44653 12.6513L5.19427 12.6523L5.19698 13.319ZM5.44923 13.3179L5.45194 13.9846L5.7042 13.9836L5.70149 13.3169L5.69878 12.6502L5.44653 12.6513L5.44923 13.3179ZM5.70149 13.3169L5.7042 13.9836C5.95303 13.9826 6.1956 13.9371 6.42825 13.8488L6.1915 13.2256L5.95474 12.6023C5.87038 12.6344 5.78628 12.6499 5.69878 12.6502L5.70149 13.3169ZM6.1915 13.2256L6.42825 13.8488L6.66601 13.7584L6.42926 13.1352L6.1925 12.512L5.95474 12.6023L6.1915 13.2256ZM6.42926 13.1352L6.66601 13.7584L6.90377 13.6681L6.66702 13.0449L6.43026 12.4217L6.1925 12.512L6.42926 13.1352ZM6.66702 13.0449L6.90377 13.6681C7.15098 13.5742 7.37056 13.4317 7.55654 13.2434L7.08224 12.7749L6.60795 12.3064C6.5573 12.3577 6.50007 12.3952 6.43026 12.4217L6.66702 13.0449ZM7.08224 12.7749L7.55654 13.2434L7.73401 13.0637L7.25971 12.5953L6.78541 12.1268L6.60795 12.3064L7.08224 12.7749ZM7.25971 12.5953L7.73401 13.0637L7.91148 12.8841L7.43718 12.4156L6.96288 11.9471L6.78541 12.1268L7.25971 12.5953ZM7.43718 12.4156L7.91148 12.8841C7.92085 12.8746 7.90139 12.8978 7.8489 12.9172C7.78927 12.9392 7.72012 12.9438 7.65747 12.9295L7.80579 12.2795L7.95412 11.6296C7.53674 11.5343 7.19022 11.7169 6.96288 11.9471L7.43718 12.4156ZM7.80579 12.2795L7.65747 12.9295L7.84862 12.9731L7.99694 12.3232L8.14526 11.6732L7.95412 11.6296L7.80579 12.2795ZM7.99694 12.3232L7.84862 12.9731L8.03976 13.0167L8.18809 12.3668L8.33641 11.7168L8.14526 11.6732L7.99694 12.3232ZM8.18809 12.3668L8.03976 13.0167C8.0958 13.0295 8.17661 13.0582 8.2845 13.116L8.59942 12.5284L8.91433 11.9408C8.72864 11.8413 8.53524 11.7622 8.33641 11.7168L8.18809 12.3668ZM8.59942 12.5284L8.2845 13.116L8.50469 13.234L8.8196 12.6464L9.13451 12.0588L8.91433 11.9408L8.59942 12.5284ZM8.8196 12.6464L8.50469 13.234L8.72487 13.352L9.03979 12.7644L9.3547 12.1768L9.13451 12.0588L8.8196 12.6464ZM9.03979 12.7644L8.72487 13.352C8.90659 13.4494 9.0947 13.5294 9.28894 13.5914L9.49143 12.9562L9.69392 12.321C9.57955 12.2846 9.46656 12.2368 9.3547 12.1768L9.03979 12.7644ZM9.49143 12.9562L9.28894 13.5914L9.52041 13.6652L9.72289 13.03L9.92538 12.3948L9.69392 12.321L9.49143 12.9562ZM9.72289 13.03L9.52041 13.6652L9.75187 13.7389L9.95436 13.1038L10.1568 12.4686L9.92538 12.3948L9.72289 13.03ZM9.95436 13.1038L9.75187 13.7389C9.95953 13.8051 10.173 13.8446 10.3909 13.8574L10.4298 13.1918L10.4687 12.5263C10.3613 12.52 10.2578 12.5008 10.1568 12.4686L9.95436 13.1038ZM10.4298 13.1918L10.3909 13.8574L10.6349 13.8716L10.6738 13.2061L10.7127 12.5406L10.4687 12.5263L10.4298 13.1918ZM10.6738 13.2061L10.6349 13.8716L10.8788 13.8859L10.9178 13.2204L10.9567 12.5549L10.7127 12.5406L10.6738 13.2061ZM10.9178 13.2204L10.8788 13.8859C11.0837 13.8979 11.2882 13.8904 11.4918 13.8635L11.4044 13.2026L11.317 12.5417C11.1971 12.5575 11.0772 12.5619 10.9567 12.5549L10.9178 13.2204ZM11.4044 13.2026L11.4918 13.8635L11.7345 13.8314L11.6471 13.1705L11.5597 12.5096L11.317 12.5417L11.4044 13.2026ZM11.6471 13.1705L11.7345 13.8314L11.9771 13.7993L11.8898 13.1384L11.8024 12.4775L11.5597 12.5096L11.6471 13.1705ZM11.8898 13.1384L11.9771 13.7993C12.1994 13.7699 12.4147 13.7107 12.6216 13.6228L12.3609 13.0092L12.1003 12.3956C12.0025 12.4372 11.9037 12.4641 11.8024 12.4775L11.8898 13.1384ZM12.3609 13.0092L12.6216 13.6228L12.8501 13.5258L12.5895 12.9122L12.3288 12.2986L12.1003 12.3956L12.3609 13.0092ZM12.5895 12.9122L12.8501 13.5258L13.0786 13.4287L12.818 12.8151L12.5573 12.2015L12.3288 12.2986L12.5895 12.9122ZM12.818 12.8151L13.0786 13.4287C13.2891 13.3393 13.4839 13.2216 13.6619 13.0772L13.2419 12.5595L12.8219 12.0418C12.7394 12.1087 12.6516 12.1615 12.5573 12.2015L12.818 12.8151ZM13.2419 12.5595L13.6619 13.0772L13.8573 12.9187L13.4372 12.401L13.0172 11.8833L12.8219 12.0418L13.2419 12.5595ZM13.4372 12.401L13.8573 12.9187L14.0526 12.7603L13.6326 12.2425L13.2126 11.7248L13.0172 11.8833L13.4372 12.401ZM13.6326 12.2425L14.0526 12.7603C14.2332 12.6138 14.3898 12.4435 14.5215 12.2514L13.9716 11.8745L13.4217 11.4976C13.3619 11.5848 13.2925 11.66 13.2126 11.7248L13.6326 12.2425ZM13.9716 11.8745L14.5215 12.2514L14.6651 12.0419L14.1153 11.665L13.5654 11.288L13.4217 11.4976L13.9716 11.8745ZM14.1153 11.665L14.6651 12.0419L14.8088 11.8323L14.2589 11.4554L13.709 11.0785L13.5654 11.288L14.1153 11.665ZM14.2589 11.4554L14.8088 11.8323C14.9618 11.6092 15.0596 11.36 15.0987 11.092L14.439 10.9959L13.7793 10.8997C13.7698 10.965 13.7475 11.0223 13.709 11.0785L14.2589 11.4554ZM14.439 10.9959L15.0987 11.092L15.1351 10.842L14.4754 10.7459L13.8157 10.6497L13.7793 10.8997L14.439 10.9959ZM14.4754 10.7459L15.1351 10.842L15.1716 10.592L14.5119 10.4959L13.8522 10.3997L13.8157 10.6497L14.4754 10.7459ZM14.5119 10.4959L15.1716 10.592C15.1969 10.4186 15.2193 10.246 15.2388 10.0744L14.5764 9.99905L13.914 9.92368C13.8961 10.0812 13.8755 10.2398 13.8522 10.3997L14.5119 10.4959ZM14.5764 9.99905L15.2388 10.0744L15.2669 9.82762L14.6045 9.75225L13.9421 9.67688L13.914 9.92368L14.5764 9.99905ZM14.6045 9.75225L15.2669 9.82762L15.295 9.58081L14.6326 9.50545L13.9702 9.43008L13.9421 9.67688L14.6045 9.75225ZM14.6326 9.50545L15.295 9.58081C15.3251 9.31589 15.2954 9.05389 15.2066 8.80247L14.578 9.02427L13.9493 9.24607C13.9708 9.30715 13.9775 9.36593 13.9702 9.43008L14.6326 9.50545ZM14.578 9.02427L15.2066 8.80247L15.124 8.5681L14.4953 8.7899L13.8666 9.0117L13.9493 9.24607L14.578 9.02427ZM14.4953 8.7899L15.124 8.5681L15.0413 8.33372L14.4126 8.55553L13.7839 8.77733L13.8666 9.0117L14.4953 8.7899ZM14.4126 8.55553L15.0413 8.33372C14.9727 8.13942 14.8872 7.95308 14.7848 7.7753L14.2072 8.10806L13.6295 8.44082C13.6907 8.54716 13.7422 8.65914 13.7839 8.77733L14.4126 8.55553ZM14.2072 8.10806L14.7848 7.7753L14.6621 7.5622L14.0844 7.89496L13.5067 8.22772L13.6295 8.44082L14.2072 8.10806ZM14.0844 7.89496L14.6621 7.5622L14.5393 7.34911L13.9617 7.68187L13.384 8.01463L13.5067 8.22772L14.0844 7.89496ZM13.9617 7.68187L14.5393 7.34911C14.4536 7.20021 14.3645 7.05164 14.272 6.90338L13.7063 7.25605L13.1406 7.60873C13.2249 7.7441 13.3061 7.8794 13.384 8.01463L13.9617 7.68187ZM13.7063 7.25605L14.272 6.90338L14.1394 6.69066L13.5737 7.04333L13.008 7.39601L13.1406 7.60873L13.7063 7.25605ZM13.5737 7.04333L14.1394 6.69066L14.0068 6.47794L13.4411 6.83061L12.8753 7.18329L13.008 7.39601L13.5737 7.04333ZM13.4411 6.83061L14.0068 6.47794C13.8813 6.27659 13.7268 6.09862 13.5452 5.94587L13.1161 6.45613L12.6871 6.96639C12.7619 7.02933 12.8241 7.10102 12.8753 7.18329L13.4411 6.83061ZM13.1161 6.45613L13.5452 5.94587L13.3528 5.78411L12.9237 6.29437L12.4947 6.80462L12.6871 6.96639L13.1161 6.45613ZM12.9237 6.29437L13.3528 5.78411L13.1604 5.62234L12.7313 6.1326L12.3023 6.64286L12.4947 6.80462L12.9237 6.29437ZM12.7313 6.1326L13.1604 5.62234C13.0702 5.54649 12.9894 5.46158 12.9175 5.36685L12.3864 5.76981L11.8553 6.17277C11.9868 6.34608 12.136 6.50303 12.3023 6.64286L12.7313 6.1326ZM12.3864 5.76981L12.9175 5.36685L12.765 5.16582L12.2339 5.56878L11.7028 5.97174L11.8553 6.17277L12.3864 5.76981ZM12.2339 5.56878L12.765 5.16582L12.6125 4.96479L12.0814 5.36775L11.5503 5.77071L11.7028 5.97174L12.2339 5.56878ZM12.0814 5.36775L12.6125 4.96479C12.4875 4.80009 12.3494 4.64754 12.1983 4.50759L11.7453 4.99673L11.2923 5.48587C11.3859 5.57258 11.4719 5.66737 11.5503 5.77071L12.0814 5.36775ZM11.7453 4.99673L12.1983 4.50759L12.0147 4.3376L11.5617 4.82674L11.1088 5.31588L11.2923 5.48587L11.7453 4.99673ZM11.5617 4.82674L12.0147 4.3376L11.8311 4.16761L11.3782 4.65675L10.9252 5.14589L11.1088 5.31588L11.5617 4.82674ZM11.3782 4.65675L11.8311 4.16761C11.7023 4.04829 11.571 3.93146 11.4373 3.81711L11.004 4.32379L10.5708 4.83046C10.6911 4.93341 10.8093 5.03855 10.9252 5.14589L11.3782 4.65675ZM11.004 4.32379L11.4373 3.81711L11.2467 3.65414L10.8134 4.16082L10.3802 4.66749L10.5708 4.83046L11.004 4.32379ZM10.8134 4.16082L11.2467 3.65414L11.0561 3.49117L10.6229 3.99785L10.1896 4.50452L10.3802 4.66749L10.8134 4.16082ZM10.6229 3.99785L11.0561 3.49117C10.9429 3.39438 10.8342 3.29333 10.7298 3.188L10.2563 3.65732L9.7828 4.12663C9.91305 4.25804 10.0487 4.38401 10.1896 4.50452L10.6229 3.99785ZM10.2563 3.65732L10.7298 3.188L10.5538 3.01044L10.0803 3.47976L9.6068 3.94907L9.7828 4.12663L10.2563 3.65732ZM10.0803 3.47976L10.5538 3.01044L10.3778 2.83288L9.90429 3.3022L9.43081 3.77152L9.6068 3.94907L10.0803 3.47976ZM9.90429 3.3022L10.3778 2.83288C10.259 2.71302 10.1396 2.59372 10.0197 2.47499L9.55063 2.94875L9.0816 3.42251C9.19855 3.5383 9.31495 3.65463 9.43081 3.77152L9.90429 3.3022ZM9.55063 2.94875L10.0197 2.47499L9.84201 2.2991L9.37297 2.77286L8.90394 3.24662L9.0816 3.42251L9.55063 2.94875ZM9.37297 2.77286L9.84201 2.2991L9.66434 2.12321L9.19531 2.59697L8.72627 3.07073L8.90394 3.24662L9.37297 2.77286ZM9.19531 2.59697L9.66434 2.12321C9.5679 2.02773 9.4779 1.92538 9.39428 1.81593L8.86452 2.22065L8.33476 2.62538C8.45531 2.78316 8.58583 2.93169 8.72627 3.07073L9.19531 2.59697ZM8.86452 2.22065L9.39428 1.81593L9.24115 1.6155L8.7114 2.02022L8.18164 2.42495L8.33476 2.62538L8.86452 2.22065ZM8.7114 2.02022L9.24115 1.6155L9.08803 1.41507L8.55827 1.81979L8.02851 2.22452L8.18164 2.42495L8.7114 2.02022ZM8.55827 1.81979L9.08803 1.41507C8.89843 1.1669 8.57186 0.923008 8.12835 0.984837L8.22041 1.64512L8.31246 2.3054C8.23462 2.31625 8.15471 2.30101 8.09108 2.26811C8.03627 2.23978 8.01864 2.21159 8.02851 2.22452L8.55827 1.81979ZM8.22041 1.64512L8.12835 0.984837L7.94361 1.01059L8.03566 1.67087L8.12771 2.33115L8.31246 2.3054L8.22041 1.64512ZM8.03566 1.67087L7.94361 1.01059L7.75887 1.03635L7.85092 1.69663L7.94297 2.35691L8.12771 2.33115L8.03566 1.67087ZM7.85092 1.69663L7.75887 1.03635C7.46658 1.0771 7.22497 1.22259 7.03498 1.39266L7.47962 1.88938L7.92427 2.3861C7.95269 2.36066 7.96924 2.35128 7.97289 2.34938C7.97559 2.34798 7.96501 2.35384 7.94297 2.35691L7.85092 1.69663ZM7.47962 1.88938L7.03498 1.39266L6.84842 1.55966L7.29307 2.05638L7.73772 2.5531L7.92427 2.3861L7.47962 1.88938ZM7.29307 2.05638L6.84842 1.55966L6.66187 1.72666L7.10651 2.22338L7.55116 2.7201L7.73772 2.5531L7.29307 2.05638ZM7.10651 2.22338L6.66187 1.72666C6.52487 1.84929 6.3928 1.97691 6.26567 2.10951L6.74691 2.57088L7.22814 3.03224C7.33175 2.92417 7.43941 2.82013 7.55116 2.7201L7.10651 2.22338ZM6.74691 2.57088L6.26567 2.10951L6.09262 2.29001L6.57385 2.75138L7.05509 3.21275L7.22814 3.03224L6.74691 2.57088ZM6.57385 2.75138L6.09262 2.29001L5.91957 2.47051L6.4008 2.93188L6.88204 3.39325L7.05509 3.21275L6.57385 2.75138ZM6.4008 2.93188L5.91957 2.47051C5.81937 2.57503 5.71409 2.67455 5.60367 2.7691L6.03729 3.27548L6.47092 3.78185C6.61444 3.65895 6.7515 3.5294 6.88204 3.39325L6.4008 2.93188ZM6.03729 3.27548L5.60367 2.7691L5.41321 2.9322L5.84684 3.43857L6.28046 3.94495L6.47092 3.78185L6.03729 3.27548ZM5.84684 3.43857L5.41321 2.9322L5.22275 3.09529L5.65638 3.60167L6.09 4.10804L6.28046 3.94495L5.84684 3.43857ZM5.65638 3.60167L5.22275 3.09529C5.06079 3.23399 4.9144 3.38827 4.78399 3.55749L5.31204 3.96444L5.84009 4.37139C5.91485 4.27437 5.99802 4.18681 6.09 4.10804L5.65638 3.60167ZM5.31204 3.96444L4.78399 3.55749L4.63011 3.75716L5.15816 4.16411L5.68621 4.57106L5.84009 4.37139L5.31204 3.96444ZM5.15816 4.16411L4.63011 3.75716L4.47623 3.95683L5.00428 4.36378L5.53233 4.77073L5.68621 4.57106L5.15816 4.16411ZM5.00428 4.36378L4.47623 3.95683C4.39656 4.06021 4.30948 4.15527 4.21479 4.24242L4.66631 4.73292L5.11782 5.22341C5.26859 5.08462 5.40682 4.93359 5.53233 4.77073L5.00428 4.36378ZM4.66631 4.73292L4.21479 4.24242L4.0307 4.41189L4.48221 4.90238L4.93372 5.39287L5.11782 5.22341L4.66631 4.73292ZM4.48221 4.90238L4.0307 4.41189L3.84661 4.58135L4.29812 5.07184L4.74963 5.56233L4.93372 5.39287L4.48221 4.90238ZM4.29812 5.07184L3.84661 4.58135C3.70535 4.71138 3.57178 4.84909 3.44597 4.99439L3.94996 5.43078L4.45394 5.86718C4.5469 5.75983 4.64543 5.65825 4.74963 5.56233L4.29812 5.07184ZM3.94996 5.43078L3.44597 4.99439L3.2819 5.18387L3.78589 5.62027L4.28987 6.05666L4.45394 5.86718L3.94996 5.43078ZM3.78589 5.62027L3.2819 5.18387L3.11783 5.37335L3.62182 5.80975L4.1258 6.24615L4.28987 6.05666L3.78589 5.62027ZM3.62182 5.80975L3.11783 5.37335C3.06714 5.4319 3.03827 5.46224 3.02641 5.47376C3.01902 5.48095 3.03019 5.46911 3.05461 5.45108C3.06651 5.44231 3.09588 5.42131 3.13869 5.39994C3.16088 5.38886 3.19428 5.37384 3.23688 5.36087C3.27827 5.34827 3.34266 5.33319 3.42294 5.33275L3.42662 5.9994L3.43031 6.66606C3.58351 6.66521 3.69545 6.61225 3.73427 6.59286C3.78504 6.56752 3.82375 6.54058 3.84637 6.52388C3.89224 6.49003 3.93041 6.45447 3.95555 6.43004C4.00876 6.37835 4.06712 6.31392 4.1258 6.24615L3.62182 5.80975ZM3.42662 5.9994L3.42294 5.33275L3.39181 5.33292L3.3955 5.99957L3.39918 6.66623L3.43031 6.66606L3.42662 5.9994ZM3.3955 5.99957L3.39181 5.33292L3.36069 5.33309L3.36438 5.99975L3.36806 6.6664L3.39918 6.66623L3.3955 5.99957ZM3.36438 5.99975L3.36069 5.33309C3.23102 5.33381 3.13388 5.37219 3.10202 5.3852C3.05817 5.40312 3.02337 5.42236 3.00207 5.43483C2.95895 5.46007 2.92098 5.48733 2.894 5.50753C2.83752 5.54981 2.77295 5.60375 2.70549 5.66244L3.14312 6.16537L3.58074 6.66829C3.64004 6.61669 3.67573 6.58787 3.693 6.57495C3.70289 6.56754 3.69518 6.57408 3.67568 6.5855C3.66619 6.59105 3.64155 6.6051 3.6062 6.61954C3.58793 6.627 3.56017 6.63731 3.52505 6.64629C3.49158 6.65485 3.43683 6.66602 3.36806 6.6664L3.36438 5.99975ZM3.14312 6.16537L2.70549 5.66244L2.51536 5.82789L2.95298 6.33082L3.3906 6.83374L3.58074 6.66829L3.14312 6.16537ZM7.99992 11.9999H7.33325V12.0999H7.99992H8.66658V11.9999H7.99992ZM7.99992 12.0999L7.33778 12.1775L7.39047 12.6275L8.05261 12.5499L8.71476 12.4724L8.66206 12.0224L7.99992 12.0999ZM8.05261 12.5499L7.39047 12.6275C7.42419 12.9154 7.43309 13.1068 7.42795 13.2196L8.09393 13.2499L8.75991 13.2802C8.76994 13.0597 8.7513 12.7844 8.71476 12.4724L8.05261 12.5499ZM8.09393 13.2499L7.42795 13.2196L7.41657 13.4696L8.08255 13.4999L8.74853 13.5302L8.75991 13.2802L8.09393 13.2499ZM8.08255 13.4999L7.41657 13.4696L7.4052 13.7196L8.07117 13.7499L8.73715 13.7802L8.74853 13.5302L8.08255 13.4999ZM8.07117 13.7499L7.4052 13.7196C7.39786 13.8808 7.38962 14.0091 7.38083 14.1069L8.04483 14.1666L8.70882 14.2262C8.71999 14.1019 8.72932 13.9524 8.73715 13.7802L8.07117 13.7499ZM8.04483 14.1666L7.38083 14.1069L7.36586 14.2736L8.02986 14.3333L8.69385 14.3929L8.70882 14.2262L8.04483 14.1666ZM8.02986 14.3333L7.36861 14.2484L7.33867 14.4817L7.99992 14.5666L8.66116 14.6514L8.6911 14.4181L8.02986 14.3333ZM7.99992 14.5666H7.33325V14.6666H7.99992H8.66658V14.5666H7.99992Z" fill="#67C3E7"/>
<path d="M7.06946 8.99994C7.25195 8.98546 8.02925 8.64363 8.02925 8.97675C7.97156 9.09212 7.80776 9.3021 7.69446 9.37494C7.60439 9.43284 7.40169 9.4481 7.30326 9.49638C7.16678 9.56333 6.98377 9.5826 6.83428 9.56391C6.49854 9.52195 6.17431 9.31164 5.95166 9.06117C5.81939 8.91236 5.75 8.79802 5.75 8.59688C5.75 8.5331 5.78056 8.48051 5.78377 8.4196C5.78719 8.35452 5.88347 8.50136 5.90195 8.5209C6.02492 8.6509 6.112 8.78322 6.30058 8.81542C6.53505 8.85545 6.83317 9.01869 7.06946 8.99994Z" fill="#1F97C6" stroke="#1F97C6" stroke-width="0.25" stroke-linecap="round"/>
<path d="M9.15417 8.99994C8.97169 8.98546 8.19439 8.64363 8.19439 8.97675C8.25207 9.09212 8.41588 9.3021 8.52917 9.37494C8.61924 9.43284 8.82194 9.4481 8.92037 9.49638C9.05685 9.56333 9.23986 9.5826 9.38935 9.56391C9.72509 9.52195 10.0493 9.31164 10.272 9.06117C10.4042 8.91236 10.4736 8.79802 10.4736 8.59688C10.4736 8.5331 10.4431 8.48051 10.4399 8.4196C10.4364 8.35452 10.3402 8.50136 10.3217 8.5209C10.1987 8.6509 10.1116 8.78322 9.92305 8.81542C9.68858 8.85545 9.39046 9.01869 9.15417 8.99994Z" fill="#1F97C6" stroke="#1F97C6" stroke-width="0.25" stroke-linecap="round"/>
<path d="M7.92529 8.16821H8.18515C8.33494 8.16823 8.38289 8.22433 8.44707 8.2538C8.49502 8.27582 8.57191 8.30558 8.58215 8.36517C8.59111 8.41729 8.57855 8.47072 8.56565 8.52087C8.5426 8.61051 8.42893 8.68817 8.34704 8.72092C8.2214 8.77118 8.05619 8.69633 7.93561 8.6606C7.85497 8.63671 7.76259 8.63233 7.73504 8.54356C7.71471 8.47803 7.70747 8.38474 7.74896 8.32547C7.79685 8.25706 7.83159 8.16821 7.92529 8.16821Z" stroke="#1D293D" stroke-width="0.25" stroke-linecap="round"/>
<path d="M5.93525 6.21753C6.22406 6.21753 6.49127 6.38028 6.70687 6.56078C6.78245 6.62405 6.88028 6.70434 6.87437 6.81066C6.86467 6.98526 6.32198 7.12206 6.20985 7.16626C5.95629 7.26622 5.68575 7.35887 5.41626 7.40379" stroke="#1D293D" stroke-width="0.25" stroke-linecap="round"/>
<path d="M9.93939 6.21753C9.65058 6.21753 9.38336 6.38028 9.16777 6.56078C9.09219 6.62405 8.99436 6.70434 9.00026 6.81066C9.00996 6.98526 9.55266 7.12206 9.66479 7.16626C9.91835 7.26622 10.1889 7.35887 10.4584 7.40379" stroke="#1D293D" stroke-width="0.25" stroke-linecap="round"/>
</g>
<defs>
<clipPath id="clip0_87_333">
<rect width="16" height="16" fill="white"/>
</clipPath>
</defs>
</svg>
