<svg width="25" height="25" viewBox="0 0 25 25" fill="none" xmlns="http://www.w3.org/2000/svg">
<path d="M12.9801 11.295V14.575H20.8201C20.5801 16.415 19.9671 17.762 19.0331 18.708C17.8861 19.855 16.1001 21.108 12.9801 21.108C8.15313 21.108 4.38013 17.215 4.38013 12.388C4.38013 7.561 8.15313 3.668 12.9801 3.668C15.5801 3.668 17.4871 4.695 18.8871 6.015L21.1941 3.708C19.2471 1.815 16.6331 0.375 12.9801 0.375C6.36713 0.375 0.807129 5.762 0.807129 12.375C0.807129 18.988 6.36713 24.375 12.9801 24.375C16.5531 24.375 19.2471 23.202 21.3531 21.015C23.5131 18.855 24.1931 15.802 24.1931 13.348C24.1931 12.588 24.1401 11.881 24.0201 11.295H12.9801Z" fill="#F8FAFC"/>
</svg>
