<svg width="24" height="24" viewBox="0 0 24 24" fill="none" xmlns="http://www.w3.org/2000/svg">
<path d="M19.3146 18.7352H4.61457C-0.20116 18.735 0.052289 11.8919 3.85422 11.1317C3.09378 4.28841 10.1903 3.27458 13.2318 7.58341C15.7662 4.7953 20.769 7.02759 19.8215 11.1317C23.3697 11.1317 24.8904 18.7352 19.3146 18.7352Z" fill="#67C3E7"/>
<path d="M5.17707 18.6845L5.22191 19.1825L5.17707 18.6845ZM5.55207 18.6769L5.57691 18.1776L5.55207 18.6769ZM5.92707 18.6956L5.90222 19.195L5.92707 18.6956ZM6.30207 18.7018L6.29359 18.2018L6.30207 18.7018ZM6.48957 18.6986L6.49805 19.1985L6.48957 18.6986ZM6.67707 18.6954L6.66859 18.1955L6.67707 18.6954ZM7.05207 18.722L7.13041 18.2281L7.05207 18.722ZM7.42707 18.7814L7.34873 19.2753L7.42707 18.7814ZM7.80207 18.7792L7.88619 19.2721L7.80207 18.7792ZM8.17707 18.7152L8.09295 18.2223L8.17707 18.7152ZM8.55207 18.6832L8.55193 19.1832L8.55207 18.6832ZM8.92707 18.6833L8.92693 19.1833L8.92707 18.6833ZM9.30207 18.681L9.29557 18.181L9.30207 18.681ZM9.67707 18.6761L9.68357 19.176L9.67707 18.6761ZM10.0521 18.6805L10.0338 19.1802L10.0521 18.6805ZM10.4271 18.6942L10.4454 18.1946L10.4271 18.6942ZM10.8021 18.6909L10.775 18.1917L10.8021 18.6909ZM11.1771 18.6706L11.2041 19.1699L11.1771 18.6706ZM11.5521 18.661L11.5536 18.161L11.5521 18.661ZM11.9271 18.6622L11.9255 19.1622L11.9271 18.6622ZM12.3021 18.6981L12.3947 18.2068L12.3021 18.6981ZM12.6771 18.7688L12.7697 18.2774L12.6771 18.7688ZM13.0521 18.771L12.9651 18.2786L13.0521 18.771ZM13.4271 18.7047L13.5141 19.1971L13.4271 18.7047ZM13.8021 18.6849L13.7667 19.1836L13.8021 18.6849ZM13.9896 18.6982L14.0249 18.1994L13.9896 18.6982ZM14.1771 18.7115L14.1417 19.2102L14.1771 18.7115ZM14.5521 18.7339L14.5277 19.2333L14.5521 18.7339ZM14.9271 18.7522L14.9514 18.2528L14.9271 18.7522ZM15.3021 18.7724L15.3316 18.2733L15.3021 18.7724ZM15.6771 18.7946L15.6476 19.2937L15.6771 18.7946ZM16.0521 18.7921L16.0883 19.2908L16.0521 18.7921ZM16.4271 18.7649L16.4633 19.2636L16.4271 18.7649ZM16.8021 18.7447L16.8194 19.2444L16.8021 18.7447ZM16.9896 18.7382L17.0069 19.2379L16.9896 18.7382ZM17.1771 18.7317L17.1597 18.232L17.1771 18.7317ZM17.5521 18.7127L17.5855 19.2115L17.5521 18.7127ZM17.9271 18.6875L17.8936 18.1886L17.9271 18.6875ZM18.3021 18.6864L18.3325 18.1873L18.3021 18.6864ZM18.6771 18.7092L18.6467 19.2083L18.6771 18.7092ZM19.0522 18.7024L19.0038 18.2047L19.0522 18.7024ZM19.2398 18.6842L19.2882 19.1818L19.2398 18.6842ZM19.4274 18.6659L19.4758 19.1636L19.4274 18.6659ZM20.1761 18.6467L20.1753 18.1467L20.1761 18.6467ZM20.5421 18.5908L20.3937 18.1133L20.5421 18.5908ZM20.9001 18.4795L21.0485 18.957L20.9001 18.4795ZM21.2399 18.3275L20.983 17.8986L21.2399 18.3275ZM21.5616 18.1349L21.8185 18.5639L21.5616 18.1349ZM21.865 17.9156L21.5385 17.5369L21.865 17.9156ZM22.1503 17.6695L22.4769 18.0481L22.1503 17.6695ZM22.3918 17.3851L21.9655 17.1239L22.3918 17.3851ZM22.4907 17.2238L22.0644 16.9626L22.4907 17.2238ZM22.5895 17.0625L23.0159 17.3237L22.5895 17.0625ZM22.7368 16.7195L23.22 16.8483L22.7368 16.7195ZM22.7853 16.5378L22.3022 16.409L22.7853 16.5378ZM22.8338 16.3561L22.3506 16.2273L22.8338 16.3561ZM22.9136 15.9898L22.4206 15.9061L22.9136 15.9898ZM22.9449 15.8051L23.4378 15.8887L22.9449 15.8051ZM22.9762 15.6204L22.4833 15.5368L22.9762 15.6204ZM23.0005 15.248L23.5001 15.2291L23.0005 15.248ZM22.9863 14.8725L22.4867 14.8914L22.9863 14.8725ZM22.9345 14.5028L23.42 14.3834L22.9345 14.5028ZM22.845 14.1387L22.3594 14.2581L22.845 14.1387ZM22.7474 13.7767L23.2272 13.636L22.7474 13.7767ZM22.6946 13.5967L22.2148 13.7374L22.6946 13.5967ZM22.6418 13.4166L22.162 13.5573L22.6418 13.4166ZM22.4811 13.0833L22.0722 13.371L22.4811 13.0833ZM22.2652 12.7765L22.6741 12.4887L22.2652 12.7765ZM22.0527 12.4692L21.639 12.75L22.0527 12.4692ZM21.8436 12.1611L22.2572 11.8803L21.8436 12.1611ZM21.5914 11.894L21.8955 11.4971L21.5914 11.894ZM21.2961 11.6677L21.6002 11.2709L21.2961 11.6677ZM20.9862 11.4568L21.2443 11.0286L20.9862 11.4568ZM20.824 11.3591L20.5659 11.7873L20.824 11.3591ZM20.6618 11.2613L20.4037 11.6896L20.6618 11.2613ZM20.3324 11.135L20.2483 11.6279L20.3324 11.135ZM19.998 11.078L20.0821 10.5851L19.998 11.078ZM19.8524 10.864L20.349 10.9216L19.8524 10.864ZM19.8953 10.4932L19.3987 10.4356L19.8953 10.4932ZM19.9114 10.121L20.4112 10.1065L19.9114 10.121ZM19.9006 9.7475L19.4009 9.76194L19.9006 9.7475ZM19.8477 9.38008L20.3313 9.25292L19.8477 9.38008ZM19.8002 9.19939L19.3167 9.32654L19.8002 9.19939ZM19.7527 9.01871L20.2363 8.89155L19.7527 9.01871ZM19.6087 8.67947L19.1816 8.93952L19.6087 8.67947ZM19.4156 8.36238L18.9885 8.62243L19.4156 8.36238ZM19.2067 8.05884L19.6019 7.7526L19.2067 8.05884ZM18.982 7.76883L18.5867 8.07507L18.982 7.76883ZM18.7522 7.47313L18.3578 7.78048L18.7522 7.47313ZM18.5173 7.17172L18.9117 6.86437L18.5173 7.17172ZM18.2199 6.95753L18.0535 7.42905L18.2199 6.95753ZM18.0399 6.89405L18.2063 6.42253L18.0399 6.89405ZM17.86 6.83056L18.0263 6.35904L17.86 6.83056ZM17.5111 6.68517L17.7292 6.23526L17.5111 6.68517ZM17.1732 6.52137L16.9551 6.97128L17.1732 6.52137ZM16.8187 6.39963L16.7137 6.88849L16.8187 6.39963ZM15.8817 6.30119L15.854 5.80195L15.8817 6.30119ZM15.6917 6.31172L15.7193 6.81096L15.6917 6.31172ZM15.3207 6.37746L15.1748 5.89922L15.3207 6.37746ZM15.1397 6.43266L15.2856 6.9109L15.1397 6.43266ZM14.9588 6.48786L15.1047 6.9661L14.9588 6.48786ZM14.2859 6.81104L14.0467 6.37195L14.2859 6.81104ZM13.8173 7.11388L14.1042 7.52332L13.8173 7.11388ZM13.6649 7.22064L13.378 6.8112L13.6649 7.22064ZM13.2335 7.32884L13.2309 6.82885L13.2335 7.32884ZM13.0939 7.32957L13.0965 7.82956L13.0939 7.32957ZM12.8558 7.16686L13.284 6.90868L12.8558 7.16686ZM12.7572 7.00342L12.3291 7.26159L12.7572 7.00342ZM12.6587 6.83998L12.2305 7.09816L12.6587 6.83998ZM12.4123 6.55859L12.7242 6.16776L12.4123 6.55859ZM11.8105 6.10239L12.082 5.68248L11.8105 6.10239ZM11.6522 6.00005L11.3808 6.41996L11.6522 6.00005ZM11.4939 5.89772L11.2225 6.31763L11.4939 5.89772ZM11.1592 5.73056L11.3317 5.26125L11.1592 5.73056ZM10.9828 5.66573L10.8104 6.13504L10.9828 5.66573ZM10.8064 5.6009L10.9789 5.13159L10.8064 5.6009ZM10.4559 5.47351L10.2868 5.94405L10.4559 5.47351ZM9.75471 5.23283L9.89669 4.75341L9.75471 5.23283ZM9.57585 5.17986L9.43388 5.65928L9.57585 5.17986ZM9.39698 5.12689L9.53896 4.64747L9.39698 5.12689ZM9.03181 5.05797L8.98915 5.55615L9.03181 5.05797ZM6.83333 5.32524L6.68685 4.84717L6.83333 5.32524ZM6.65484 5.37993L6.80132 5.85799L6.65484 5.37993ZM6.12691 5.57226L6.3452 6.02209L6.12691 5.57226ZM5.785 5.73818L5.56671 5.28834L5.785 5.73818ZM5.49755 5.97234L5.10147 5.66718L5.49755 5.97234ZM5.38106 6.12354L4.98498 5.81838L5.38106 6.12354ZM5.26457 6.27473L5.66064 6.5799L5.26457 6.27473ZM5.03556 6.5719L4.63956 6.26664L5.03556 6.5719ZM4.92305 6.71786L4.52705 6.4126L4.92305 6.71786ZM4.61276 7.1731L4.16953 6.9417L4.61276 7.1731ZM4.44223 7.49975L3.999 7.26835L4.44223 7.49975ZM4.27871 7.8328L3.82464 7.62346L4.27871 7.8328ZM3.99736 8.52292L4.48155 8.64764L3.99736 8.52292ZM3.90415 8.88481L3.41995 8.76009L3.90415 8.88481ZM3.85506 9.25377L4.35501 9.26039L3.85506 9.25377ZM3.85008 9.62982L3.35012 9.62321L3.85008 9.62982ZM3.825 10.0057L4.32143 10.0654L3.825 10.0057ZM3.77982 10.3813L3.2834 10.3216L3.77982 10.3813ZM3.73897 10.7313L3.24211 10.6753L3.73897 10.7313ZM3.70245 11.0555L4.19931 11.1115L3.70245 11.0555ZM3.50129 11.2633L3.38035 10.7781L3.50129 11.2633ZM3.13549 11.3545L3.01454 10.8693L3.13549 11.3545ZM2.81437 11.5285L3.15471 11.8948L2.81437 11.5285ZM2.67615 11.6569L2.33581 11.2906L2.67615 11.6569ZM2.53793 11.7853L2.19759 11.419L2.53793 11.7853ZM2.27242 12.0469L1.91106 11.7013L2.27242 12.0469ZM2.01784 12.3131L1.65648 11.9675L2.01784 12.3131ZM1.76606 12.5901L1.38795 12.2629L1.76606 12.5901ZM1.64156 12.734L2.01967 13.0611L1.64156 12.734ZM1.51707 12.8778L1.89517 13.205L1.51707 12.8778ZM1.32451 13.1995L0.857547 13.0208L1.32451 13.1995ZM1.18838 13.5552L1.65534 13.7339L1.18838 13.5552ZM1.11437 13.9233L0.614615 13.9076L1.11437 13.9233ZM1.10248 14.3039L0.60272 14.2882L1.10248 14.3039ZM1.08982 15.4162L1.58654 15.3591L1.08982 15.4162ZM1.13201 15.7832L0.635285 15.8403L1.13201 15.7832ZM1.19611 16.1479L1.6826 16.0325L1.19611 16.1479ZM1.23912 16.3291L1.72561 16.2137L1.23912 16.3291ZM1.28212 16.5104L0.795631 16.6258L1.28212 16.5104ZM1.42449 16.8488L1.00182 17.1159L1.42449 16.8488ZM1.62323 17.1633L2.04591 16.8962L1.62323 17.1633ZM1.82863 17.4773L1.41448 17.7575L1.82863 17.4773ZM2.04068 17.7908L2.45483 17.5106L2.04068 17.7908ZM2.30987 18.0433L2.05667 18.4745L2.30987 18.0433ZM2.63621 18.235L2.88941 17.8038L2.63621 18.235ZM2.97883 18.3806L2.84513 18.8624L2.97883 18.3806ZM3.33775 18.4802L3.47146 17.9984L3.33775 18.4802ZM3.69754 18.5782L3.82658 18.0951L3.69754 18.5782ZM3.87786 18.6264L3.74883 19.1094L3.87786 18.6264ZM4.05819 18.6745L4.18722 18.1915L4.05819 18.6745ZM4.33253 18.7258L4.31596 19.2255L4.33253 18.7258ZM4.52055 18.732L4.53713 18.2323L4.52055 18.732ZM4.80207 18.7183L4.75722 18.2203L4.80207 18.7183ZM4.98957 18.7014L5.03441 19.1994L5.22191 19.1825L5.17707 18.6845L5.13222 18.1865L4.94472 18.2034L4.98957 18.7014ZM5.17707 18.6845L5.22191 19.1825C5.32381 19.1733 5.42552 19.1713 5.52722 19.1763L5.55207 18.6769L5.57691 18.1776C5.42861 18.1702 5.28033 18.1732 5.13222 18.1865L5.17707 18.6845ZM5.55207 18.6769L5.52722 19.1763L5.71472 19.1857L5.73957 18.6863L5.76441 18.1869L5.57691 18.1776L5.55207 18.6769ZM5.73957 18.6863L5.71472 19.1857L5.90222 19.195L5.92707 18.6956L5.95191 18.1962L5.76441 18.1869L5.73957 18.6863ZM5.92707 18.6956L5.90222 19.195C6.03831 19.2018 6.17443 19.204 6.31055 19.2017L6.30207 18.7018L6.29359 18.2018C6.17971 18.2038 6.06582 18.2019 5.95191 18.1962L5.92707 18.6956ZM6.30207 18.7018L6.31055 19.2017L6.49805 19.1985L6.48957 18.6986L6.48109 18.1986L6.29359 18.2018L6.30207 18.7018ZM6.48957 18.6986L6.49805 19.1985L6.68555 19.1953L6.67707 18.6954L6.66859 18.1955L6.48109 18.1986L6.48957 18.6986ZM6.67707 18.6954L6.68555 19.1953C6.78113 19.1937 6.87708 19.2004 6.97373 19.2158L7.05207 18.722L7.13041 18.2281C6.97706 18.2038 6.82301 18.1928 6.66859 18.1955L6.67707 18.6954ZM7.05207 18.722L6.97373 19.2158L7.16123 19.2455L7.23957 18.7517L7.31791 18.2579L7.13041 18.2281L7.05207 18.722ZM7.23957 18.7517L7.16123 19.2455L7.34873 19.2753L7.42707 18.7814L7.50541 18.2876L7.31791 18.2579L7.23957 18.7517ZM7.42707 18.7814L7.34873 19.2753C7.52768 19.3037 7.70755 19.3026 7.88619 19.2721L7.80207 18.7792L7.71795 18.2863C7.64658 18.2985 7.57646 18.2989 7.50541 18.2876L7.42707 18.7814ZM7.80207 18.7792L7.88619 19.2721L8.07369 19.2401L7.98957 18.7472L7.90545 18.2543L7.71795 18.2863L7.80207 18.7792ZM7.98957 18.7472L8.07369 19.2401L8.26119 19.2081L8.17707 18.7152L8.09295 18.2223L7.90545 18.2543L7.98957 18.7472ZM8.17707 18.7152L8.26119 19.2081C8.35876 19.1914 8.45557 19.1832 8.55193 19.1832L8.55207 18.6832L8.55221 18.1832C8.39857 18.1832 8.24538 18.1963 8.09295 18.2223L8.17707 18.7152ZM8.55207 18.6832L8.55193 19.1832L8.73943 19.1833L8.73957 18.6833L8.73971 18.1833L8.55221 18.1832L8.55207 18.6832ZM8.73957 18.6833L8.73943 19.1833L8.92693 19.1833L8.92707 18.6833L8.92721 18.1833L8.73971 18.1833L8.73957 18.6833ZM8.92707 18.6833L8.92693 19.1833C9.05414 19.1834 9.18135 19.1826 9.30857 19.1809L9.30207 18.681L9.29557 18.181C9.17278 18.1826 9.05 18.1834 8.92721 18.1833L8.92707 18.6833ZM9.30207 18.681L9.30857 19.1809L9.49607 19.1785L9.48957 18.6785L9.48307 18.1786L9.29557 18.181L9.30207 18.681ZM9.48957 18.6785L9.49607 19.1785L9.68357 19.176L9.67707 18.6761L9.67057 18.1761L9.48307 18.1786L9.48957 18.6785ZM9.67707 18.6761L9.68357 19.176C9.8003 19.1745 9.91704 19.1759 10.0338 19.1802L10.0521 18.6805L10.0704 18.1808C9.9371 18.176 9.80384 18.1744 9.67057 18.1761L9.67707 18.6761ZM10.0521 18.6805L10.0338 19.1802L10.2213 19.187L10.2396 18.6874L10.2579 18.1877L10.0704 18.1808L10.0521 18.6805ZM10.2396 18.6874L10.2213 19.187L10.4088 19.1939L10.4271 18.6942L10.4454 18.1946L10.2579 18.1877L10.2396 18.6874ZM10.4271 18.6942L10.4088 19.1939C10.5489 19.199 10.689 19.1978 10.8291 19.1902L10.8021 18.6909L10.775 18.1917C10.6651 18.1976 10.5552 18.1986 10.4454 18.1946L10.4271 18.6942ZM10.8021 18.6909L10.8291 19.1902L11.0166 19.18L10.9896 18.6808L10.9625 18.1815L10.775 18.1917L10.8021 18.6909ZM10.9896 18.6808L11.0166 19.18L11.2041 19.1699L11.1771 18.6706L11.15 18.1713L10.9625 18.1815L10.9896 18.6808ZM11.1771 18.6706L11.2041 19.1699C11.3196 19.1636 11.4351 19.1607 11.5505 19.161L11.5521 18.661L11.5536 18.161C11.4191 18.1606 11.2845 18.164 11.15 18.1713L11.1771 18.6706ZM11.5521 18.661L11.5505 19.161L11.738 19.1616L11.7396 18.6616L11.7411 18.1616L11.5536 18.161L11.5521 18.661ZM11.7396 18.6616L11.738 19.1616L11.9255 19.1622L11.9271 18.6622L11.9286 18.1622L11.7411 18.1616L11.7396 18.6616ZM11.9271 18.6622L11.9255 19.1622C12.0194 19.1625 12.114 19.1715 12.2095 19.1895L12.3021 18.6981L12.3947 18.2068C12.2402 18.1777 12.0847 18.1627 11.9286 18.1622L11.9271 18.6622ZM12.3021 18.6981L12.2095 19.1895L12.397 19.2248L12.4896 18.7335L12.5822 18.2421L12.3947 18.2068L12.3021 18.6981ZM12.4896 18.7335L12.397 19.2248L12.5845 19.2601L12.6771 18.7688L12.7697 18.2774L12.5822 18.2421L12.4896 18.7335ZM12.6771 18.7688L12.5845 19.2601C12.7687 19.2949 12.9545 19.296 13.1391 19.2634L13.0521 18.771L12.9651 18.2786C12.8996 18.2902 12.8355 18.2899 12.7697 18.2774L12.6771 18.7688ZM13.0521 18.771L13.1391 19.2634L13.3266 19.2303L13.2396 18.7379L13.1526 18.2455L12.9651 18.2786L13.0521 18.771ZM13.2396 18.7379L13.3266 19.2303L13.5141 19.1971L13.4271 18.7047L13.3401 18.2124L13.1526 18.2455L13.2396 18.7379ZM13.4271 18.7047L13.5141 19.1971C13.5992 19.1821 13.6832 19.1777 13.7667 19.1836L13.8021 18.6849L13.8374 18.1861C13.671 18.1744 13.5049 18.1832 13.3401 18.2124L13.4271 18.7047ZM13.8021 18.6849L13.7667 19.1836L13.9542 19.1969L13.9896 18.6982L14.0249 18.1994L13.8374 18.1861L13.8021 18.6849ZM13.9896 18.6982L13.9542 19.1969L14.1417 19.2102L14.1771 18.7115L14.2124 18.2127L14.0249 18.1994L13.9896 18.6982ZM14.1771 18.7115L14.1417 19.2102C14.2704 19.2193 14.399 19.227 14.5277 19.2333L14.5521 18.7339L14.5764 18.2345C14.4551 18.2286 14.3338 18.2213 14.2124 18.2127L14.1771 18.7115ZM14.5521 18.7339L14.5277 19.2333L14.7152 19.2424L14.7396 18.743L14.7639 18.2436L14.5764 18.2345L14.5521 18.7339ZM14.7396 18.743L14.7152 19.2424L14.9027 19.2516L14.9271 18.7522L14.9514 18.2528L14.7639 18.2436L14.7396 18.743ZM14.9271 18.7522L14.9027 19.2516C15.026 19.2576 15.1493 19.2643 15.2726 19.2716L15.3021 18.7724L15.3316 18.2733C15.2049 18.2658 15.0782 18.259 14.9514 18.2528L14.9271 18.7522ZM15.3021 18.7724L15.2726 19.2716L15.4601 19.2826L15.4896 18.7835L15.5191 18.2844L15.3316 18.2733L15.3021 18.7724ZM15.4896 18.7835L15.4601 19.2826L15.6476 19.2937L15.6771 18.7946L15.7066 18.2955L15.5191 18.2844L15.4896 18.7835ZM15.6771 18.7946L15.6476 19.2937C15.7945 19.3024 15.9414 19.3014 16.0883 19.2908L16.0521 18.7921L16.0159 18.2934C15.9127 18.3009 15.8097 18.3016 15.7066 18.2955L15.6771 18.7946ZM16.0521 18.7921L16.0883 19.2908L16.2758 19.2772L16.2396 18.7785L16.2034 18.2798L16.0159 18.2934L16.0521 18.7921ZM16.2396 18.7785L16.2758 19.2772L16.4633 19.2636L16.4271 18.7649L16.3909 18.2662L16.2034 18.2798L16.2396 18.7785ZM16.4271 18.7649L16.4633 19.2636C16.582 19.2549 16.7007 19.2486 16.8194 19.2444L16.8021 18.7447L16.7847 18.245C16.6534 18.2496 16.5221 18.2566 16.3909 18.2662L16.4271 18.7649ZM16.8021 18.7447L16.8194 19.2444L17.0069 19.2379L16.9896 18.7382L16.9722 18.2385L16.7847 18.245L16.8021 18.7447ZM16.9896 18.7382L17.0069 19.2379L17.1944 19.2314L17.1771 18.7317L17.1597 18.232L16.9722 18.2385L16.9896 18.7382ZM17.1771 18.7317L17.1944 19.2314C17.3248 19.2269 17.4552 19.2203 17.5855 19.2115L17.5521 18.7127L17.5186 18.2138C17.399 18.2218 17.2793 18.2279 17.1597 18.232L17.1771 18.7317ZM17.5521 18.7127L17.5855 19.2115L17.773 19.199L17.7396 18.7001L17.7061 18.2012L17.5186 18.2138L17.5521 18.7127ZM17.7396 18.7001L17.773 19.199L17.9605 19.1864L17.9271 18.6875L17.8936 18.1886L17.7061 18.2012L17.7396 18.7001ZM17.9271 18.6875L17.9605 19.1864C18.0643 19.1794 18.1679 19.1791 18.2717 19.1854L18.3021 18.6864L18.3325 18.1873C18.1862 18.1784 18.0399 18.1788 17.8936 18.1886L17.9271 18.6875ZM18.3021 18.6864L18.2717 19.1854L18.4592 19.1969L18.4896 18.6978L18.52 18.1987L18.3325 18.1873L18.3021 18.6864ZM18.4896 18.6978L18.4592 19.1969L18.6467 19.2083L18.6771 18.7092L18.7075 18.2101L18.52 18.1987L18.4896 18.6978ZM18.6771 18.7092L18.6467 19.2083C18.798 19.2175 18.9494 19.2147 19.1006 19.2001L19.0522 18.7024L19.0038 18.2047C18.9048 18.2144 18.8061 18.2161 18.7075 18.2101L18.6771 18.7092ZM19.0522 18.7024L19.1006 19.2001L19.2882 19.1818L19.2398 18.6842L19.1914 18.1865L19.0038 18.2047L19.0522 18.7024ZM19.2398 18.6842L19.2882 19.1818L19.4758 19.1636L19.4274 18.6659L19.3791 18.1683L19.1914 18.1865L19.2398 18.6842ZM19.4274 18.6659L19.4758 19.1636C19.5852 19.1529 19.6942 19.1475 19.8029 19.1474L19.8021 18.6474L19.8013 18.1474C19.6606 18.1476 19.5198 18.1546 19.3791 18.1683L19.4274 18.6659ZM19.8021 18.6474L19.8029 19.1474L19.9899 19.1471L19.9891 18.6471L19.9883 18.1471L19.8013 18.1474L19.8021 18.6474ZM19.9891 18.6471L19.9899 19.1471L20.177 19.1467L20.1761 18.6467L20.1753 18.1467L19.9883 18.1471L19.9891 18.6471ZM20.1761 18.6467L20.177 19.1467C20.3518 19.1465 20.5236 19.1202 20.6906 19.0683L20.5421 18.5908L20.3937 18.1133C20.3221 18.1356 20.2498 18.1466 20.1753 18.1467L20.1761 18.6467ZM20.5421 18.5908L20.6906 19.0683L20.8696 19.0126L20.7211 18.5352L20.5727 18.0577L20.3937 18.1133L20.5421 18.5908ZM20.7211 18.5352L20.8696 19.0126L21.0485 18.957L20.9001 18.4795L20.7517 18.002L20.5727 18.0577L20.7211 18.5352ZM20.9001 18.4795L21.0485 18.957C21.2058 18.9081 21.3555 18.8411 21.4968 18.7565L21.2399 18.3275L20.983 17.8986C20.9099 17.9424 20.833 17.9768 20.7517 18.002L20.9001 18.4795ZM21.2399 18.3275L21.4968 18.7565L21.6576 18.6602L21.4007 18.2312L21.1438 17.8023L20.983 17.8986L21.2399 18.3275ZM21.4007 18.2312L21.6576 18.6602L21.8185 18.5639L21.5616 18.1349L21.3047 17.706L21.1438 17.8023L21.4007 18.2312ZM21.5616 18.1349L21.8185 18.5639C21.9504 18.4848 22.0749 18.3949 22.1916 18.2942L21.865 17.9156L21.5385 17.5369C21.465 17.6003 21.3871 17.6566 21.3047 17.706L21.5616 18.1349ZM21.865 17.9156L22.1916 18.2942L22.3343 18.1711L22.0077 17.7925L21.6811 17.4139L21.5385 17.5369L21.865 17.9156ZM22.0077 17.7925L22.3343 18.1711L22.4769 18.0481L22.1503 17.6695L21.8238 17.2909L21.6811 17.4139L22.0077 17.7925ZM22.1503 17.6695L22.4769 18.0481C22.6113 17.9322 22.7254 17.7977 22.8182 17.6464L22.3918 17.3851L21.9655 17.1239C21.9265 17.1876 21.8796 17.2427 21.8238 17.2909L22.1503 17.6695ZM22.3918 17.3851L22.8182 17.6464L22.917 17.485L22.4907 17.2238L22.0644 16.9626L21.9655 17.1239L22.3918 17.3851ZM22.4907 17.2238L22.917 17.485L23.0159 17.3237L22.5895 17.0625L22.1632 16.8012L22.0644 16.9626L22.4907 17.2238ZM22.5895 17.0625L23.0159 17.3237C23.1068 17.1753 23.1751 17.0164 23.22 16.8483L22.7368 16.7195L22.2537 16.5906C22.2339 16.6648 22.2041 16.7346 22.1632 16.8012L22.5895 17.0625ZM22.7368 16.7195L23.22 16.8483L23.2684 16.6666L22.7853 16.5378L22.3022 16.409L22.2537 16.5906L22.7368 16.7195ZM22.7853 16.5378L23.2684 16.6666L23.3169 16.485L22.8338 16.3561L22.3506 16.2273L22.3022 16.409L22.7853 16.5378ZM22.8338 16.3561L23.3169 16.485C23.3531 16.349 23.383 16.2118 23.4065 16.0734L22.9136 15.9898L22.4206 15.9061C22.4023 16.0139 22.379 16.121 22.3506 16.2273L22.8338 16.3561ZM22.9136 15.9898L23.4065 16.0734L23.4378 15.8887L22.9449 15.8051L22.4519 15.7214L22.4206 15.9061L22.9136 15.9898ZM22.9449 15.8051L23.4378 15.8887L23.4692 15.7041L22.9762 15.6204L22.4833 15.5368L22.4519 15.7214L22.9449 15.8051ZM22.9762 15.6204L23.4692 15.7041C23.4958 15.547 23.5062 15.3885 23.5001 15.2291L23.0005 15.248L22.5008 15.2669C22.5043 15.3578 22.4984 15.4476 22.4833 15.5368L22.9762 15.6204ZM23.0005 15.248L23.5001 15.2291L23.493 15.0414L22.9934 15.0603L22.4938 15.0791L22.5008 15.2669L23.0005 15.248ZM22.9934 15.0603L23.493 15.0414L23.486 14.8536L22.9863 14.8725L22.4867 14.8914L22.4938 15.0791L22.9934 15.0603ZM22.9863 14.8725L23.486 14.8536C23.48 14.6947 23.458 14.5377 23.42 14.3834L22.9345 14.5028L22.4489 14.6221C22.4706 14.7105 22.4832 14.8 22.4867 14.8914L22.9863 14.8725ZM22.9345 14.5028L23.42 14.3834L23.3752 14.2013L22.8897 14.3207L22.4042 14.4401L22.4489 14.6221L22.9345 14.5028ZM22.8897 14.3207L23.3752 14.2013L23.3305 14.0193L22.845 14.1387L22.3594 14.2581L22.4042 14.4401L22.8897 14.3207ZM22.845 14.1387L23.3305 14.0193C23.2989 13.8908 23.2645 13.7631 23.2272 13.636L22.7474 13.7767L22.2676 13.9174C22.3007 14.0303 22.3313 14.1439 22.3594 14.2581L22.845 14.1387ZM22.7474 13.7767L23.2272 13.636L23.1744 13.456L22.6946 13.5967L22.2148 13.7374L22.2676 13.9174L22.7474 13.7767ZM22.6946 13.5967L23.1744 13.456L23.1216 13.276L22.6418 13.4166L22.162 13.5573L22.2148 13.7374L22.6946 13.5967ZM22.6418 13.4166L23.1216 13.276C23.071 13.1034 22.9935 12.9425 22.89 12.7955L22.4811 13.0833L22.0722 13.371C22.1126 13.4285 22.1423 13.4899 22.162 13.5573L22.6418 13.4166ZM22.4811 13.0833L22.89 12.7955L22.782 12.6421L22.3732 12.9299L21.9643 13.2177L22.0722 13.371L22.4811 13.0833ZM22.3732 12.9299L22.782 12.6421L22.6741 12.4887L22.2652 12.7765L21.8563 13.0643L21.9643 13.2177L22.3732 12.9299ZM22.2652 12.7765L22.6741 12.4887C22.6037 12.3888 22.5345 12.2886 22.4664 12.1883L22.0527 12.4692L21.639 12.75C21.7103 12.855 21.7828 12.9598 21.8563 13.0643L22.2652 12.7765ZM22.0527 12.4692L22.4664 12.1883L22.3618 12.0343L21.9481 12.3152L21.5345 12.596L21.639 12.75L22.0527 12.4692ZM21.9481 12.3152L22.3618 12.0343L22.2572 11.8803L21.8436 12.1611L21.4299 12.442L21.5345 12.596L21.9481 12.3152ZM21.8436 12.1611L22.2572 11.8803C22.1575 11.7334 22.0364 11.6051 21.8955 11.4971L21.5914 11.894L21.2872 12.2909C21.3431 12.3337 21.3902 12.3836 21.4299 12.442L21.8436 12.1611ZM21.5914 11.894L21.8955 11.4971L21.7479 11.384L21.4437 11.7809L21.1396 12.1777L21.2872 12.2909L21.5914 11.894ZM21.4437 11.7809L21.7479 11.384L21.6002 11.2709L21.2961 11.6677L20.992 12.0646L21.1396 12.1777L21.4437 11.7809ZM21.2961 11.6677L21.6002 11.2709C21.4868 11.1839 21.3681 11.1032 21.2443 11.0286L20.9862 11.4568L20.7282 11.8851C20.8207 11.9409 20.9086 12.0007 20.992 12.0646L21.2961 11.6677ZM20.9862 11.4568L21.2443 11.0286L21.0821 10.9308L20.824 11.3591L20.5659 11.7873L20.7282 11.8851L20.9862 11.4568ZM20.824 11.3591L21.0821 10.9308L20.9198 10.8331L20.6618 11.2613L20.4037 11.6896L20.5659 11.7873L20.824 11.3591ZM20.6618 11.2613L20.9198 10.8331C20.7645 10.7394 20.5962 10.6728 20.4164 10.6422L20.3324 11.135L20.2483 11.6279C20.2914 11.6353 20.3428 11.6529 20.4037 11.6896L20.6618 11.2613ZM20.3324 11.135L20.4164 10.6422L20.2493 10.6136L20.1652 11.1065L20.0811 11.5994L20.2483 11.6279L20.3324 11.135ZM20.1652 11.1065L20.2493 10.6136L20.0821 10.5851L19.998 11.078L19.914 11.5709L20.0811 11.5994L20.1652 11.1065ZM19.998 11.078L20.0821 10.5851C20.1169 10.5911 20.2175 10.6204 20.2913 10.7289C20.3592 10.8285 20.3497 10.916 20.349 10.9216L19.8524 10.864L19.3557 10.8065C19.3407 10.9358 19.3483 11.1207 19.4647 11.2917C19.5872 11.4715 19.7678 11.546 19.914 11.5709L19.998 11.078ZM19.8524 10.864L20.349 10.9216L20.3705 10.7362L19.8739 10.6786L19.3772 10.6211L19.3557 10.8065L19.8524 10.864ZM19.8739 10.6786L20.3705 10.7362L20.392 10.5507L19.8953 10.4932L19.3987 10.4356L19.3772 10.6211L19.8739 10.6786ZM19.8953 10.4932L20.392 10.5507C20.4091 10.4032 20.4155 10.255 20.4112 10.1065L19.9114 10.121L19.4116 10.1354C19.4145 10.2359 19.4102 10.3359 19.3987 10.4356L19.8953 10.4932ZM19.9114 10.121L20.4112 10.1065L20.4058 9.91979L19.906 9.93424L19.4062 9.94868L19.4116 10.1354L19.9114 10.121ZM19.906 9.93424L20.4058 9.91979L20.4004 9.73306L19.9006 9.7475L19.4009 9.76194L19.4062 9.94868L19.906 9.93424ZM19.9006 9.7475L20.4004 9.73306C20.3957 9.5705 20.3727 9.41021 20.3313 9.25292L19.8477 9.38008L19.3642 9.50723C19.3862 9.59086 19.3984 9.67552 19.4009 9.76194L19.9006 9.7475ZM19.8477 9.38008L20.3313 9.25292L20.2838 9.07224L19.8002 9.19939L19.3167 9.32654L19.3642 9.50723L19.8477 9.38008ZM19.8002 9.19939L20.2838 9.07224L20.2363 8.89155L19.7527 9.01871L19.2691 9.14586L19.3167 9.32654L19.8002 9.19939ZM19.7527 9.01871L20.2363 8.89155C20.1924 8.7246 20.1254 8.56673 20.0357 8.41943L19.6087 8.67947L19.1816 8.93952C19.2206 9.00362 19.2497 9.07189 19.2691 9.14586L19.7527 9.01871ZM19.6087 8.67947L20.0357 8.41943L19.9392 8.26088L19.5121 8.52093L19.0851 8.78097L19.1816 8.93952L19.6087 8.67947ZM19.5121 8.52093L19.9392 8.26088L19.8426 8.10234L19.4156 8.36238L18.9885 8.62243L19.0851 8.78097L19.5121 8.52093ZM19.4156 8.36238L19.8426 8.10234C19.7687 7.98085 19.6884 7.86423 19.6019 7.7526L19.2067 8.05884L18.8114 8.36507C18.8747 8.44677 18.9338 8.53252 18.9885 8.62243L19.4156 8.36238ZM19.2067 8.05884L19.6019 7.7526L19.4896 7.6076L19.0943 7.91383L18.6991 8.22007L18.8114 8.36507L19.2067 8.05884ZM19.0943 7.91383L19.4896 7.6076L19.3772 7.4626L18.982 7.76883L18.5867 8.07507L18.6991 8.22007L19.0943 7.91383ZM18.982 7.76883L19.3772 7.4626C19.302 7.36554 19.2251 7.2666 19.1466 7.16577L18.7522 7.47313L18.3578 7.78048C18.4358 7.8806 18.5121 7.97879 18.5867 8.07507L18.982 7.76883ZM18.7522 7.47313L19.1466 7.16577L19.0291 7.01507L18.6347 7.32242L18.2404 7.62978L18.3578 7.78048L18.7522 7.47313ZM18.6347 7.32242L19.0291 7.01507L18.9117 6.86437L18.5173 7.17172L18.1229 7.47907L18.2404 7.62978L18.6347 7.32242ZM18.5173 7.17172L18.9117 6.86437C18.7747 6.68861 18.5965 6.56018 18.3862 6.48601L18.2199 6.95753L18.0535 7.42905C18.0832 7.43953 18.1033 7.4539 18.1229 7.47907L18.5173 7.17172ZM18.2199 6.95753L18.3862 6.48601L18.2063 6.42253L18.0399 6.89405L17.8736 7.36556L18.0535 7.42905L18.2199 6.95753ZM18.0399 6.89405L18.2063 6.42253L18.0263 6.35904L17.86 6.83056L17.6936 7.30208L17.8736 7.36556L18.0399 6.89405ZM17.86 6.83056L18.0263 6.35904C17.9237 6.32285 17.8247 6.28157 17.7292 6.23526L17.5111 6.68517L17.293 7.13509C17.4227 7.19799 17.5563 7.25363 17.6936 7.30208L17.86 6.83056ZM17.5111 6.68517L17.7292 6.23526L17.5603 6.15336L17.3422 6.60327L17.124 7.05318L17.293 7.13509L17.5111 6.68517ZM17.3422 6.60327L17.5603 6.15336L17.3913 6.07146L17.1732 6.52137L16.9551 6.97128L17.124 7.05318L17.3422 6.60327ZM17.1732 6.52137L17.3913 6.07146C17.2423 5.99919 17.0861 5.94563 16.9236 5.91076L16.8187 6.39963L16.7137 6.88849C16.7988 6.90674 16.8789 6.93435 16.9551 6.97128L17.1732 6.52137ZM16.8187 6.39963L16.9236 5.91076L16.738 5.87092L16.6331 6.35979L16.5281 6.84866L16.7137 6.88849L16.8187 6.39963ZM16.6331 6.35979L16.738 5.87092L16.5524 5.83108L16.4474 6.31995L16.3425 6.80882L16.5281 6.84866L16.6331 6.35979ZM16.4474 6.31995L16.5524 5.83108C16.385 5.79515 16.2151 5.78193 16.0441 5.79141L16.0718 6.29065L16.0994 6.78988C16.1818 6.78531 16.2624 6.79163 16.3425 6.80882L16.4474 6.31995ZM16.0718 6.29065L16.0441 5.79141L15.854 5.80195L15.8817 6.30119L15.9094 6.80042L16.0994 6.78988L16.0718 6.29065ZM15.8817 6.30119L15.854 5.80195L15.664 5.81249L15.6917 6.31172L15.7193 6.81096L15.9094 6.80042L15.8817 6.30119ZM15.6917 6.31172L15.664 5.81249C15.4974 5.82172 15.334 5.85062 15.1748 5.89922L15.3207 6.37746L15.4666 6.8557C15.5485 6.83069 15.6325 6.81577 15.7193 6.81096L15.6917 6.31172ZM15.3207 6.37746L15.1748 5.89922L14.9938 5.95442L15.1397 6.43266L15.2856 6.9109L15.4666 6.8557L15.3207 6.37746ZM15.1397 6.43266L14.9938 5.95442L14.8129 6.00962L14.9588 6.48786L15.1047 6.9661L15.2856 6.9109L15.1397 6.43266ZM14.9588 6.48786L14.8129 6.00962C14.6604 6.05615 14.5141 6.11736 14.3747 6.1933L14.6139 6.63238L14.853 7.07147C14.9323 7.0283 15.016 6.99316 15.1047 6.9661L14.9588 6.48786ZM14.6139 6.63238L14.3747 6.1933L14.2107 6.28263L14.4499 6.72171L14.689 7.1608L14.853 7.07147L14.6139 6.63238ZM14.4499 6.72171L14.2107 6.28263L14.0467 6.37195L14.2859 6.81104L14.525 7.25013L14.689 7.1608L14.4499 6.72171ZM14.2859 6.81104L14.0467 6.37195C13.9209 6.44045 13.7995 6.5157 13.6826 6.59769L13.9696 7.00713L14.2565 7.41656C14.3427 7.35621 14.4321 7.30074 14.525 7.25013L14.2859 6.81104ZM13.9696 7.00713L13.6826 6.59769L13.5303 6.70444L13.8173 7.11388L14.1042 7.52332L14.2565 7.41656L13.9696 7.00713ZM13.8173 7.11388L13.5303 6.70444L13.378 6.8112L13.6649 7.22064L13.9519 7.63007L14.1042 7.52332L13.8173 7.11388ZM13.6649 7.22064L13.378 6.8112C13.3559 6.82669 13.3442 6.83125 13.343 6.83168C13.3427 6.83183 13.345 6.83092 13.35 6.82998C13.355 6.82903 13.3619 6.82817 13.3705 6.82812L13.3731 7.32812L13.3757 7.82811C13.5994 7.82695 13.7943 7.74055 13.9519 7.63007L13.6649 7.22064ZM13.3731 7.32812L13.3705 6.82812L13.2309 6.82885L13.2335 7.32884L13.2361 7.82883L13.3757 7.82811L13.3731 7.32812ZM13.2335 7.32884L13.2309 6.82885L13.0913 6.82957L13.0939 7.32957L13.0965 7.82956L13.2361 7.82883L13.2335 7.32884ZM13.0939 7.32957L13.0913 6.82957C13.1498 6.82927 13.2055 6.84827 13.2467 6.87642C13.2821 6.90063 13.2912 6.92066 13.284 6.90868L12.8558 7.16686L12.4276 7.42503C12.5468 7.62273 12.7652 7.83128 13.0965 7.82956L13.0939 7.32957ZM12.8558 7.16686L13.284 6.90868L13.1854 6.74525L12.7572 7.00342L12.3291 7.26159L12.4276 7.42503L12.8558 7.16686ZM12.7572 7.00342L13.1854 6.74525L13.0869 6.58181L12.6587 6.83998L12.2305 7.09816L12.3291 7.26159L12.7572 7.00342ZM12.6587 6.83998L13.0869 6.58181C12.9909 6.42256 12.8695 6.28372 12.7242 6.16776L12.4123 6.55859L12.1005 6.94942C12.1523 6.99074 12.1951 7.03949 12.2305 7.09816L12.6587 6.83998ZM12.4123 6.55859L12.7242 6.16776L12.5764 6.04981L12.2645 6.44063L11.9526 6.83146L12.1005 6.94942L12.4123 6.55859ZM12.2645 6.44063L12.5764 6.04981L12.4285 5.93185L12.1167 6.32268L11.8048 6.7135L11.9526 6.83146L12.2645 6.44063ZM12.1167 6.32268L12.4285 5.93185C12.317 5.84289 12.2015 5.75975 12.082 5.68248L11.8105 6.10239L11.5391 6.52229C11.6306 6.58147 11.7192 6.64519 11.8048 6.7135L12.1167 6.32268ZM11.8105 6.10239L12.082 5.68248L11.9237 5.58015L11.6522 6.00005L11.3808 6.41996L11.5391 6.52229L11.8105 6.10239ZM11.6522 6.00005L11.9237 5.58015L11.7654 5.47781L11.4939 5.89772L11.2225 6.31763L11.3808 6.41996L11.6522 6.00005ZM11.4939 5.89772L11.7654 5.47781C11.6289 5.38958 11.4841 5.31726 11.3317 5.26125L11.1592 5.73056L10.9868 6.19987C11.0695 6.23029 11.1479 6.26942 11.2225 6.31763L11.4939 5.89772ZM11.1592 5.73056L11.3317 5.26125L11.1553 5.19642L10.9828 5.66573L10.8104 6.13504L10.9868 6.19987L11.1592 5.73056ZM10.9828 5.66573L11.1553 5.19642L10.9789 5.13159L10.8064 5.6009L10.634 6.07021L10.8104 6.13504L10.9828 5.66573ZM10.8064 5.6009L10.9789 5.13159C10.8602 5.08797 10.7422 5.04509 10.625 5.00297L10.4559 5.47351L10.2868 5.94405C10.4018 5.98535 10.5175 6.0274 10.634 6.07021L10.8064 5.6009ZM10.4559 5.47351L10.625 5.00297L10.4509 4.9404L10.2818 5.41094L10.1127 5.88148L10.2868 5.94405L10.4559 5.47351ZM10.2818 5.41094L10.4509 4.9404L10.2768 4.87783L10.1077 5.34837L9.93861 5.81891L10.1127 5.88148L10.2818 5.41094ZM10.1077 5.34837L10.2768 4.87783C10.1517 4.83287 10.025 4.7914 9.89669 4.75341L9.75471 5.23283L9.61274 5.71225C9.72294 5.74488 9.83156 5.78044 9.93861 5.81891L10.1077 5.34837ZM9.75471 5.23283L9.89669 4.75341L9.71782 4.70044L9.57585 5.17986L9.43388 5.65928L9.61274 5.71225L9.75471 5.23283ZM9.57585 5.17986L9.71782 4.70044L9.53896 4.64747L9.39698 5.12689L9.25501 5.60631L9.43388 5.65928L9.57585 5.17986ZM9.39698 5.12689L9.53896 4.64747C9.38725 4.60255 9.23225 4.5733 9.07447 4.55979L9.03181 5.05797L8.98915 5.55615C9.07978 5.56391 9.16823 5.58061 9.25501 5.60631L9.39698 5.12689ZM9.03181 5.05797L9.07447 4.55979L8.88817 4.54384L8.84551 5.04201L8.80285 5.54019L8.98915 5.55615L9.03181 5.05797ZM8.84551 5.04201L8.88817 4.54384L8.70187 4.52788L8.65921 5.02606L8.61655 5.52424L8.80285 5.54019L8.84551 5.04201ZM8.65921 5.02606L8.70187 4.52788C8.54798 4.51471 8.39403 4.51531 8.24036 4.52972L8.28705 5.02754L8.33373 5.52535C8.42788 5.51652 8.52203 5.51614 8.61655 5.52424L8.65921 5.02606ZM8.28705 5.02754L8.24036 4.52972L8.0545 4.54715L8.10119 5.04497L8.14788 5.54278L8.33373 5.52535L8.28705 5.02754ZM8.10119 5.04497L8.0545 4.54715L7.86864 4.56458L7.91533 5.0624L7.96202 5.56022L8.14788 5.54278L8.10119 5.04497ZM7.91533 5.0624L7.86864 4.56458C7.71729 4.57878 7.56819 4.60534 7.42164 4.64428L7.55006 5.12751L7.67848 5.61074C7.77114 5.58611 7.86556 5.56926 7.96202 5.56022L7.91533 5.0624ZM7.55006 5.12751L7.42164 4.64428L7.24222 4.69196L7.37064 5.17519L7.49906 5.65842L7.67848 5.61074L7.55006 5.12751ZM7.37064 5.17519L7.24222 4.69196L7.06281 4.73964L7.19123 5.22287L7.31965 5.7061L7.49906 5.65842L7.37064 5.17519ZM7.19123 5.22287L7.06281 4.73964C6.93712 4.77305 6.81179 4.80889 6.68685 4.84717L6.83333 5.32524L6.97981 5.8033C7.09284 5.76867 7.20612 5.73627 7.31965 5.7061L7.19123 5.22287ZM6.83333 5.32524L6.68685 4.84717L6.50836 4.90186L6.65484 5.37993L6.80132 5.85799L6.97981 5.8033L6.83333 5.32524ZM6.65484 5.37993L6.50836 4.90186L6.32988 4.95655L6.47635 5.43461L6.62283 5.91268L6.80132 5.85799L6.65484 5.37993ZM6.47635 5.43461L6.32988 4.95655C6.18582 5.00069 6.04535 5.05608 5.90862 5.12243L6.12691 5.57226L6.3452 6.02209C6.43641 5.97783 6.52891 5.94145 6.62283 5.91268L6.47635 5.43461ZM6.12691 5.57226L5.90862 5.12243L5.73767 5.20539L5.95596 5.65522L6.17424 6.10505L6.3452 6.02209L6.12691 5.57226ZM5.95596 5.65522L5.73767 5.20539L5.56671 5.28834L5.785 5.73818L6.00329 6.18801L6.17424 6.10505L5.95596 5.65522ZM5.785 5.73818L5.56671 5.28834C5.38275 5.37761 5.22618 5.50532 5.10147 5.66718L5.49755 5.97234L5.89363 6.2775C5.92425 6.23775 5.95931 6.20935 6.00329 6.18801L5.785 5.73818ZM5.49755 5.97234L5.10147 5.66718L4.98498 5.81838L5.38106 6.12354L5.77714 6.4287L5.89363 6.2775L5.49755 5.97234ZM5.38106 6.12354L4.98498 5.81838L4.86849 5.96957L5.26457 6.27473L5.66064 6.5799L5.77714 6.4287L5.38106 6.12354ZM5.26457 6.27473L4.86849 5.96957C4.79085 6.07034 4.71454 6.16937 4.63956 6.26664L5.03556 6.5719L5.43157 6.87715C5.5066 6.77981 5.58296 6.68072 5.66064 6.5799L5.26457 6.27473ZM5.03556 6.5719L4.63956 6.26664L4.52705 6.4126L4.92305 6.71786L5.31906 7.02311L5.43157 6.87715L5.03556 6.5719ZM4.92305 6.71786L4.52705 6.4126L4.41453 6.55857L4.81054 6.86382L5.20655 7.16907L5.31906 7.02311L4.92305 6.71786ZM4.81054 6.86382L4.41453 6.55857C4.32166 6.67905 4.23993 6.80686 4.16953 6.9417L4.61276 7.1731L5.05599 7.4045C5.09929 7.32158 5.14941 7.2432 5.20655 7.16907L4.81054 6.86382ZM4.61276 7.1731L4.16953 6.9417L4.08426 7.10503L4.5275 7.33643L4.97073 7.56783L5.05599 7.4045L4.61276 7.1731ZM4.5275 7.33643L4.08426 7.10503L3.999 7.26835L4.44223 7.49975L4.88546 7.73115L4.97073 7.56783L4.5275 7.33643ZM4.44223 7.49975L3.999 7.26835C3.93831 7.3846 3.88019 7.50298 3.82464 7.62346L4.27871 7.8328L4.73278 8.04214C4.78156 7.93633 4.83246 7.83267 4.88546 7.73115L4.44223 7.49975ZM4.27871 7.8328L3.82464 7.62346L3.74639 7.79319L4.20046 8.00253L4.65453 8.21187L4.73278 8.04214L4.27871 7.8328ZM4.20046 8.00253L3.74639 7.79319L3.66815 7.96292L4.12221 8.17226L4.57628 8.3816L4.65453 8.21187L4.20046 8.00253ZM4.12221 8.17226L3.66815 7.96292C3.60342 8.10331 3.55172 8.24852 3.51316 8.39821L3.99736 8.52292L4.48155 8.64764C4.50514 8.55607 4.53667 8.46751 4.57628 8.3816L4.12221 8.17226ZM3.99736 8.52292L3.51316 8.39821L3.46656 8.57915L3.95075 8.70387L4.43495 8.82858L4.48155 8.64764L3.99736 8.52292ZM3.95075 8.70387L3.46656 8.57915L3.41995 8.76009L3.90415 8.88481L4.38834 9.00952L4.43495 8.82858L3.95075 8.70387ZM3.90415 8.88481L3.41995 8.76009C3.37888 8.91957 3.35728 9.08221 3.3551 9.24716L3.85506 9.25377L4.35501 9.26039C4.35615 9.17464 4.36728 9.0913 4.38834 9.00952L3.90415 8.88481ZM3.85506 9.25377L3.3551 9.24716L3.35261 9.43518L3.85257 9.4418L4.35252 9.44841L4.35501 9.26039L3.85506 9.25377ZM3.85257 9.4418L3.35261 9.43518L3.35012 9.62321L3.85008 9.62982L4.35004 9.63643L4.35252 9.44841L3.85257 9.4418ZM3.85008 9.62982L3.35012 9.62321C3.3487 9.7307 3.34153 9.83826 3.32858 9.94596L3.825 10.0057L4.32143 10.0654C4.33859 9.92264 4.34814 9.77964 4.35004 9.63643L3.85008 9.62982ZM3.825 10.0057L3.32858 9.94596L3.30599 10.1338L3.80241 10.1935L4.29884 10.2532L4.32143 10.0654L3.825 10.0057ZM3.80241 10.1935L3.30599 10.1338L3.2834 10.3216L3.77982 10.3813L4.27625 10.441L4.29884 10.2532L3.80241 10.1935ZM3.77982 10.3813L3.2834 10.3216C3.26821 10.4479 3.25445 10.5658 3.24211 10.6753L3.73897 10.7313L4.23583 10.7872C4.24784 10.6806 4.26131 10.5652 4.27625 10.441L3.77982 10.3813ZM3.73897 10.7313L3.24211 10.6753L3.22385 10.8374L3.72071 10.8934L4.21757 10.9494L4.23583 10.7872L3.73897 10.7313ZM3.72071 10.8934L3.22385 10.8374L3.20559 10.9996L3.70245 11.0555L4.19931 11.1115L4.21757 10.9494L3.72071 10.8934ZM3.70245 11.0555L3.20559 10.9996C3.21021 10.9586 3.23071 10.8956 3.28385 10.8407C3.33232 10.7907 3.37765 10.7788 3.38035 10.7781L3.50129 11.2633L3.62224 11.7484C3.74687 11.7173 3.88669 11.6557 4.00222 11.5364C4.12241 11.4122 4.18253 11.2605 4.19931 11.1115L3.70245 11.0555ZM3.50129 11.2633L3.38035 10.7781L3.19744 10.8237L3.31839 11.3089L3.43934 11.794L3.62224 11.7484L3.50129 11.2633ZM3.31839 11.3089L3.19744 10.8237L3.01454 10.8693L3.13549 11.3545L3.25644 11.8396L3.43934 11.794L3.31839 11.3089ZM3.13549 11.3545L3.01454 10.8693C2.81053 10.9202 2.62802 11.0191 2.47403 11.1622L2.81437 11.5285L3.15471 11.8948C3.18501 11.8666 3.21658 11.8495 3.25644 11.8396L3.13549 11.3545ZM2.81437 11.5285L2.47403 11.1622L2.33581 11.2906L2.67615 11.6569L3.01649 12.0232L3.15471 11.8948L2.81437 11.5285ZM2.67615 11.6569L2.33581 11.2906L2.19759 11.419L2.53793 11.7853L2.87827 12.1516L3.01649 12.0232L2.67615 11.6569ZM2.53793 11.7853L2.19759 11.419C2.09841 11.5112 2.00288 11.6053 1.91106 11.7013L2.27242 12.0469L2.63379 12.3924C2.71168 12.311 2.79316 12.2307 2.87827 12.1516L2.53793 11.7853ZM2.27242 12.0469L1.91106 11.7013L1.78377 11.8344L2.14513 12.18L2.5065 12.5255L2.63379 12.3924L2.27242 12.0469ZM2.14513 12.18L1.78377 11.8344L1.65648 11.9675L2.01784 12.3131L2.37921 12.6587L2.5065 12.5255L2.14513 12.18ZM2.01784 12.3131L1.65648 11.9675C1.5657 12.0624 1.4762 12.1609 1.38795 12.2629L1.76606 12.5901L2.14416 12.9172C2.22191 12.8274 2.30026 12.7412 2.37921 12.6587L2.01784 12.3131ZM1.76606 12.5901L1.38795 12.2629L1.26346 12.4068L1.64156 12.734L2.01967 13.0611L2.14416 12.9172L1.76606 12.5901ZM1.64156 12.734L1.26346 12.4068L1.13896 12.5507L1.51707 12.8778L1.89517 13.205L2.01967 13.0611L1.64156 12.734ZM1.51707 12.8778L1.13896 12.5507C1.01792 12.6906 0.923677 12.848 0.857547 13.0208L1.32451 13.1995L1.79147 13.3783C1.81609 13.3139 1.85022 13.257 1.89517 13.205L1.51707 12.8778ZM1.32451 13.1995L0.857547 13.0208L0.789484 13.1986L1.25644 13.3773L1.7234 13.5561L1.79147 13.3783L1.32451 13.1995ZM1.25644 13.3773L0.789484 13.1986L0.721421 13.3764L1.18838 13.5552L1.65534 13.7339L1.7234 13.5561L1.25644 13.3773ZM1.18838 13.5552L0.721421 13.3764C0.656081 13.5471 0.620325 13.725 0.614615 13.9076L1.11437 13.9233L1.61413 13.9389C1.61635 13.8678 1.62993 13.8003 1.65534 13.7339L1.18838 13.5552ZM1.11437 13.9233L0.614615 13.9076L0.608667 14.0979L1.10842 14.1136L1.60818 14.1292L1.61413 13.9389L1.11437 13.9233ZM1.10842 14.1136L0.608667 14.0979L0.60272 14.2882L1.10248 14.3039L1.60223 14.3195L1.60818 14.1292L1.10842 14.1136ZM1.10248 14.3039L0.60272 14.2882C0.598787 14.4141 0.594523 14.538 0.589929 14.66L1.08958 14.6788L1.58922 14.6976C1.5939 14.5734 1.59823 14.4474 1.60223 14.3195L1.10248 14.3039ZM1.08958 14.6788L0.589929 14.66L0.582977 14.8446L1.08262 14.8634L1.58227 14.8823L1.58922 14.6976L1.08958 14.6788ZM1.08262 14.8634L0.582977 14.8446L0.576024 15.0293L1.07567 15.0481L1.57532 15.0669L1.58227 14.8823L1.08262 14.8634ZM1.07567 15.0481L0.576024 15.0293C0.570435 15.1777 0.576124 15.3258 0.593088 15.4733L1.08982 15.4162L1.58654 15.3591C1.57538 15.262 1.57163 15.1647 1.57532 15.0669L1.07567 15.0481ZM1.08982 15.4162L0.593088 15.4733L0.614187 15.6568L1.11091 15.5997L1.60764 15.5426L1.58654 15.3591L1.08982 15.4162ZM1.11091 15.5997L0.614187 15.6568L0.635285 15.8403L1.13201 15.7832L1.62874 15.7261L1.60764 15.5426L1.11091 15.5997ZM1.13201 15.7832L0.635285 15.8403C0.651627 15.9824 0.676432 16.1235 0.709624 16.2634L1.19611 16.1479L1.6826 16.0325C1.65846 15.9307 1.64053 15.8286 1.62874 15.7261L1.13201 15.7832ZM1.19611 16.1479L0.709624 16.2634L0.752627 16.4446L1.23912 16.3291L1.72561 16.2137L1.6826 16.0325L1.19611 16.1479ZM1.23912 16.3291L0.752627 16.4446L0.795631 16.6258L1.28212 16.5104L1.76861 16.3949L1.72561 16.2137L1.23912 16.3291ZM1.28212 16.5104L0.795631 16.6258C0.837033 16.8003 0.906032 16.9644 1.00182 17.1159L1.42449 16.8488L1.84717 16.5817C1.81046 16.5236 1.78455 16.4621 1.76861 16.3949L1.28212 16.5104ZM1.42449 16.8488L1.00182 17.1159L1.10119 17.2732L1.52386 17.0061L1.94654 16.739L1.84717 16.5817L1.42449 16.8488ZM1.52386 17.0061L1.10119 17.2732L1.20056 17.4304L1.62323 17.1633L2.04591 16.8962L1.94654 16.739L1.52386 17.0061ZM1.62323 17.1633L1.20056 17.4304C1.26963 17.5397 1.34094 17.6487 1.41448 17.7575L1.82863 17.4773L2.24277 17.1972C2.17495 17.0969 2.10933 16.9966 2.04591 16.8962L1.62323 17.1633ZM1.82863 17.4773L1.41448 17.7575L1.52051 17.9142L1.93466 17.634L2.3488 17.3539L2.24277 17.1972L1.82863 17.4773ZM1.93466 17.634L1.52051 17.9142L1.62654 18.0709L2.04068 17.7908L2.45483 17.5106L2.3488 17.3539L1.93466 17.634ZM2.04068 17.7908L1.62654 18.0709C1.73895 18.2371 1.88367 18.3729 2.05667 18.4745L2.30987 18.0433L2.56307 17.6122C2.51852 17.586 2.48378 17.5534 2.45483 17.5106L2.04068 17.7908ZM2.30987 18.0433L2.05667 18.4745L2.21984 18.5703L2.47304 18.1392L2.72624 17.708L2.56307 17.6122L2.30987 18.0433ZM2.47304 18.1392L2.21984 18.5703L2.383 18.6661L2.63621 18.235L2.88941 17.8038L2.72624 17.708L2.47304 18.1392ZM2.63621 18.235L2.383 18.6661C2.52864 18.7517 2.68296 18.8174 2.84513 18.8624L2.97883 18.3806L3.11253 17.8988C3.03543 17.8774 2.96133 17.8461 2.88941 17.8038L2.63621 18.235ZM2.97883 18.3806L2.84513 18.8624L3.02459 18.9122L3.15829 18.4304L3.292 17.9486L3.11253 17.8988L2.97883 18.3806ZM3.15829 18.4304L3.02459 18.9122L3.20405 18.962L3.33775 18.4802L3.47146 17.9984L3.292 17.9486L3.15829 18.4304ZM3.33775 18.4802L3.20405 18.962C3.32525 18.9956 3.44673 19.0287 3.5685 19.0612L3.69754 18.5782L3.82658 18.0951C3.70791 18.0634 3.58954 18.0312 3.47146 17.9984L3.33775 18.4802ZM3.69754 18.5782L3.5685 19.0612L3.74883 19.1094L3.87786 18.6264L4.0069 18.1433L3.82658 18.0951L3.69754 18.5782ZM3.87786 18.6264L3.74883 19.1094L3.92915 19.1576L4.05819 18.6745L4.18722 18.1915L4.0069 18.1433L3.87786 18.6264ZM4.05819 18.6745L3.92915 19.1576C4.05762 19.1919 4.19416 19.2215 4.31596 19.2255L4.33253 18.7258L4.3491 18.2261C4.35196 18.2262 4.34035 18.2258 4.30882 18.2199C4.27893 18.2144 4.23886 18.2053 4.18722 18.1915L4.05819 18.6745ZM4.33253 18.7258L4.31596 19.2255L4.40997 19.2287L4.42654 18.7289L4.44311 18.2292L4.3491 18.2261L4.33253 18.7258ZM4.42654 18.7289L4.40997 19.2287L4.50398 19.2318L4.52055 18.732L4.53713 18.2323L4.44311 18.2292L4.42654 18.7289ZM4.52055 18.732L4.50398 19.2318C4.59857 19.2349 4.71743 19.2279 4.84691 19.2163L4.80207 18.7183L4.75722 18.2203C4.6367 18.2311 4.56789 18.2333 4.53713 18.2323L4.52055 18.732ZM4.80207 18.7183L4.84691 19.2163L5.03441 19.1994L4.98957 18.7014L4.94472 18.2034L4.75722 18.2203L4.80207 18.7183Z" fill="#1F97C6"/>
</svg>
