<svg width="24" height="24" viewBox="0 0 24 24" fill="none" xmlns="http://www.w3.org/2000/svg">
<path d="M1.01354 7.68876C0.932142 11.4869 1.19402 13.7185 2.45527 17.9611H21.5583C22.754 14.3779 22.9384 12.3643 23 8.77007C20.4035 9.38192 18.9887 9.93063 16.5122 11.2931C14.9674 9.31113 13.9841 8.23427 11.8266 6.42725C10.1316 7.80884 9.11194 8.83727 7.14091 11.2931C5.22367 9.70131 3.88577 8.90777 1.01354 7.68876Z" fill="#FFD93B"/>
<path d="M2.3679 17.5957L2.85419 17.4794L2.3679 17.5957ZM2.10851 16.6945L2.58457 16.5417L2.10851 16.6945ZM1.97646 16.1483L2.46645 16.0487L1.97646 16.1483ZM1.93911 15.9645L1.44913 16.0641L1.93911 15.9645ZM1.82831 15.6055L2.28942 15.4122L1.82831 15.6055ZM1.75485 15.4303L1.29374 15.6236L1.75485 15.4303ZM1.6814 15.2551L1.22028 15.4484L1.6814 15.2551ZM1.56615 14.8965L1.07866 15.0076L1.56615 14.8965ZM1.42225 14.1589L0.924671 14.2081L1.42225 14.1589ZM1.33371 13.4115L0.841491 13.4994L1.33371 13.4115ZM1.26777 13.0421L1.75999 12.9542L1.26777 13.0421ZM1.1999 12.6725L0.708579 12.7652L1.1999 12.6725ZM1.05634 10.8023L0.559567 10.859L1.05634 10.8023ZM1.03953 8.92869L0.544093 8.99609L1.03953 8.92869ZM0.988483 8.55351L0.493047 8.62092L0.988483 8.55351ZM0.99229 8.20428L0.500323 8.11501L0.99229 8.20428ZM1.2566 7.7838L1.08496 8.25342L1.2566 7.7838ZM1.60924 7.91269L1.4376 8.38231L1.60924 7.91269ZM1.95753 8.05252L1.75678 8.51045L1.95753 8.05252ZM2.30146 8.20329L2.50221 7.74536L2.30146 8.20329ZM2.6394 8.36656L2.87337 7.92468L2.6394 8.36656ZM3.29464 8.73396L3.56992 8.31657L3.29464 8.73396ZM3.93282 9.13113L4.16235 8.68693L3.93282 9.13113ZM4.26514 9.30285L4.03561 9.74705L4.26514 9.30285ZM4.75223 9.58143L5.00964 9.15277L4.75223 9.58143ZM4.9127 9.67778L4.6553 10.1064L4.9127 9.67778ZM5.23467 9.86999L5.48985 9.44001L5.23467 9.86999ZM5.55769 10.0617L5.3025 10.4917L5.55769 10.0617ZM5.85893 10.2837L6.19395 9.91252L5.85893 10.2837ZM6.13839 10.5359L5.80336 10.9071L6.13839 10.5359ZM6.43332 10.7677L6.15189 11.181L6.43332 10.7677ZM6.74371 10.9791L7.02514 10.5658L6.74371 10.9791ZM7.03087 11.0556L6.92282 10.5674L7.03087 11.0556ZM7.29479 10.9972L7.40283 11.4854L7.29479 10.9972ZM7.68229 10.6931L8.0485 11.0335L7.68229 10.6931ZM7.81006 10.5556L7.44385 10.2152L7.81006 10.5556ZM8.05698 10.2737L8.44271 10.5918L8.05698 10.2737ZM8.17612 10.1293L7.79039 9.81112L8.17612 10.1293ZM8.29527 9.98479L7.90953 9.66666L8.29527 9.98479ZM8.53669 9.69866L8.15819 9.37196L8.53669 9.69866ZM8.78126 9.41532L8.40276 9.08862L8.78126 9.41532ZM9.0264 9.13236L9.4037 9.46045L9.0264 9.13236ZM9.27211 8.84979L8.8948 8.52171L9.27211 8.84979ZM9.52277 8.57165L9.15736 8.23037L9.52277 8.57165ZM9.65058 8.4348L10.016 8.77607L9.65058 8.4348ZM9.7784 8.29794L10.1438 8.63922L9.7784 8.29794ZM10.0368 8.02652L9.67797 7.67832L10.0368 8.02652ZM10.298 7.75738L10.6568 8.10558L10.298 7.75738ZM10.8189 7.21464L10.4576 6.86905L10.8189 7.21464ZM11.1016 6.96829L10.8087 6.5631L11.1016 6.96829ZM11.4067 6.7477L11.6997 7.15289L11.4067 6.7477ZM11.6965 6.66078L11.6126 7.15369L11.6965 6.66078ZM11.8338 6.68416L11.9177 6.19125L11.8338 6.68416ZM12.2502 6.85312L12.5766 6.47435L12.2502 6.85312ZM12.392 6.97534L12.0656 7.35411L12.392 6.97534ZM12.5338 7.09755L12.2074 7.47632L12.5338 7.09755ZM12.8096 7.35051L13.1588 6.99273L12.8096 7.35051ZM13.0774 7.61201L12.7282 7.96979L13.0774 7.61201ZM13.3672 7.85072L13.652 7.43974L13.3672 7.85072ZM13.523 7.95869L13.8078 7.54771L13.523 7.95869ZM13.6788 8.06665L13.9636 7.65567L13.6788 8.06665ZM13.9486 8.32546L14.3475 8.02408L13.9486 8.32546ZM14.0625 8.4763L13.6636 8.77768L14.0625 8.4763ZM14.1765 8.62714L13.7775 8.92852L14.1765 8.62714ZM14.4271 8.90638L14.7694 8.54199L14.4271 8.90638ZM14.5637 9.03479L14.2214 9.39918L14.5637 9.03479ZM14.7004 9.16319L15.0428 8.79879L14.7004 9.16319ZM14.9592 9.43361L14.5801 9.75962L14.9592 9.43361ZM15.2035 9.71765L15.5826 9.39164L15.2035 9.71765ZM15.4469 10.0026L15.8282 9.67916L15.4469 10.0026ZM15.5682 10.1456L15.9494 9.82211L15.5682 10.1456ZM15.6894 10.2885L16.0707 9.96506L15.6894 10.2885ZM15.9425 10.5661L15.5852 10.9158L15.9425 10.5661ZM16.206 10.8353L16.5633 10.4856L16.206 10.8353ZM16.4591 10.9897L16.379 11.4832L16.4591 10.9897ZM16.7018 11.0291L16.6217 11.5226L16.7018 11.0291ZM16.991 10.9647L17.215 11.4118L16.991 10.9647ZM17.1589 10.8806L17.3828 11.3277L17.1589 10.8806ZM17.3268 10.7965L17.1029 10.3495L17.3268 10.7965ZM17.6627 10.6288L17.8854 11.0765L17.6627 10.6288ZM17.8307 10.5452L18.0535 10.9929L17.8307 10.5452ZM17.9987 10.4616L17.776 10.014L17.9987 10.4616ZM18.3387 10.3023L18.5401 10.76L18.3387 10.3023ZM18.6826 10.151L18.4812 9.69335L18.6826 10.151ZM19.0249 9.99562L19.2368 10.4485L19.0249 9.99562ZM19.3654 9.83625L19.5773 10.2891L19.3654 9.83625ZM19.7168 9.70484L19.8541 10.1856L19.7168 9.70484ZM19.8979 9.65311L19.7606 9.17233L19.8979 9.65311ZM20.0791 9.60138L20.2164 10.0822L20.0791 9.60138ZM20.4377 9.48957L20.598 9.96319L20.4377 9.48957ZM20.7928 9.36941L20.6325 8.8958L20.7928 9.36941ZM21.1478 9.24759L20.9835 8.77536L21.1478 9.24759ZM21.3252 9.18585L21.4895 9.65809L21.3252 9.18585ZM21.5027 9.12411L21.667 9.59635L21.5027 9.12411ZM21.8636 9.02232L21.9702 9.51081L21.8636 9.02232ZM22.2303 8.94223L22.337 9.43072L22.2303 8.94223ZM22.5746 8.90718L22.5591 9.40694L22.5746 8.90718ZM22.8964 8.91717L22.9119 8.41741L22.8964 8.91717ZM23.0356 9.10916L23.5322 9.16695L23.0356 9.10916ZM23.0138 9.29616L23.5104 9.35395L23.0138 9.29616ZM22.992 9.48316L22.4954 9.42537L22.992 9.48316ZM22.9625 9.85743L22.4629 9.8367L22.9625 9.85743ZM22.947 10.232L22.4474 10.2112L22.947 10.232ZM22.9333 10.6066L22.4335 10.5908L22.9333 10.6066ZM22.9214 10.9812L23.4212 10.997L22.9214 10.9812ZM22.8967 11.3551L22.3992 11.3049L22.8967 11.3551ZM22.859 11.7282L23.3565 11.7784L22.859 11.7282ZM22.8281 12.1018L22.3291 12.0695L22.8281 12.1018ZM22.8039 12.4758L23.3028 12.5081L22.8039 12.4758ZM22.7878 12.8517L23.2877 12.8623L22.7878 12.8517ZM22.7797 13.2293L22.2798 13.2186L22.7797 13.2293ZM22.7378 13.6024L22.248 13.5016L22.7378 13.6024ZM22.6998 13.7868L23.1895 13.8876L22.6998 13.7868ZM22.6619 13.9711L23.1516 14.0719L22.6619 13.9711ZM22.5771 14.3374L23.0613 14.4621L22.5771 14.3374ZM22.5302 14.5193L23.0144 14.6441L22.5302 14.5193ZM22.4833 14.7013L21.9991 14.5766L22.4833 14.7013ZM22.3972 15.0667L21.9083 14.962L22.3972 15.0667ZM22.3186 15.4336L22.8075 15.5383L22.3186 15.4336ZM22.2352 15.7996L22.7212 15.9171L22.2352 15.7996ZM22.1469 16.1647L21.6609 16.0473L22.1469 16.1647ZM22.0481 16.5268L22.5265 16.6725L22.0481 16.5268ZM21.9388 16.8859L21.4605 16.7403L21.9388 16.8859ZM21.8189 17.2414L21.3501 17.0674L21.8189 17.2414ZM21.6883 17.5933L22.157 17.7673L21.6883 17.5933ZM21.4696 17.83L21.6539 18.2948L21.4696 17.83ZM21.3162 17.8909L21.1319 17.4261L21.3162 17.8909ZM21.1629 17.9517L20.9785 17.4869L21.1629 17.9517ZM20.822 18.0122L20.8229 17.5122L20.822 18.0122ZM20.447 18.0115L20.4461 18.5115L20.447 18.0115ZM20.072 17.9913L20.0194 18.4885L20.072 17.9913ZM19.697 17.9516L19.7497 17.4544L19.697 17.9516ZM19.322 17.9273L19.31 18.4271L19.322 17.9273ZM19.1345 17.9227L19.1466 17.4229L19.1345 17.9227ZM18.947 17.9182L18.9591 17.4184L18.947 17.9182ZM18.197 17.8967L18.182 18.3965L18.197 17.8967ZM17.822 17.9121L17.8778 18.409L17.822 17.9121ZM17.447 17.9542L17.3913 17.4573L17.447 17.9542ZM17.072 17.9774L17.0776 18.4773L17.072 17.9774ZM16.697 17.9815L16.6914 17.4816L16.697 17.9815ZM16.1345 17.9778L16.1267 18.4777L16.1345 17.9778ZM15.947 17.9748L15.9549 17.4749L15.947 17.9748ZM15.572 17.963L15.5956 17.4636L15.572 17.963ZM15.3845 17.9542L15.3609 18.4536L15.3845 17.9542ZM15.197 17.9453L15.2206 17.4459L15.197 17.9453ZM14.822 17.9511L14.861 18.4496L14.822 17.9511ZM14.447 17.9804L14.486 18.4789L14.447 17.9804ZM14.072 18.0014L14.0552 17.5017L14.072 18.0014ZM13.697 18.0141L13.7139 18.5138L13.697 18.0141ZM13.322 18.0045L13.3645 17.5063L13.322 18.0045ZM13.1345 17.9885L13.0921 18.4867L13.1345 17.9885ZM12.947 17.9725L12.9046 18.4707L12.947 17.9725ZM12.572 17.9414L12.5317 18.4397L12.572 17.9414ZM12.197 17.911L12.2374 17.4127L12.197 17.911ZM11.822 17.9073L11.7916 17.4082L11.822 17.9073ZM11.447 17.9301L11.4774 18.4292L11.447 17.9301ZM11.072 17.9438L11.066 17.4439L11.072 17.9438ZM10.697 17.9484L10.7031 18.4483L10.697 17.9484ZM10.322 17.9469L10.3318 17.447L10.322 17.9469ZM9.94703 17.9396L9.93724 18.4395L9.94703 17.9396ZM9.57203 17.9382L9.57809 18.4382L9.57203 17.9382ZM9.19703 17.9427L9.19097 17.4428L9.19703 17.9427ZM8.82203 17.9569L8.85369 18.4559L8.82203 17.9569ZM8.63453 17.9688L8.60288 17.4698L8.63453 17.9688ZM8.44703 17.9807L8.47869 18.4797L8.44703 17.9807ZM7.32203 17.9961L7.36483 17.4979L7.32203 17.9961ZM6.94703 17.9638L6.90423 18.462L6.94703 17.9638ZM6.57203 17.9707L6.63288 18.467L6.57203 17.9707ZM6.19703 18.0167L6.13618 17.5204L6.19703 18.0167ZM5.82203 18.0337L5.80599 18.5334L5.82203 18.0337ZM5.44703 18.0216L5.46307 17.5219L5.44703 18.0216ZM4.32203 17.9915L4.31043 17.4917L4.32203 17.9915ZM3.94703 18.0003L3.93543 17.5004L3.94703 18.0003ZM3.57203 18.0101L3.55739 17.5103L3.57203 18.0101ZM3.19703 18.0211L3.21167 18.5209L3.19703 18.0211ZM2.87097 18.0102L2.81234 18.5068L2.87097 18.0102ZM2.59384 17.9775L2.65247 17.4809L2.59384 17.9775ZM2.41159 17.7784L1.9253 17.8947L2.41159 17.7784ZM2.3679 17.5957L2.85419 17.4794L2.8105 17.2968L2.32421 17.413L1.83792 17.5293L1.88161 17.712L2.3679 17.5957ZM2.32421 17.413L2.8105 17.2968C2.77844 17.1627 2.74135 17.03 2.69925 16.8989L2.22318 17.0517L1.74712 17.2046C1.78147 17.3116 1.81174 17.4198 1.83792 17.5293L2.32421 17.413ZM2.22318 17.0517L2.69925 16.8989L2.64191 16.7203L2.16584 16.8731L1.68978 17.026L1.74712 17.2046L2.22318 17.0517ZM2.16584 16.8731L2.64191 16.7203L2.58457 16.5417L2.10851 16.6945L1.63244 16.8474L1.68978 17.026L2.16584 16.8731ZM2.10851 16.6945L2.58457 16.5417C2.55196 16.4401 2.52504 16.3371 2.5038 16.2326L2.01381 16.3321L1.52383 16.4317C1.55239 16.5722 1.5886 16.7108 1.63244 16.8474L2.10851 16.6945ZM2.01381 16.3321L2.5038 16.2326L2.46645 16.0487L1.97646 16.1483L1.48648 16.2479L1.52383 16.4317L2.01381 16.3321ZM1.97646 16.1483L2.46645 16.0487L2.4291 15.8649L1.93911 15.9645L1.44913 16.0641L1.48648 16.2479L1.97646 16.1483ZM1.93911 15.9645L2.4291 15.8649C2.39759 15.7099 2.3509 15.5588 2.28942 15.4122L1.82831 15.6055L1.36719 15.7988C1.40365 15.8858 1.43084 15.974 1.44913 16.0641L1.93911 15.9645ZM1.82831 15.6055L2.28942 15.4122L2.21597 15.2369L1.75485 15.4303L1.29374 15.6236L1.36719 15.7988L1.82831 15.6055ZM1.75485 15.4303L2.21597 15.2369L2.14252 15.0617L1.6814 15.2551L1.22028 15.4484L1.29374 15.6236L1.75485 15.4303ZM1.6814 15.2551L2.14252 15.0617C2.10458 14.9712 2.07504 14.8792 2.05365 14.7854L1.56615 14.8965L1.07866 15.0076C1.11299 15.1583 1.16028 15.3053 1.22028 15.4484L1.6814 15.2551ZM1.56615 14.8965L2.05365 14.7854L2.01185 14.602L1.52436 14.7132L1.03686 14.8243L1.07866 15.0076L1.56615 14.8965ZM1.52436 14.7132L2.01185 14.602L1.97006 14.4187L1.48257 14.5298L0.995071 14.6409L1.03686 14.8243L1.52436 14.7132ZM1.48257 14.5298L1.97006 14.4187C1.94687 14.3169 1.93012 14.214 1.91983 14.1098L1.42225 14.1589L0.924671 14.2081C0.939074 14.3539 0.962542 14.4982 0.995071 14.6409L1.48257 14.5298ZM1.42225 14.1589L1.91983 14.1098L1.90131 13.9222L1.40373 13.9714L0.906148 14.0205L0.924671 14.2081L1.42225 14.1589ZM1.40373 13.9714L1.90131 13.9222L1.88278 13.7347L1.38521 13.7838L0.887626 13.8329L0.906148 14.0205L1.40373 13.9714ZM1.38521 13.7838L1.88278 13.7347C1.86916 13.5967 1.85021 13.4597 1.82593 13.3237L1.33371 13.4115L0.841491 13.4994C0.861171 13.6096 0.876553 13.7208 0.887626 13.8329L1.38521 13.7838ZM1.33371 13.4115L1.82593 13.3237L1.79296 13.1389L1.30074 13.2268L0.80852 13.3147L0.841491 13.4994L1.33371 13.4115ZM1.30074 13.2268L1.79296 13.1389L1.75999 12.9542L1.26777 13.0421L0.775549 13.1299L0.80852 13.3147L1.30074 13.2268ZM1.26777 13.0421L1.75999 12.9542C1.73772 12.8294 1.7148 12.7046 1.69122 12.5797L1.1999 12.6725L0.708579 12.7652C0.731538 12.8868 0.753861 13.0084 0.775549 13.1299L1.26777 13.0421ZM1.1999 12.6725L1.69122 12.5797L1.65632 12.3949L1.165 12.4876L0.67368 12.5804L0.708579 12.7652L1.1999 12.6725ZM1.165 12.4876L1.65632 12.3949L1.62142 12.21L1.1301 12.3027L0.638781 12.3955L0.67368 12.5804L1.165 12.4876ZM1.1301 12.3027L1.62142 12.21C1.60499 12.123 1.59822 12.035 1.60118 11.9453L1.10146 11.9288L0.601728 11.9123C0.596356 12.0747 0.60868 12.236 0.638781 12.3955L1.1301 12.3027ZM1.10146 11.9288L1.60118 11.9453L1.60743 11.7563L1.10771 11.7397L0.60798 11.7232L0.601728 11.9123L1.10146 11.9288ZM1.10771 11.7397L1.60743 11.7563L1.61368 11.5672L1.11396 11.5507L0.614231 11.5341L0.60798 11.7232L1.10771 11.7397ZM1.11396 11.5507L1.61368 11.5672C1.61865 11.4169 1.61268 11.2672 1.59569 11.1184L1.09892 11.1752L0.602148 11.2319C0.613542 11.3317 0.617597 11.4324 0.614231 11.5341L1.11396 11.5507ZM1.09892 11.1752L1.59569 11.1184L1.5744 10.932L1.07763 10.9887L0.580857 11.0455L0.602148 11.2319L1.09892 11.1752ZM1.07763 10.9887L1.5744 10.932L1.55311 10.7456L1.05634 10.8023L0.559567 10.859L0.580857 11.0455L1.07763 10.9887ZM1.05634 10.8023L1.55311 10.7456C1.54123 10.6415 1.53575 10.5373 1.53665 10.4327L1.03667 10.4283L0.536688 10.424C0.535431 10.5694 0.543061 10.7145 0.559567 10.859L1.05634 10.8023ZM1.03667 10.4283L1.53665 10.4327L1.53827 10.2452L1.03829 10.2408L0.538309 10.2365L0.536688 10.424L1.03667 10.4283ZM1.03829 10.2408L1.53827 10.2452L1.53989 10.0577L1.03991 10.0533L0.539929 10.049L0.538309 10.2365L1.03829 10.2408ZM1.03991 10.0533L1.53989 10.0577C1.54094 9.93645 1.54336 9.81527 1.54717 9.69413L1.04741 9.67845L0.547657 9.66277C0.543619 9.79148 0.541043 9.92023 0.539929 10.049L1.03991 10.0533ZM1.04741 9.67845L1.54717 9.69413L1.55305 9.50674L1.05329 9.49106L0.553537 9.47537L0.547657 9.66277L1.04741 9.67845ZM1.05329 9.49106L1.55305 9.50674L1.55893 9.31935L1.05917 9.30367L0.559417 9.28798L0.553537 9.47537L1.05329 9.49106ZM1.05917 9.30367L1.55893 9.31935C1.56372 9.16638 1.55569 9.0136 1.53496 8.86128L1.03953 8.92869L0.544093 8.99609C0.557399 9.0939 0.562457 9.1911 0.559417 9.28798L1.05917 9.30367ZM1.03953 8.92869L1.53496 8.86128L1.50944 8.67369L1.01401 8.7411L0.51857 8.80851L0.544093 8.99609L1.03953 8.92869ZM1.01401 8.7411L1.50944 8.67369L1.48392 8.4861L0.988483 8.55351L0.493047 8.62092L0.51857 8.80851L1.01401 8.7411ZM0.988483 8.55351L1.48392 8.4861C1.47293 8.40535 1.47539 8.3424 1.48426 8.29355L0.99229 8.20428L0.500323 8.11501C0.47008 8.28169 0.470004 8.45156 0.493047 8.62092L0.988483 8.55351ZM0.99229 8.20428L1.48426 8.29355L1.51359 8.13191L1.02162 8.04264L0.529653 7.95337L0.500323 8.11501L0.99229 8.20428ZM1.02162 8.04264L1.51359 8.13191L1.54292 7.97027L1.05095 7.881L0.558983 7.79173L0.529653 7.95337L1.02162 8.04264ZM1.05095 7.881L1.54292 7.97027C1.53747 8.00026 1.49963 8.14808 1.33068 8.22793C1.25693 8.26279 1.19049 8.26725 1.14929 8.26491C1.1101 8.26269 1.08693 8.25414 1.08496 8.25342L1.2566 7.7838L1.42824 7.31419C1.32161 7.27522 1.11708 7.22282 0.903371 7.32383C0.665871 7.43608 0.583978 7.65398 0.558983 7.79173L1.05095 7.881ZM1.2566 7.7838L1.08496 8.25342L1.26128 8.31786L1.43292 7.84825L1.60456 7.37863L1.42824 7.31419L1.2566 7.7838ZM1.43292 7.84825L1.26128 8.31786L1.4376 8.38231L1.60924 7.91269L1.78088 7.44307L1.60456 7.37863L1.43292 7.84825ZM1.60924 7.91269L1.4376 8.38231C1.54532 8.42168 1.65171 8.46439 1.75678 8.51045L1.95753 8.05252L2.15828 7.59459C2.03406 7.54013 1.90825 7.48962 1.78088 7.44307L1.60924 7.91269ZM1.95753 8.05252L1.75678 8.51045L1.92874 8.58584L2.12949 8.12791L2.33024 7.66998L2.15828 7.59459L1.95753 8.05252ZM2.12949 8.12791L1.92874 8.58584L2.10071 8.66122L2.30146 8.20329L2.50221 7.74536L2.33024 7.66998L2.12949 8.12791ZM2.30146 8.20329L2.10071 8.66122C2.20409 8.70654 2.30565 8.75561 2.40542 8.80844L2.6394 8.36656L2.87337 7.92468C2.75185 7.86034 2.62812 7.80056 2.50221 7.74536L2.30146 8.20329ZM2.6394 8.36656L2.40542 8.80844L2.57139 8.89632L2.80536 8.45444L3.03933 8.01256L2.87337 7.92468L2.6394 8.36656ZM2.80536 8.45444L2.57139 8.89632L2.73736 8.9842L2.97133 8.54232L3.2053 8.10044L3.03933 8.01256L2.80536 8.45444ZM2.97133 8.54232L2.73736 8.9842C2.8338 9.03526 2.92779 9.09097 3.01935 9.15136L3.29464 8.73396L3.56992 8.31657C3.45171 8.2386 3.33015 8.16654 3.2053 8.10044L2.97133 8.54232ZM3.29464 8.73396L3.01935 9.15136L3.17669 9.25513L3.45198 8.83773L3.72726 8.42034L3.56992 8.31657L3.29464 8.73396ZM3.45198 8.83773L3.17669 9.25513L3.33403 9.3589L3.60931 8.9415L3.8846 8.52411L3.72726 8.42034L3.45198 8.83773ZM3.60931 8.9415L3.33403 9.3589C3.45358 9.43774 3.57667 9.50991 3.70329 9.57533L3.93282 9.13113L4.16235 8.68693C4.06741 8.63787 3.97484 8.58362 3.8846 8.52411L3.60931 8.9415ZM3.93282 9.13113L3.70329 9.57533L3.86945 9.66119L4.09898 9.21699L4.32851 8.77279L4.16235 8.68693L3.93282 9.13113ZM4.09898 9.21699L3.86945 9.66119L4.03561 9.74705L4.26514 9.30285L4.49467 8.85865L4.32851 8.77279L4.09898 9.21699ZM4.26514 9.30285L4.03561 9.74705C4.13692 9.79941 4.23651 9.85496 4.33437 9.91372L4.59177 9.48507L4.84917 9.05642C4.73308 8.9867 4.61491 8.92078 4.49467 8.85865L4.26514 9.30285ZM4.59177 9.48507L4.33437 9.91372L4.49483 10.0101L4.75223 9.58143L5.00964 9.15277L4.84917 9.05642L4.59177 9.48507ZM4.75223 9.58143L4.49483 10.0101L4.6553 10.1064L4.9127 9.67778L5.1701 9.24913L5.00964 9.15277L4.75223 9.58143ZM4.9127 9.67778L4.6553 10.1064C4.76302 10.1711 4.87108 10.2356 4.97949 10.3L5.23467 9.86999L5.48985 9.44001C5.38292 9.37655 5.27634 9.31292 5.1701 9.24913L4.9127 9.67778ZM5.23467 9.86999L4.97949 10.3L5.141 10.3958L5.39618 9.96584L5.65136 9.53586L5.48985 9.44001L5.23467 9.86999ZM5.39618 9.96584L5.141 10.3958L5.3025 10.4917L5.55769 10.0617L5.81287 9.63171L5.65136 9.53586L5.39618 9.96584ZM5.55769 10.0617L5.3025 10.4917C5.38161 10.5386 5.45529 10.5929 5.5239 10.6548L5.85893 10.2837L6.19395 9.91252C6.07625 9.80628 5.9491 9.71257 5.81287 9.63171L5.55769 10.0617ZM5.85893 10.2837L5.5239 10.6548L5.66363 10.781L5.99866 10.4098L6.33369 10.0386L6.19395 9.91252L5.85893 10.2837ZM5.99866 10.4098L5.66363 10.781L5.80336 10.9071L6.13839 10.5359L6.47342 10.1648L6.33369 10.0386L5.99866 10.4098ZM6.13839 10.5359L5.80336 10.9071C5.91336 11.0064 6.02958 11.0977 6.15189 11.181L6.43332 10.7677L6.71475 10.3545C6.63014 10.2969 6.54973 10.2337 6.47342 10.1648L6.13839 10.5359ZM6.43332 10.7677L6.15189 11.181L6.30709 11.2867L6.58852 10.8734L6.86994 10.4602L6.71475 10.3545L6.43332 10.7677ZM6.58852 10.8734L6.30709 11.2867L6.46229 11.3924L6.74371 10.9791L7.02514 10.5658L6.86994 10.4602L6.58852 10.8734ZM6.74371 10.9791L6.46229 11.3924C6.63412 11.5094 6.8706 11.6032 7.13892 11.5438L7.03087 11.0556L6.92282 10.5674C6.96455 10.5582 7.0001 10.5621 7.02178 10.5679C7.04063 10.5729 7.042 10.5773 7.02514 10.5658L6.74371 10.9791ZM7.03087 11.0556L7.13892 11.5438L7.27088 11.5146L7.16283 11.0264L7.05478 10.5382L6.92282 10.5674L7.03087 11.0556ZM7.16283 11.0264L7.27088 11.5146L7.40283 11.4854L7.29479 10.9972L7.18674 10.509L7.05478 10.5382L7.16283 11.0264ZM7.29479 10.9972L7.40283 11.4854C7.62156 11.437 7.7925 11.3089 7.92073 11.171L7.55452 10.8305L7.18831 10.4901C7.16836 10.5116 7.15703 10.5192 7.15568 10.5201C7.15505 10.5205 7.16565 10.5137 7.18674 10.509L7.29479 10.9972ZM7.55452 10.8305L7.92073 11.171L8.0485 11.0335L7.68229 10.6931L7.31608 10.3527L7.18831 10.4901L7.55452 10.8305ZM7.68229 10.6931L8.0485 11.0335L8.17627 10.8961L7.81006 10.5556L7.44385 10.2152L7.31608 10.3527L7.68229 10.6931ZM7.81006 10.5556L8.17627 10.8961C8.26816 10.7972 8.35698 10.6958 8.44271 10.5918L8.05698 10.2737L7.67124 9.95558C7.59811 10.0442 7.52232 10.1308 7.44385 10.2152L7.81006 10.5556ZM8.05698 10.2737L8.44271 10.5918L8.56185 10.4474L8.17612 10.1293L7.79039 9.81112L7.67124 9.95558L8.05698 10.2737ZM8.17612 10.1293L8.56185 10.4474L8.681 10.3029L8.29527 9.98479L7.90953 9.66666L7.79039 9.81112L8.17612 10.1293ZM8.29527 9.98479L8.681 10.3029C8.75805 10.2095 8.83612 10.117 8.91519 10.0254L8.53669 9.69866L8.15819 9.37196C8.07422 9.46923 7.99134 9.56747 7.90953 9.66666L8.29527 9.98479ZM8.53669 9.69866L8.91519 10.0254L9.03748 9.8837L8.65898 9.55699L8.28047 9.23029L8.15819 9.37196L8.53669 9.69866ZM8.65898 9.55699L9.03748 9.8837L9.15976 9.74203L8.78126 9.41532L8.40276 9.08862L8.28047 9.23029L8.65898 9.55699ZM8.78126 9.41532L9.15976 9.74203C9.24088 9.64804 9.3222 9.55418 9.4037 9.46045L9.0264 9.13236L8.64909 8.80428C8.56679 8.89893 8.48467 8.99371 8.40276 9.08862L8.78126 9.41532ZM9.0264 9.13236L9.4037 9.46045L9.52656 9.31916L9.14925 8.99108L8.77194 8.66299L8.64909 8.80428L9.0264 9.13236ZM9.14925 8.99108L9.52656 9.31916L9.64941 9.17787L9.27211 8.84979L8.8948 8.52171L8.77194 8.66299L9.14925 8.99108ZM9.27211 8.84979L9.64941 9.17787C9.72743 9.08815 9.80702 8.99983 9.88819 8.91293L9.52277 8.57165L9.15736 8.23037C9.06811 8.32593 8.98059 8.42304 8.8948 8.52171L9.27211 8.84979ZM9.52277 8.57165L9.88819 8.91293L10.016 8.77607L9.65058 8.4348L9.28517 8.09352L9.15736 8.23037L9.52277 8.57165ZM9.65058 8.4348L10.016 8.77607L10.1438 8.63922L9.7784 8.29794L9.41298 7.95667L9.28517 8.09352L9.65058 8.4348ZM9.7784 8.29794L10.1438 8.63922C10.2268 8.55032 10.3108 8.46215 10.3956 8.37472L10.0368 8.02652L9.67797 7.67832C9.5887 7.77032 9.50037 7.8631 9.41298 7.95667L9.7784 8.29794ZM10.0368 8.02652L10.3956 8.37472L10.5262 8.24015L10.1674 7.89195L9.80855 7.54375L9.67797 7.67832L10.0368 8.02652ZM10.1674 7.89195L10.5262 8.24015L10.6568 8.10558L10.298 7.75738L9.93914 7.40918L9.80855 7.54375L10.1674 7.89195ZM10.298 7.75738L10.6568 8.10558C10.7447 8.015 10.8324 7.92392 10.92 7.83235L10.5587 7.48675L10.1973 7.14116C10.1114 7.23099 10.0254 7.32034 9.93914 7.40918L10.298 7.75738ZM10.5587 7.48675L10.92 7.83235L11.0501 7.69629L10.6888 7.3507L10.3275 7.0051L10.1973 7.14116L10.5587 7.48675ZM10.6888 7.3507L11.0501 7.69629L11.1803 7.56024L10.8189 7.21464L10.4576 6.86905L10.3275 7.0051L10.6888 7.3507ZM10.8189 7.21464L11.1803 7.56024C11.2461 7.49142 11.3174 7.42925 11.3946 7.37348L11.1016 6.96829L10.8087 6.5631C10.6824 6.65439 10.5653 6.75645 10.4576 6.86905L10.8189 7.21464ZM11.1016 6.96829L11.3946 7.37348L11.5471 7.26318L11.2542 6.858L10.9612 6.45281L10.8087 6.5631L11.1016 6.96829ZM11.2542 6.858L11.5471 7.26318L11.6997 7.15289L11.4067 6.7477L11.1138 6.34251L10.9612 6.45281L11.2542 6.858ZM11.4067 6.7477L11.6997 7.15289C11.7158 7.1412 11.7156 7.1448 11.6991 7.14975C11.6801 7.15544 11.6492 7.15992 11.6126 7.15369L11.6965 6.66078L11.7805 6.16788C11.5153 6.12273 11.2848 6.21888 11.1138 6.34251L11.4067 6.7477ZM11.6965 6.66078L11.6126 7.15369L11.7499 7.17706L11.8338 6.68416L11.9177 6.19125L11.7805 6.16788L11.6965 6.66078ZM11.8338 6.68416L11.7499 7.17706L11.8871 7.20044L11.9711 6.70753L12.055 6.21463L11.9177 6.19125L11.8338 6.68416ZM11.9711 6.70753L11.8871 7.20044C11.8631 7.19635 11.8752 7.19001 11.9238 7.23189L12.2502 6.85312L12.5766 6.47435C12.4361 6.35328 12.262 6.24988 12.055 6.21463L11.9711 6.70753ZM12.2502 6.85312L11.9238 7.23189L12.0656 7.35411L12.392 6.97534L12.7184 6.59656L12.5766 6.47435L12.2502 6.85312ZM12.392 6.97534L12.0656 7.35411L12.2074 7.47632L12.5338 7.09755L12.8602 6.71878L12.7184 6.59656L12.392 6.97534ZM12.5338 7.09755L12.2074 7.47632C12.2941 7.55104 12.3784 7.62836 12.4603 7.7083L12.8096 7.35051L13.1588 6.99273C13.0621 6.89833 12.9626 6.80701 12.8602 6.71878L12.5338 7.09755ZM12.8096 7.35051L12.4603 7.7083L12.5942 7.83904L12.9435 7.48126L13.2928 7.12348L13.1588 6.99273L12.8096 7.35051ZM12.9435 7.48126L12.5942 7.83904L12.7282 7.96979L13.0774 7.61201L13.4267 7.25422L13.2928 7.12348L12.9435 7.48126ZM13.0774 7.61201L12.7282 7.96979C12.8377 8.07671 12.9559 8.17403 13.0824 8.2617L13.3672 7.85072L13.652 7.43974C13.5707 7.38346 13.4958 7.32164 13.4267 7.25422L13.0774 7.61201ZM13.3672 7.85072L13.0824 8.2617L13.2382 8.36966L13.523 7.95869L13.8078 7.54771L13.652 7.43974L13.3672 7.85072ZM13.523 7.95869L13.2382 8.36966L13.394 8.47763L13.6788 8.06665L13.9636 7.65567L13.8078 7.54771L13.523 7.95869ZM13.6788 8.06665L13.394 8.47763C13.4544 8.51945 13.5057 8.56876 13.5496 8.62684L13.9486 8.32546L14.3475 8.02408C14.2395 7.88103 14.111 7.7578 13.9636 7.65567L13.6788 8.06665ZM13.9486 8.32546L13.5496 8.62684L13.6636 8.77768L14.0625 8.4763L14.4615 8.17492L14.3475 8.02408L13.9486 8.32546ZM14.0625 8.4763L13.6636 8.77768L13.7775 8.92852L14.1765 8.62714L14.5754 8.32576L14.4615 8.17492L14.0625 8.4763ZM14.1765 8.62714L13.7775 8.92852C13.8704 9.05147 13.9728 9.16566 14.0847 9.27078L14.4271 8.90638L14.7694 8.54199C14.6991 8.47591 14.6345 8.40394 14.5754 8.32576L14.1765 8.62714ZM14.4271 8.90638L14.0847 9.27078L14.2214 9.39918L14.5637 9.03479L14.9061 8.67039L14.7694 8.54199L14.4271 8.90638ZM14.5637 9.03479L14.2214 9.39918L14.358 9.52758L14.7004 9.16319L15.0428 8.79879L14.9061 8.67039L14.5637 9.03479ZM14.7004 9.16319L14.358 9.52758C14.4362 9.60106 14.5102 9.67839 14.5801 9.75962L14.9592 9.43361L15.3383 9.1076C15.2453 8.99946 15.1468 8.89651 15.0428 8.79879L14.7004 9.16319ZM14.9592 9.43361L14.5801 9.75962L14.7022 9.90164L15.0813 9.57563L15.4604 9.24962L15.3383 9.1076L14.9592 9.43361ZM15.0813 9.57563L14.7022 9.90164L14.8244 10.0437L15.2035 9.71765L15.5826 9.39164L15.4604 9.24962L15.0813 9.57563ZM15.2035 9.71765L14.8244 10.0437C14.9051 10.1375 14.9855 10.2316 15.0656 10.3261L15.4469 10.0026L15.8282 9.67916C15.7466 9.58301 15.6647 9.48717 15.5826 9.39164L15.2035 9.71765ZM15.4469 10.0026L15.0656 10.3261L15.1869 10.4691L15.5682 10.1456L15.9494 9.82211L15.8282 9.67916L15.4469 10.0026ZM15.5682 10.1456L15.1869 10.4691L15.3082 10.612L15.6894 10.2885L16.0707 9.96506L15.9494 9.82211L15.5682 10.1456ZM15.6894 10.2885L15.3082 10.612C15.3967 10.7164 15.4891 10.8177 15.5852 10.9158L15.9425 10.5661L16.2998 10.2164C16.2202 10.135 16.1439 10.0513 16.0707 9.96506L15.6894 10.2885ZM15.9425 10.5661L15.5852 10.9158L15.7169 11.0505L16.0742 10.7007L16.4316 10.351L16.2998 10.2164L15.9425 10.5661ZM16.0742 10.7007L15.7169 11.0505L15.8487 11.1851L16.206 10.8353L16.5633 10.4856L16.4316 10.351L16.0742 10.7007ZM16.206 10.8353L15.8487 11.1851C15.9738 11.3129 16.15 11.446 16.379 11.4832L16.4591 10.9897L16.5393 10.4961C16.5743 10.5018 16.5935 10.5131 16.5955 10.5143C16.5965 10.5149 16.594 10.5135 16.5882 10.5088C16.5825 10.5041 16.5741 10.4966 16.5633 10.4856L16.206 10.8353ZM16.4591 10.9897L16.379 11.4832L16.5003 11.5029L16.5805 11.0094L16.6606 10.5158L16.5393 10.4961L16.4591 10.9897ZM16.5805 11.0094L16.5003 11.5029L16.6217 11.5226L16.7018 11.0291L16.782 10.5355L16.6606 10.5158L16.5805 11.0094ZM16.7018 11.0291L16.6217 11.5226C16.848 11.5594 17.0556 11.4916 17.215 11.4118L16.991 10.9647L16.7671 10.5176C16.7533 10.5246 16.7429 10.529 16.7357 10.5316C16.7284 10.5343 16.7254 10.535 16.7262 10.5348C16.7276 10.5345 16.7483 10.5301 16.782 10.5355L16.7018 11.0291ZM16.991 10.9647L17.215 11.4118L17.3828 11.3277L17.1589 10.8806L16.935 10.4336L16.7671 10.5176L16.991 10.9647ZM17.1589 10.8806L17.3828 11.3277L17.5507 11.2436L17.3268 10.7965L17.1029 10.3495L16.935 10.4336L17.1589 10.8806ZM17.3268 10.7965L17.5507 11.2436C17.6623 11.1877 17.7738 11.132 17.8854 11.0765L17.6627 10.6288L17.44 10.1812C17.3276 10.2371 17.2152 10.2932 17.1029 10.3495L17.3268 10.7965ZM17.6627 10.6288L17.8854 11.0765L18.0535 10.9929L17.8307 10.5452L17.608 10.0976L17.44 10.1812L17.6627 10.6288ZM17.8307 10.5452L18.0535 10.9929L18.2215 10.9093L17.9987 10.4616L17.776 10.014L17.608 10.0976L17.8307 10.5452ZM17.9987 10.4616L18.2215 10.9093C18.3265 10.857 18.4327 10.8073 18.5401 10.76L18.3387 10.3023L18.1373 9.84471C18.0155 9.89832 17.895 9.95475 17.776 10.014L17.9987 10.4616ZM18.3387 10.3023L18.5401 10.76L18.7121 10.6843L18.5107 10.2267L18.3093 9.76903L18.1373 9.84471L18.3387 10.3023ZM18.5107 10.2267L18.7121 10.6843L18.884 10.6086L18.6826 10.151L18.4812 9.69335L18.3093 9.76903L18.5107 10.2267ZM18.6826 10.151L18.884 10.6086C19.0022 10.5566 19.1198 10.5032 19.2368 10.4485L19.0249 9.99562L18.8129 9.54276C18.7029 9.59425 18.5923 9.64445 18.4812 9.69335L18.6826 10.151ZM19.0249 9.99562L19.2368 10.4485L19.4071 10.3688L19.1951 9.91594L18.9832 9.46308L18.8129 9.54276L19.0249 9.99562ZM19.1951 9.91594L19.4071 10.3688L19.5773 10.2891L19.3654 9.83625L19.1535 9.38339L18.9832 9.46308L19.1951 9.91594ZM19.3654 9.83625L19.5773 10.2891C19.6667 10.2473 19.7589 10.2128 19.8541 10.1856L19.7168 9.70484L19.5795 9.22406C19.4332 9.26584 19.2911 9.31897 19.1535 9.38339L19.3654 9.83625ZM19.7168 9.70484L19.8541 10.1856L20.0352 10.1339L19.8979 9.65311L19.7606 9.17233L19.5795 9.22406L19.7168 9.70484ZM19.8979 9.65311L20.0352 10.1339L20.2164 10.0822L20.0791 9.60138L19.9418 9.1206L19.7606 9.17233L19.8979 9.65311ZM20.0791 9.60138L20.2164 10.0822C20.3448 10.0455 20.472 10.0058 20.598 9.96319L20.4377 9.48957L20.2775 9.01596C20.1667 9.05343 20.0548 9.08831 19.9418 9.1206L20.0791 9.60138ZM20.4377 9.48957L20.598 9.96319L20.7755 9.90311L20.6153 9.42949L20.455 8.95588L20.2775 9.01596L20.4377 9.48957ZM20.6153 9.42949L20.7755 9.90311L20.9531 9.84303L20.7928 9.36941L20.6325 8.8958L20.455 8.95588L20.6153 9.42949ZM20.7928 9.36941L20.9531 9.84303C21.0728 9.80252 21.1925 9.76145 21.3121 9.71983L21.1478 9.24759L20.9835 8.77536C20.8665 8.81606 20.7495 8.8562 20.6325 8.8958L20.7928 9.36941ZM21.1478 9.24759L21.3121 9.71983L21.4895 9.65809L21.3252 9.18585L21.1609 8.71362L20.9835 8.77536L21.1478 9.24759ZM21.3252 9.18585L21.4895 9.65809L21.667 9.59635L21.5027 9.12411L21.3384 8.65188L21.1609 8.71362L21.3252 9.18585ZM21.5027 9.12411L21.667 9.59635C21.7665 9.56174 21.8675 9.53325 21.9702 9.51081L21.8636 9.02232L21.7569 8.53383C21.6151 8.5648 21.4756 8.60416 21.3384 8.65188L21.5027 9.12411ZM21.8636 9.02232L21.9702 9.51081L22.1536 9.47077L22.047 8.98228L21.9403 8.49379L21.7569 8.53383L21.8636 9.02232ZM22.047 8.98228L22.1536 9.47077L22.337 9.43072L22.2303 8.94223L22.1237 8.45374L21.9403 8.49379L22.047 8.98228ZM22.2303 8.94223L22.337 9.43072C22.4256 9.41137 22.499 9.40507 22.5591 9.40694L22.5746 8.90718L22.5902 8.40742C22.4357 8.40262 22.2796 8.41969 22.1237 8.45374L22.2303 8.94223ZM22.5746 8.90718L22.5591 9.40694L22.72 9.41193L22.7355 8.91217L22.751 8.41241L22.5902 8.40742L22.5746 8.90718ZM22.7355 8.91217L22.72 9.41193L22.8809 9.41693L22.8964 8.91717L22.9119 8.41741L22.751 8.41241L22.7355 8.91217ZM22.8964 8.91717L22.8809 9.41693C22.8391 9.41563 22.7043 9.3957 22.6068 9.26106C22.5647 9.20298 22.5482 9.14687 22.542 9.11032C22.5361 9.07538 22.5387 9.05344 22.5389 9.05137L23.0356 9.10916L23.5322 9.16695C23.5458 9.04995 23.546 8.85298 23.4165 8.67427C23.2726 8.47563 23.061 8.42203 22.9119 8.41741L22.8964 8.91717ZM23.0356 9.10916L22.5389 9.05137L22.5171 9.23837L23.0138 9.29616L23.5104 9.35395L23.5322 9.16695L23.0356 9.10916ZM23.0138 9.29616L22.5171 9.23837L22.4954 9.42537L22.992 9.48316L23.4887 9.54095L23.5104 9.35395L23.0138 9.29616ZM22.992 9.48316L22.4954 9.42537C22.4795 9.5623 22.4686 9.69942 22.4629 9.8367L22.9625 9.85743L23.4621 9.87816C23.4667 9.76575 23.4756 9.65336 23.4887 9.54095L22.992 9.48316ZM22.9625 9.85743L22.4629 9.8367L22.4552 10.024L22.9547 10.0447L23.4543 10.0654L23.4621 9.87816L22.9625 9.85743ZM22.9547 10.0447L22.4552 10.024L22.4474 10.2112L22.947 10.232L23.4465 10.2527L23.4543 10.0654L22.9547 10.0447ZM22.947 10.232L22.4474 10.2112C22.4421 10.3377 22.4375 10.4642 22.4335 10.5908L22.9333 10.6066L23.433 10.6224C23.4369 10.4991 23.4414 10.3759 23.4465 10.2527L22.947 10.232ZM22.9333 10.6066L22.4335 10.5908L22.4276 10.7781L22.9273 10.7939L23.4271 10.8097L23.433 10.6224L22.9333 10.6066ZM22.9273 10.7939L22.4276 10.7781L22.4217 10.9654L22.9214 10.9812L23.4212 10.997L23.4271 10.8097L22.9273 10.7939ZM22.9214 10.9812L22.4217 10.9654C22.4181 11.0788 22.4106 11.192 22.3992 11.3049L22.8967 11.3551L23.3941 11.4053C23.4078 11.2695 23.4169 11.1334 23.4212 10.997L22.9214 10.9812ZM22.8967 11.3551L22.3992 11.3049L22.3804 11.4914L22.8778 11.5417L23.3753 11.5919L23.3941 11.4053L22.8967 11.3551ZM22.8778 11.5417L22.3804 11.4914L22.3615 11.678L22.859 11.7282L23.3565 11.7784L23.3753 11.5919L22.8778 11.5417ZM22.859 11.7282L22.3615 11.678C22.3484 11.8083 22.3375 11.9388 22.3291 12.0695L22.8281 12.1018L23.327 12.134C23.3347 12.0153 23.3445 11.8968 23.3565 11.7784L22.859 11.7282ZM22.8281 12.1018L22.3291 12.0695L22.317 12.2565L22.816 12.2888L23.3149 12.321L23.327 12.134L22.8281 12.1018ZM22.816 12.2888L22.317 12.2565L22.3049 12.4436L22.8039 12.4758L23.3028 12.5081L23.3149 12.321L22.816 12.2888ZM22.8039 12.4758L22.3049 12.4436C22.2964 12.5755 22.2907 12.708 22.2879 12.841L22.7878 12.8517L23.2877 12.8623C23.2902 12.7436 23.2952 12.6255 23.3028 12.5081L22.8039 12.4758ZM22.7878 12.8517L22.2879 12.841L22.2839 13.0298L22.7837 13.0405L23.2836 13.0511L23.2877 12.8623L22.7878 12.8517ZM22.7837 13.0405L22.2839 13.0298L22.2798 13.2186L22.7797 13.2293L23.2796 13.2399L23.2836 13.0511L22.7837 13.0405ZM22.7797 13.2293L22.2798 13.2186C22.2778 13.3143 22.2672 13.4085 22.248 13.5016L22.7378 13.6024L23.2275 13.7032C23.2589 13.5506 23.2763 13.396 23.2796 13.2399L22.7797 13.2293ZM22.7378 13.6024L22.248 13.5016L22.2101 13.6859L22.6998 13.7868L23.1895 13.8876L23.2275 13.7032L22.7378 13.6024ZM22.6998 13.7868L22.2101 13.6859L22.1721 13.8703L22.6619 13.9711L23.1516 14.0719L23.1895 13.8876L22.6998 13.7868ZM22.6619 13.9711L22.1721 13.8703C22.1485 13.9852 22.1221 14.0993 22.0929 14.2127L22.5771 14.3374L23.0613 14.4621C23.0945 14.3328 23.1247 14.2028 23.1516 14.0719L22.6619 13.9711ZM22.5771 14.3374L22.0929 14.2127L22.046 14.3946L22.5302 14.5193L23.0144 14.6441L23.0613 14.4621L22.5771 14.3374ZM22.5302 14.5193L22.046 14.3946L21.9991 14.5766L22.4833 14.7013L22.9675 14.826L23.0144 14.6441L22.5302 14.5193ZM22.4833 14.7013L21.9991 14.5766C21.9662 14.7045 21.9359 14.833 21.9083 14.962L22.3972 15.0667L22.8861 15.1714C22.9108 15.0559 22.938 14.9407 22.9675 14.826L22.4833 14.7013ZM22.3972 15.0667L21.9083 14.962L21.869 15.1455L22.3579 15.2502L22.8468 15.3549L22.8861 15.1714L22.3972 15.0667ZM22.3579 15.2502L21.869 15.1455L21.8297 15.3289L22.3186 15.4336L22.8075 15.5383L22.8468 15.3549L22.3579 15.2502ZM22.3186 15.4336L21.8297 15.3289C21.8044 15.4469 21.7776 15.5647 21.7492 15.6822L22.2352 15.7996L22.7212 15.9171C22.7516 15.7912 22.7804 15.6649 22.8075 15.5383L22.3186 15.4336ZM22.2352 15.7996L21.7492 15.6822L21.705 15.8647L22.191 15.9822L22.6771 16.0997L22.7212 15.9171L22.2352 15.7996ZM22.191 15.9822L21.705 15.8647L21.6609 16.0473L22.1469 16.1647L22.6329 16.2822L22.6771 16.0997L22.191 15.9822ZM22.1469 16.1647L21.6609 16.0473C21.6338 16.1595 21.6034 16.2709 21.5698 16.3812L22.0481 16.5268L22.5265 16.6725C22.5657 16.5435 22.6012 16.4134 22.6329 16.2822L22.1469 16.1647ZM22.0481 16.5268L21.5698 16.3812L21.5152 16.5608L21.9935 16.7064L22.4718 16.852L22.5265 16.6725L22.0481 16.5268ZM21.9935 16.7064L21.5152 16.5608L21.4605 16.7403L21.9388 16.8859L22.4172 17.0315L22.4718 16.852L21.9935 16.7064ZM21.9388 16.8859L21.4605 16.7403C21.427 16.8505 21.3902 16.9595 21.3501 17.0674L21.8189 17.2414L22.2876 17.4154C22.3346 17.2888 22.3778 17.1608 22.4172 17.0315L21.9388 16.8859ZM21.8189 17.2414L21.3501 17.0674L21.2848 17.2433L21.7536 17.4173L22.2223 17.5914L22.2876 17.4154L21.8189 17.2414ZM21.7536 17.4173L21.2848 17.2433L21.2195 17.4193L21.6883 17.5933L22.157 17.7673L22.2223 17.5914L21.7536 17.4173ZM21.6883 17.5933L21.2195 17.4193C21.2168 17.4267 21.2191 17.4169 21.2336 17.4012C21.2492 17.3843 21.2684 17.3719 21.2852 17.3653L21.4696 17.83L21.6539 18.2948C21.9067 18.1946 22.0716 17.9972 22.157 17.7673L21.6883 17.5933ZM21.4696 17.83L21.2852 17.3653L21.1319 17.4261L21.3162 17.8909L21.5006 18.3556L21.6539 18.2948L21.4696 17.83ZM21.3162 17.8909L21.1319 17.4261L20.9785 17.4869L21.1629 17.9517L21.3472 18.4165L21.5006 18.3556L21.3162 17.8909ZM21.1629 17.9517L20.9785 17.4869C20.9428 17.5011 20.8931 17.5123 20.8229 17.5122L20.822 18.0122L20.8211 18.5122C21.001 18.5125 21.1785 18.4834 21.3472 18.4165L21.1629 17.9517ZM20.822 18.0122L20.8229 17.5122L20.6354 17.5118L20.6345 18.0118L20.6336 18.5118L20.8211 18.5122L20.822 18.0122ZM20.6345 18.0118L20.6354 17.5118L20.4479 17.5115L20.447 18.0115L20.4461 18.5115L20.6336 18.5118L20.6345 18.0118ZM20.447 18.0115L20.4479 17.5115C20.3403 17.5113 20.2326 17.5055 20.1247 17.4941L20.072 17.9913L20.0194 18.4885C20.1615 18.5036 20.3038 18.5112 20.4461 18.5115L20.447 18.0115ZM20.072 17.9913L20.1247 17.4941L19.9372 17.4742L19.8845 17.9715L19.8319 18.4687L20.0194 18.4885L20.072 17.9913ZM19.8845 17.9715L19.9372 17.4742L19.7497 17.4544L19.697 17.9516L19.6444 18.4489L19.8319 18.4687L19.8845 17.9715ZM19.697 17.9516L19.7497 17.4544C19.6112 17.4398 19.4727 17.4308 19.3341 17.4274L19.322 17.9273L19.31 18.4271C19.4214 18.4298 19.5328 18.437 19.6444 18.4489L19.697 17.9516ZM19.322 17.9273L19.3341 17.4274L19.1466 17.4229L19.1345 17.9227L19.1225 18.4226L19.31 18.4271L19.322 17.9273ZM19.1345 17.9227L19.1466 17.4229L18.9591 17.4184L18.947 17.9182L18.935 18.4181L19.1225 18.4226L19.1345 17.9227ZM18.947 17.9182L18.9591 17.4184C18.8351 17.4154 18.7111 17.412 18.5871 17.4083L18.572 17.908L18.557 18.4078C18.683 18.4116 18.809 18.415 18.935 18.4181L18.947 17.9182ZM18.572 17.908L18.5871 17.4083L18.3996 17.4026L18.3845 17.9024L18.3695 18.4022L18.557 18.4078L18.572 17.908ZM18.3845 17.9024L18.3996 17.4026L18.2121 17.397L18.197 17.8967L18.182 18.3965L18.3695 18.4022L18.3845 17.9024ZM18.197 17.8967L18.2121 17.397C18.0633 17.3925 17.9146 17.3986 17.7663 17.4152L17.822 17.9121L17.8778 18.409C17.9794 18.3976 18.0808 18.3935 18.182 18.3965L18.197 17.8967ZM17.822 17.9121L17.7663 17.4152L17.5788 17.4363L17.6345 17.9332L17.6903 18.43L17.8778 18.409L17.822 17.9121ZM17.6345 17.9332L17.5788 17.4363L17.3913 17.4573L17.447 17.9542L17.5028 18.4511L17.6903 18.43L17.6345 17.9332ZM17.447 17.9542L17.3913 17.4573C17.2828 17.4695 17.1746 17.4762 17.0664 17.4774L17.072 17.9774L17.0776 18.4773C17.2195 18.4757 17.3612 18.467 17.5028 18.4511L17.447 17.9542ZM17.072 17.9774L17.0664 17.4774L16.8789 17.4795L16.8845 17.9795L16.8901 18.4794L17.0776 18.4773L17.072 17.9774ZM16.8845 17.9795L16.8789 17.4795L16.6914 17.4816L16.697 17.9815L16.7026 18.4815L16.8901 18.4794L16.8845 17.9795ZM16.697 17.9815L16.6914 17.4816C16.5709 17.4829 16.4504 17.4827 16.3299 17.4808L16.322 17.9807L16.3142 18.4806C16.4437 18.4827 16.5731 18.483 16.7026 18.4815L16.697 17.9815ZM16.322 17.9807L16.3299 17.4808L16.1424 17.4778L16.1345 17.9778L16.1267 18.4777L16.3142 18.4806L16.322 17.9807ZM16.1345 17.9778L16.1424 17.4778L15.9549 17.4749L15.947 17.9748L15.9392 18.4748L16.1267 18.4777L16.1345 17.9778ZM15.947 17.9748L15.9549 17.4749C15.8351 17.473 15.7154 17.4692 15.5956 17.4636L15.572 17.963L15.5484 18.4625C15.6787 18.4686 15.8089 18.4727 15.9392 18.4748L15.947 17.9748ZM15.572 17.963L15.5956 17.4636L15.4081 17.4547L15.3845 17.9542L15.3609 18.4536L15.5484 18.4625L15.572 17.963ZM15.3845 17.9542L15.4081 17.4547L15.2206 17.4459L15.197 17.9453L15.1734 18.4448L15.3609 18.4536L15.3845 17.9542ZM15.197 17.9453L15.2206 17.4459C15.0747 17.439 14.9288 17.4412 14.7831 17.4526L14.822 17.9511L14.861 18.4496C14.9652 18.4414 15.0693 18.4398 15.1734 18.4448L15.197 17.9453ZM14.822 17.9511L14.7831 17.4526L14.5956 17.4673L14.6345 17.9658L14.6735 18.4643L14.861 18.4496L14.822 17.9511ZM14.6345 17.9658L14.5956 17.4673L14.4081 17.482L14.447 17.9804L14.486 18.4789L14.6735 18.4643L14.6345 17.9658ZM14.447 17.9804L14.4081 17.482C14.2904 17.4912 14.1728 17.4977 14.0552 17.5017L14.072 18.0014L14.0889 18.5011C14.2213 18.4967 14.3537 18.4893 14.486 18.4789L14.447 17.9804ZM14.072 18.0014L14.0552 17.5017L13.8677 17.508L13.8845 18.0078L13.9014 18.5075L14.0889 18.5011L14.072 18.0014ZM13.8845 18.0078L13.8677 17.508L13.6802 17.5144L13.697 18.0141L13.7139 18.5138L13.9014 18.5075L13.8845 18.0078ZM13.697 18.0141L13.6802 17.5144C13.575 17.5179 13.4698 17.5152 13.3645 17.5063L13.322 18.0045L13.2796 18.5027C13.4243 18.515 13.5691 18.5187 13.7139 18.5138L13.697 18.0141ZM13.322 18.0045L13.3645 17.5063L13.177 17.4903L13.1345 17.9885L13.0921 18.4867L13.2796 18.5027L13.322 18.0045ZM13.1345 17.9885L13.177 17.4903L12.9895 17.4743L12.947 17.9725L12.9046 18.4707L13.0921 18.4867L13.1345 17.9885ZM12.947 17.9725L12.9895 17.4743C12.8638 17.4636 12.7381 17.4532 12.6124 17.443L12.572 17.9414L12.5317 18.4397C12.656 18.4498 12.7803 18.4601 12.9046 18.4707L12.947 17.9725ZM12.572 17.9414L12.6124 17.443L12.4249 17.4278L12.3845 17.9262L12.3442 18.4246L12.5317 18.4397L12.572 17.9414ZM12.3845 17.9262L12.4249 17.4278L12.2374 17.4127L12.197 17.911L12.1567 18.4094L12.3442 18.4246L12.3845 17.9262ZM12.197 17.911L12.2374 17.4127C12.0889 17.4006 11.9402 17.3991 11.7916 17.4082L11.822 17.9073L11.8524 18.4063C11.9538 18.4002 12.0552 18.4012 12.1567 18.4094L12.197 17.911ZM11.822 17.9073L11.7916 17.4082L11.6041 17.4196L11.6345 17.9187L11.6649 18.4178L11.8524 18.4063L11.822 17.9073ZM11.6345 17.9187L11.6041 17.4196L11.4166 17.431L11.447 17.9301L11.4774 18.4292L11.6649 18.4178L11.6345 17.9187ZM11.447 17.9301L11.4166 17.431C11.2997 17.4382 11.1828 17.4424 11.066 17.4439L11.072 17.9438L11.0781 18.4438C11.2112 18.4422 11.3443 18.4373 11.4774 18.4292L11.447 17.9301ZM11.072 17.9438L11.066 17.4439L10.8785 17.4461L10.8845 17.9461L10.8906 18.446L11.0781 18.4438L11.072 17.9438ZM10.8845 17.9461L10.8785 17.4461L10.691 17.4484L10.697 17.9484L10.7031 18.4483L10.8906 18.446L10.8845 17.9461ZM10.697 17.9484L10.691 17.4484C10.5713 17.4498 10.4515 17.4494 10.3318 17.447L10.322 17.9469L10.3122 18.4469C10.4425 18.4494 10.5728 18.4499 10.7031 18.4483L10.697 17.9484ZM10.322 17.9469L10.3318 17.447L10.1443 17.4434L10.1345 17.9433L10.1247 18.4432L10.3122 18.4469L10.322 17.9469ZM10.1345 17.9433L10.1443 17.4434L9.95683 17.4397L9.94703 17.9396L9.93724 18.4395L10.1247 18.4432L10.1345 17.9433ZM9.94703 17.9396L9.95683 17.4397C9.82654 17.4371 9.69626 17.4367 9.56597 17.4382L9.57203 17.9382L9.57809 18.4382C9.69781 18.4367 9.81752 18.4372 9.93724 18.4395L9.94703 17.9396ZM9.57203 17.9382L9.56597 17.4382L9.37847 17.4405L9.38453 17.9405L9.39059 18.4404L9.57809 18.4382L9.57203 17.9382ZM9.38453 17.9405L9.37847 17.4405L9.19097 17.4428L9.19703 17.9427L9.20309 18.4427L9.39059 18.4404L9.38453 17.9405ZM9.19703 17.9427L9.19097 17.4428C9.05742 17.4444 8.92388 17.4494 8.79038 17.4579L8.82203 17.9569L8.85369 18.4559C8.97018 18.4485 9.08665 18.4441 9.20309 18.4427L9.19703 17.9427ZM8.82203 17.9569L8.79038 17.4579L8.60288 17.4698L8.63453 17.9688L8.66619 18.4678L8.85369 18.4559L8.82203 17.9569ZM8.63453 17.9688L8.60288 17.4698L8.41538 17.4817L8.44703 17.9807L8.47869 18.4797L8.66619 18.4678L8.63453 17.9688ZM8.44703 17.9807L8.41538 17.4817C8.29656 17.4892 8.17777 17.4946 8.05899 17.4977L8.07203 17.9975L8.08508 18.4973C8.2163 18.4939 8.3475 18.488 8.47869 18.4797L8.44703 17.9807ZM8.07203 17.9975L8.05899 17.4977L7.87149 17.5026L7.88453 18.0024L7.89758 18.5022L8.08508 18.4973L8.07203 17.9975ZM7.88453 18.0024L7.87149 17.5026L7.68399 17.5075L7.69703 18.0073L7.71008 18.5071L7.89758 18.5022L7.88453 18.0024ZM7.69703 18.0073L7.68399 17.5075C7.57768 17.5102 7.47133 17.507 7.36483 17.4979L7.32203 17.9961L7.27923 18.4942C7.42274 18.5066 7.56639 18.5109 7.71008 18.5071L7.69703 18.0073ZM7.32203 17.9961L7.36483 17.4979L7.17733 17.4818L7.13453 17.98L7.09173 18.4781L7.27923 18.4942L7.32203 17.9961ZM7.13453 17.98L7.17733 17.4818L6.98983 17.4657L6.94703 17.9638L6.90423 18.462L7.09173 18.4781L7.13453 17.98ZM6.94703 17.9638L6.98983 17.4657C6.83018 17.452 6.67044 17.4549 6.51118 17.4744L6.57203 17.9707L6.63288 18.467C6.72362 18.4559 6.81389 18.4542 6.90423 18.462L6.94703 17.9638ZM6.57203 17.9707L6.51118 17.4744L6.32368 17.4974L6.38453 17.9937L6.44538 18.49L6.63288 18.467L6.57203 17.9707ZM6.38453 17.9937L6.32368 17.4974L6.13618 17.5204L6.19703 18.0167L6.25788 18.513L6.44538 18.49L6.38453 17.9937ZM6.19703 18.0167L6.13618 17.5204C6.03651 17.5326 5.93721 17.5371 5.83807 17.5339L5.82203 18.0337L5.80599 18.5334C5.95685 18.5383 6.10756 18.5314 6.25788 18.513L6.19703 18.0167ZM5.82203 18.0337L5.83807 17.5339L5.65057 17.5279L5.63453 18.0277L5.61849 18.5274L5.80599 18.5334L5.82203 18.0337ZM5.63453 18.0277L5.65057 17.5279L5.46307 17.5219L5.44703 18.0216L5.43099 18.5214L5.61849 18.5274L5.63453 18.0277ZM5.44703 18.0216L5.46307 17.5219C5.33904 17.5179 5.21501 17.5136 5.09097 17.5089L5.07203 18.0085L5.0531 18.5082C5.17906 18.5129 5.30503 18.5173 5.43099 18.5214L5.44703 18.0216ZM5.07203 18.0085L5.09097 17.5089L4.90347 17.5018L4.88453 18.0014L4.8656 18.501L5.0531 18.5082L5.07203 18.0085ZM4.88453 18.0014L4.90347 17.5018L4.71597 17.4947L4.69703 17.9943L4.6781 18.4939L4.8656 18.501L4.88453 18.0014ZM4.69703 17.9943L4.71597 17.4947C4.5808 17.4895 4.44561 17.4885 4.31043 17.4917L4.32203 17.9915L4.33364 18.4914C4.44845 18.4887 4.56327 18.4896 4.6781 18.4939L4.69703 17.9943ZM4.32203 17.9915L4.31043 17.4917L4.12293 17.496L4.13453 17.9959L4.14614 18.4958L4.33364 18.4914L4.32203 17.9915ZM4.13453 17.9959L4.12293 17.496L3.93543 17.5004L3.94703 18.0003L3.95864 18.5001L4.14614 18.4958L4.13453 17.9959ZM3.94703 18.0003L3.93543 17.5004C3.80942 17.5033 3.68341 17.5066 3.55739 17.5103L3.57203 18.0101L3.58667 18.5099C3.71066 18.5062 3.83465 18.503 3.95864 18.5001L3.94703 18.0003ZM3.57203 18.0101L3.55739 17.5103L3.36989 17.5158L3.38453 18.0156L3.39917 18.5154L3.58667 18.5099L3.57203 18.0101ZM3.38453 18.0156L3.36989 17.5158L3.18239 17.5213L3.19703 18.0211L3.21167 18.5209L3.39917 18.5154L3.38453 18.0156ZM3.19703 18.0211L3.18239 17.5213C3.07412 17.5245 2.99102 17.5209 2.9296 17.5137L2.87097 18.0102L2.81234 18.5068C2.93567 18.5213 3.06995 18.525 3.21167 18.5209L3.19703 18.0211ZM2.87097 18.0102L2.9296 17.5137L2.79103 17.4973L2.7324 17.9938L2.67377 18.4904L2.81234 18.5068L2.87097 18.0102ZM2.7324 17.9938L2.79103 17.4973L2.65247 17.4809L2.59384 17.9775L2.53521 18.474L2.67377 18.4904L2.7324 17.9938ZM2.59384 17.9775L2.65247 17.4809C2.72095 17.489 2.79421 17.5234 2.84777 17.5819C2.89282 17.6311 2.90004 17.6712 2.89788 17.6621L2.41159 17.7784L1.9253 17.8947C1.95226 18.0075 2.00441 18.1416 2.11021 18.2572C2.22453 18.382 2.37435 18.455 2.53521 18.474L2.59384 17.9775ZM2.41159 17.7784L2.89788 17.6621L2.85419 17.4794L2.3679 17.5957L1.88161 17.712L1.9253 17.8947L2.41159 17.7784Z" fill="#FF895C"/>
</svg>
