<svg width="32" height="32" viewBox="0 0 32 32" fill="none" xmlns="http://www.w3.org/2000/svg">
<path d="M25.3333 18.6667C27.32 16.72 29.3333 14.3867 29.3333 11.3333C29.3333 9.38841 28.5607 7.52315 27.1854 6.14788C25.8101 4.77262 23.9449 4 22 4C19.6533 4 18 4.66667 16 6.66667C14 4.66667 12.3466 4 9.99996 4C8.05504 4 6.18978 4.77262 4.81451 6.14788C3.43924 7.52315 2.66663 9.38841 2.66663 11.3333C2.66663 14.4 4.66663 16.7333 6.66663 18.6667L16 28L25.3333 18.6667Z" fill="#FF500D"/>
<path d="M10.4318 2.73828L11.3224 2.86816L12.3615 3.1001L12.7882 3.2207L13.215 3.35059C13.6084 3.46769 13.9838 3.63763 14.3282 3.86084L15.0704 4.34326L15.8497 4.88135L16.0909 5.05762L16.3507 4.82568L17.2135 4.16699L17.5846 3.9165L17.965 3.67529L18.5773 3.35986C18.7887 3.27913 19.0089 3.21961 19.236 3.18359L19.6813 3.11865L20.1266 3.04443L21.1935 2.96094L21.6388 2.97021H22.0748L23.0953 3.03516L23.5314 3.1001L23.9674 3.15576C24.3623 3.20778 24.7493 3.30836 25.1178 3.46191L25.526 3.63818L25.9435 3.80518L26.5001 4.09277C26.6784 4.20317 26.8503 4.32518 27.0104 4.46387L27.3444 4.76074L27.6783 5.04834L28.1051 5.46582C28.2355 5.61192 28.3557 5.76723 28.4669 5.92969L28.7174 6.30078L28.9679 6.6626L29.4967 7.67383L29.8121 8.49023L30.1276 9.35303L30.276 9.77051L30.4244 10.1973L30.5822 10.8745L30.6007 11.561L30.5636 12.0156L30.5265 12.4609C30.5086 12.6772 30.4681 12.8931 30.4152 13.1011L30.2111 13.7041L30.0255 14.1216L29.8492 14.5298L29.4039 15.4204L28.9772 16.1997L28.337 17.1367L28.0494 17.4707L27.7526 17.814L27.1124 18.519L26.5001 19.1685C26.3924 19.2811 26.2825 19.3892 26.1847 19.4746C26.1423 19.5116 26.0575 19.587 25.9528 19.6509C25.9317 19.6637 25.8875 19.6653 25.8414 19.688L25.6188 19.9941L25.3497 20.356L24.6354 21.1724L24.3107 21.4785L23.986 21.7939L23.2438 22.4526L22.8912 22.731L22.548 23.0093L22.1212 23.4453L21.8522 23.8071L21.5831 24.1597C21.4558 24.3272 21.3153 24.4874 21.1656 24.6328L20.6925 25.0317L20.3214 25.2915L19.9596 25.5513L19.5699 25.9316L19.2916 26.2935L19.0226 26.646C18.8188 26.9124 18.5992 27.1707 18.3732 27.416L18.0763 27.7407L17.7701 28.0747C17.4653 28.4041 17.0458 28.6646 16.5455 28.7148L16.0074 28.687L15.6549 28.6221L15.3024 28.5479C15.0374 28.4955 14.794 28.3982 14.5787 28.2695L14.0035 27.7964L13.3912 27.147L12.7604 26.4233L12.1852 25.7368L11.7028 25.2358L11.3595 24.9482L11.0255 24.6514C10.7851 24.4434 10.5489 24.2314 10.3204 24.0112L9.99573 23.7051L9.6803 23.3896L9.01233 22.731L8.40002 22.0815L7.78772 21.4507L7.47229 21.126L7.16614 20.8105L6.51672 20.1055L6.22913 19.7622L5.93225 19.4282L5.38489 18.853L5.06946 18.5376L4.75403 18.2314L4.07678 17.4893L3.78918 17.146L3.51086 16.8027L2.88928 15.875L2.6759 15.4854L2.4718 15.0957L2.04504 14.1772L1.86877 13.7598L1.70178 13.3423C1.51459 12.88 1.44854 12.3904 1.50696 11.895L1.61829 11.0044L1.70178 10.1509L1.73889 9.70557L1.78528 9.26025L1.90588 8.60156C1.96795 8.38921 2.05344 8.17932 2.15637 7.97998L2.36047 7.59033L2.56458 7.19141C2.73747 6.85658 2.94084 6.53872 3.17688 6.24512L3.4552 5.89258L3.7428 5.54932L4.20667 5.06689C4.37475 4.92537 4.55937 4.8042 4.75403 4.6958L5.14368 4.47314L5.53333 4.25977L6.41467 3.82373L6.8136 3.64746L7.21252 3.46191L8.17737 3.10938L8.60413 2.97021L9.04016 2.84033L9.72668 2.71045C9.96012 2.6927 10.196 2.70377 10.4318 2.73828ZM9.72668 5.11328L9.29993 5.24316L8.86389 5.38232L8.17737 5.63281L7.77844 5.80908L7.37952 5.99463L6.68372 6.33789L6.29407 6.55127L5.9137 6.76465L5.58899 7.03369L5.31067 7.38623L5.03235 7.72949C4.89561 7.89945 4.77077 8.08274 4.67053 8.27686L4.26233 9.07471L4.151 9.47363L4.10461 9.91895L4.0675 10.3643L3.97473 11.2827L3.91907 11.728L3.87268 12.1733C3.86106 12.2718 3.87254 12.3597 3.90979 12.4517L4.07678 12.8691L4.24377 13.2773L4.56848 13.9731L4.77258 14.3628L4.98596 14.7524L5.3385 15.2905L5.6261 15.6338L5.90442 15.9678L6.42395 16.5337L6.73938 16.8491L7.05481 17.1553C7.28672 17.3834 7.50795 17.6228 7.72278 17.8696L8.01965 18.2036L8.31653 18.5469L8.87317 19.1592L9.17932 19.4746L9.49475 19.7993L10.1163 20.4395L10.7286 21.0889L11.3224 21.6826L11.6471 21.9888L11.9718 22.3042C12.1686 22.4937 12.3676 22.6815 12.5748 22.8608L12.9181 23.1484L13.2521 23.4453L14.0128 24.2153L14.3004 24.5679L14.588 24.9111L15.1261 25.5234L15.7384 26.1729L15.7848 26.2192L16.1188 26.2842L16.1744 26.2935L16.3322 26.1357L16.629 25.8018C16.805 25.6107 16.9796 25.4166 17.1393 25.208L17.4083 24.8462L17.6866 24.4937L18.0948 24.0298C18.2425 23.8863 18.3995 23.7524 18.568 23.6309L18.9391 23.3618L19.3009 23.1021L19.6906 22.7217L19.9596 22.3691L20.2286 22.0073L20.6183 21.562C20.7551 21.4212 20.9006 21.287 21.0543 21.1631L21.4069 20.8848L21.7501 20.6064L22.3439 20.0776L22.6593 19.7715L22.984 19.4653L23.4479 18.9365L23.986 18.2129L24.2643 17.8696C24.3013 17.8285 24.3776 17.7434 24.4777 17.6655C24.5211 17.6317 24.6408 17.5438 24.8116 17.48L24.8302 17.4707L25.09 17.2017L25.3961 16.877L25.9528 16.2646L26.2404 15.9307L26.528 15.5874L26.899 15.0679L27.1124 14.6782L27.3258 14.2793L27.6691 13.5742L27.8546 13.1567L28.0309 12.7485L28.1608 12.2661L28.1979 11.8208L28.235 11.3662L28.1793 10.9858L28.0309 10.5591L27.8824 10.1416L27.5856 9.33447L27.4371 8.93555L27.2794 8.52734L27.0011 7.99854L26.7599 7.63672L26.5094 7.2749L26.129 6.84814L25.7858 6.55127L25.4518 6.26367L25.025 5.99463L24.6168 5.82764L24.2086 5.65137C24.0309 5.57717 23.8466 5.53668 23.6613 5.51221L23.2252 5.44727L22.7892 5.3916L22.0656 5.34521H21.6202L21.1842 5.33594L20.4884 5.3916L20.0524 5.46582L19.6071 5.53076L19.2545 5.66992L18.8741 5.91113L18.5031 6.15234L17.9464 6.5791L17.297 7.17285C17.0541 7.39343 16.7 7.61411 16.2487 7.646C15.7878 7.67759 15.3957 7.50879 15.1168 7.30273L14.7828 7.04297L14.4396 6.79248L13.7809 6.33789L13.4098 6.09668L13.0294 5.85547C12.8761 5.75653 12.7129 5.68495 12.5377 5.63281L11.6842 5.37305L10.9791 5.21533L10.0885 5.08545L9.72668 5.11328Z" fill="#FF500D"/>
<path d="M21.8612 11.2891C21.9779 11.3626 22.0128 11.516 21.9393 11.6328L21.8866 11.7188L21.8827 11.7246L21.8065 11.8379C21.7772 11.8817 21.7467 11.9247 21.7147 11.9629L21.6132 12.0664L21.5428 12.1289L21.4706 12.1914L21.41 12.2676L21.3202 12.4355C21.2983 12.4766 21.2724 12.5147 21.244 12.5508L21.1503 12.6523L21.08 12.7148L21.0077 12.7793L20.9862 12.8008L20.9803 12.8105L21.0507 12.8516L21.2382 12.9805L21.3104 13.0391L21.3846 13.0996L21.4862 13.1602L21.5721 13.1973L21.66 13.2363L21.869 13.3516L21.9471 13.4062L22.0233 13.4609L22.08 13.5L22.0878 13.5039L22.0936 13.5078L22.0897 13.5117L22.1093 13.4961L22.1815 13.5645L22.2382 13.6465C22.2768 13.7359 22.2608 13.8431 22.1893 13.918C22.1045 14.0066 21.9738 14.0145 21.8749 13.9492L21.871 13.957L21.8573 13.9492C21.835 13.9381 21.8112 13.9212 21.8007 13.9141L21.7343 13.8691L21.6581 13.8145L21.5819 13.7617L21.4628 13.6953L21.3768 13.6582L21.2889 13.6211C21.2497 13.6043 21.2119 13.5844 21.1757 13.5625L21.0702 13.4883L20.996 13.4277L20.9218 13.3691L20.8007 13.2852L20.7186 13.2383L20.6385 13.1914C20.5876 13.1621 20.5239 13.1143 20.4843 13.0371C20.4404 12.9517 20.441 12.8597 20.4667 12.7812L20.4882 12.7129L20.5116 12.6445L20.58 12.5117C20.6083 12.4719 20.6408 12.4354 20.6757 12.4043L20.746 12.3418L20.8182 12.2793L20.8788 12.1992L20.9686 12.0312L21.0448 11.916C21.0736 11.8796 21.1052 11.8454 21.1405 11.8145L21.285 11.6895L21.3905 11.5605L21.4667 11.4453L21.5175 11.3672C21.591 11.2504 21.7444 11.2155 21.8612 11.2891Z" fill="#1D293D"/>
<path d="M10.6478 11.2891C10.5312 11.3626 10.4963 11.516 10.5697 11.6328L10.6224 11.7188L10.64 11.7441L10.6635 11.7676L10.765 11.8633L10.89 11.998L10.9994 12.1504L11.1049 12.2988L11.1576 12.377L11.2123 12.4531L11.3334 12.6172L11.392 12.6914L11.4486 12.7637C11.4738 12.7955 11.4942 12.8252 11.5092 12.8516L11.4877 12.8633L11.3041 12.9609L11.224 13.0078L11.142 13.0547L10.9779 13.1543L10.8978 13.2031L10.8177 13.25L10.6654 13.3379L10.5834 13.3809L10.5013 13.4258L10.4213 13.4727C10.4101 13.4797 10.3957 13.4875 10.3822 13.498L10.3177 13.5684L10.308 13.582L10.3138 13.5859C10.2311 13.6823 10.2302 13.8242 10.3197 13.918C10.3914 13.9929 10.4981 14.0133 10.5892 13.9785L10.6732 13.9258L10.7338 13.8691L10.7377 13.8672L10.9017 13.7773L11.0775 13.6777L11.2377 13.5801L11.3939 13.4863L11.476 13.4395L11.556 13.3926L11.7045 13.3125L11.7904 13.2715L11.8744 13.2305C11.9283 13.2043 12.0084 13.1534 12.0502 13.0566C12.0964 12.9493 12.0698 12.8473 12.0345 12.7793L11.9994 12.709L11.9623 12.6387L11.8412 12.4531L11.7826 12.3809L11.726 12.3066L11.6224 12.1699L11.517 12.0137L11.4056 11.8574L11.351 11.7812L11.2943 11.7051L11.1068 11.498L11.0306 11.4258L10.9916 11.3672C10.918 11.2504 10.7646 11.2155 10.6478 11.2891Z" fill="#1D293D"/>
<path d="M17.4762 15.1836C17.572 15.1675 17.6725 15.2079 17.7281 15.2949C17.8 15.4072 17.7685 15.5518 17.6617 15.6289L17.6598 15.6445L17.6129 15.6992L17.566 15.752L17.4723 15.8652L17.4137 15.9395L17.3571 16.0117C17.3086 16.0735 17.2546 16.1306 17.1949 16.1816L17.1246 16.2422L17.0524 16.3027L16.8649 16.4355L16.7047 16.5293L16.4899 16.627L16.402 16.6582L16.3121 16.6895C16.2108 16.7242 16.1047 16.7301 15.9996 16.709L15.9078 16.6914L15.816 16.6719L15.5895 16.6035L15.5055 16.5664L15.4196 16.5312L15.2145 16.418L15.1364 16.3652L15.0602 16.3125L14.8746 16.1504L14.8121 16.0801L14.7477 16.0117C14.6669 15.9228 14.6195 15.8064 14.5895 15.6914L14.5778 15.6387H14.5739L14.5035 15.5703C14.4487 15.4895 14.445 15.3799 14.5016 15.293C14.5583 15.2063 14.6595 15.1661 14.7555 15.1836L14.8473 15.2207L14.9313 15.2754L15.0114 15.3281L15.0367 15.4219L15.0739 15.5645C15.0936 15.6401 15.1141 15.6685 15.1188 15.6738L15.1813 15.7441L15.2457 15.8145C15.2753 15.847 15.3081 15.8762 15.3434 15.9004L15.4196 15.9531L15.4977 16.0059L15.6149 16.0703L15.6989 16.1055L15.7848 16.1426L15.9137 16.1816L16.0055 16.2012L16.0992 16.2188C16.117 16.2222 16.1326 16.2208 16.15 16.2148L16.2399 16.1855L16.3278 16.1543L16.4528 16.0977L16.6129 16.0039L16.7281 15.9238L16.7985 15.8633L16.8688 15.8008L16.9645 15.7031L17.0211 15.6309L17.0797 15.5566L17.191 15.4199L17.2047 15.334L17.2985 15.2734L17.3824 15.2188L17.4762 15.1836Z" fill="#1D293D"/>
<path d="M15.2539 13.368C15.3624 13.2694 15.4929 13.2975 15.6305 13.2975C15.783 13.3483 16.0266 13.226 16.1774 13.1998C16.3067 13.1774 16.4403 13.1859 16.571 13.1859C16.648 13.1859 16.7958 13.1922 16.8639 13.2355C16.9006 13.2589 16.9154 13.3222 16.9274 13.3594C16.969 13.4891 16.9868 13.6267 16.994 13.7623C16.9995 13.8654 16.9971 13.969 16.9971 14.0722C16.9971 14.0965 17.0019 14.1274 16.994 14.1512C16.9041 14.421 16.6366 14.6092 16.361 14.6354C15.9117 14.6782 15.4133 14.6049 15.123 14.2179C15.0021 14.0567 14.961 13.8779 15.0138 13.6879C15.0497 13.5587 15.1567 13.4564 15.2539 13.368Z" fill="#FF895C"/>
<path d="M16.6396 12.9226L16.7393 12.9382L16.8369 12.9519L16.9443 12.9812C16.9807 12.997 17.0154 13.0198 17.0479 13.0496C17.0802 13.0792 17.1052 13.1125 17.124 13.1472L17.165 13.2527L17.208 13.4441L17.2412 13.6746L17.2529 13.8621L17.251 13.9988L17.2236 14.1316L17.1689 14.3074C17.1524 14.3621 17.1284 14.4125 17.0967 14.4578L16.9795 14.5789L16.9053 14.6335L16.833 14.6882C16.7946 14.7167 16.7528 14.7389 16.71 14.7585L16.5771 14.8054L16.4893 14.825L16.3994 14.8445C16.358 14.8539 16.3164 14.8608 16.2744 14.864H16.1475L15.9639 14.8523L15.7314 14.8132L15.6436 14.7878L15.5576 14.7644C15.4794 14.7424 15.4036 14.7111 15.333 14.6707L15.2529 14.6238L15.1748 14.5789C15.1307 14.5535 15.0898 14.5234 15.0537 14.489L14.96 14.3738L14.9092 14.2976L14.8604 14.2195C14.8015 14.1284 14.7691 14.0264 14.7666 13.9187L14.7627 13.7312C14.7598 13.5976 14.8117 13.4766 14.9092 13.3855L15.0459 13.2566L15.1709 13.1667C15.2158 13.1425 15.2641 13.1238 15.3154 13.1121L15.4033 13.0925L15.4893 13.073L15.667 13.0476H15.7373L15.7607 13.0457C15.7777 13.044 15.8003 13.0418 15.8291 13.0378L15.9229 13.0242L16.0146 13.0125L16.1748 12.9812L16.2646 12.9597L16.3564 12.9363C16.4496 12.9134 16.5448 12.9091 16.6396 12.9226ZM16.4756 13.4226L16.3857 13.4441L16.2939 13.4675L16.085 13.5066L15.9912 13.5203L15.8975 13.532L15.7354 13.5476H15.6689C15.6668 13.5478 15.6629 13.5486 15.6572 13.5496L15.6006 13.5613L15.5127 13.5808L15.4268 13.6003L15.3877 13.6238L15.3193 13.6863L15.2627 13.739L15.2646 13.8132L15.2666 13.907C15.267 13.924 15.2726 13.936 15.2803 13.948L15.3291 14.0261L15.3799 14.1042L15.4229 14.1453L15.5029 14.1902L15.5811 14.2351C15.6162 14.2553 15.6538 14.2711 15.6924 14.282L15.7803 14.3074L15.8682 14.3308L15.9951 14.3542L16.0889 14.3601L16.1807 14.366L16.29 14.3582L16.3779 14.3367L16.4658 14.3171L16.5342 14.2859L16.6826 14.1765L16.6885 14.1707C16.6891 14.1696 16.6892 14.167 16.6904 14.1628L16.7451 13.9871L16.7549 13.8933L16.7432 13.7058L16.7197 13.5554L16.6982 13.4597L16.6924 13.4343L16.667 13.4324L16.5693 13.4187C16.5342 13.4137 16.5035 13.4158 16.4756 13.4226Z" fill="#FF895C"/>
</svg>
